<?xml version="1.0" encoding="utf-8" standalone="no"?>
<!DOCTYPE svg PUBLIC "-//W3C//DTD SVG 1.1//EN"
  "http://www.w3.org/Graphics/SVG/1.1/DTD/svg11.dtd">
<!-- Created with matplotlib (https://matplotlib.org/) -->
<svg height="345.6pt" version="1.1" viewBox="0 0 460.8 345.6" width="460.8pt" xmlns="http://www.w3.org/2000/svg" xmlns:xlink="http://www.w3.org/1999/xlink">
 <defs>
  <style type="text/css">
*{stroke-linecap:butt;stroke-linejoin:round;}
  </style>
 </defs>
 <g id="figure_1">
  <g id="patch_1">
   <path d="M 0 345.6 
L 460.8 345.6 
L 460.8 0 
L 0 0 
z
" style="fill:#ffffff;"/>
  </g>
  <g id="axes_1">
   <g id="patch_2">
    <path d="M 57.6 307.584 
L 414.72 307.584 
L 414.72 41.472 
L 57.6 41.472 
z
" style="fill:#eaeaf2;"/>
   </g>
   <g id="matplotlib.axis_1">
    <g id="xtick_1">
     <g id="line2d_1">
      <path clip-path="url(#pdb6e29a787)" d="M 57.6 307.584 
L 57.6 41.472 
" style="fill:none;stroke:#ffffff;stroke-linecap:round;"/>
     </g>
     <g id="text_1">
      <!-- 0 -->
      <defs>
       <path d="M 31.78125 66.40625 
Q 24.171875 66.40625 20.328125 58.90625 
Q 16.5 51.421875 16.5 36.375 
Q 16.5 21.390625 20.328125 13.890625 
Q 24.171875 6.390625 31.78125 6.390625 
Q 39.453125 6.390625 43.28125 13.890625 
Q 47.125 21.390625 47.125 36.375 
Q 47.125 51.421875 43.28125 58.90625 
Q 39.453125 66.40625 31.78125 66.40625 
z
M 31.78125 74.21875 
Q 44.046875 74.21875 50.515625 64.515625 
Q 56.984375 54.828125 56.984375 36.375 
Q 56.984375 17.96875 50.515625 8.265625 
Q 44.046875 -1.421875 31.78125 -1.421875 
Q 19.53125 -1.421875 13.0625 8.265625 
Q 6.59375 17.96875 6.59375 36.375 
Q 6.59375 54.828125 13.0625 64.515625 
Q 19.53125 74.21875 31.78125 74.21875 
z
" id="DejaVuSans-48"/>
      </defs>
      <g style="fill:#262626;" transform="translate(54.100625 325.442281)scale(0.11 -0.11)">
       <use xlink:href="#DejaVuSans-48"/>
      </g>
     </g>
    </g>
    <g id="xtick_2">
     <g id="line2d_2">
      <path clip-path="url(#pdb6e29a787)" d="M 100.199485 307.584 
L 100.199485 41.472 
" style="fill:none;stroke:#ffffff;stroke-linecap:round;"/>
     </g>
     <g id="text_2">
      <!-- 500 -->
      <defs>
       <path d="M 10.796875 72.90625 
L 49.515625 72.90625 
L 49.515625 64.59375 
L 19.828125 64.59375 
L 19.828125 46.734375 
Q 21.96875 47.46875 24.109375 47.828125 
Q 26.265625 48.1875 28.421875 48.1875 
Q 40.625 48.1875 47.75 41.5 
Q 54.890625 34.8125 54.890625 23.390625 
Q 54.890625 11.625 47.5625 5.09375 
Q 40.234375 -1.421875 26.90625 -1.421875 
Q 22.3125 -1.421875 17.546875 -0.640625 
Q 12.796875 0.140625 7.71875 1.703125 
L 7.71875 11.625 
Q 12.109375 9.234375 16.796875 8.0625 
Q 21.484375 6.890625 26.703125 6.890625 
Q 35.15625 6.890625 40.078125 11.328125 
Q 45.015625 15.765625 45.015625 23.390625 
Q 45.015625 31 40.078125 35.4375 
Q 35.15625 39.890625 26.703125 39.890625 
Q 22.75 39.890625 18.8125 39.015625 
Q 14.890625 38.140625 10.796875 36.28125 
z
" id="DejaVuSans-53"/>
      </defs>
      <g style="fill:#262626;" transform="translate(89.70136 325.442281)scale(0.11 -0.11)">
       <use xlink:href="#DejaVuSans-53"/>
       <use x="63.623047" xlink:href="#DejaVuSans-48"/>
       <use x="127.246094" xlink:href="#DejaVuSans-48"/>
      </g>
     </g>
    </g>
    <g id="xtick_3">
     <g id="line2d_3">
      <path clip-path="url(#pdb6e29a787)" d="M 142.798969 307.584 
L 142.798969 41.472 
" style="fill:none;stroke:#ffffff;stroke-linecap:round;"/>
     </g>
     <g id="text_3">
      <!-- 1000 -->
      <defs>
       <path d="M 12.40625 8.296875 
L 28.515625 8.296875 
L 28.515625 63.921875 
L 10.984375 60.40625 
L 10.984375 69.390625 
L 28.421875 72.90625 
L 38.28125 72.90625 
L 38.28125 8.296875 
L 54.390625 8.296875 
L 54.390625 0 
L 12.40625 0 
z
" id="DejaVuSans-49"/>
      </defs>
      <g style="fill:#262626;" transform="translate(128.801469 325.442281)scale(0.11 -0.11)">
       <use xlink:href="#DejaVuSans-49"/>
       <use x="63.623047" xlink:href="#DejaVuSans-48"/>
       <use x="127.246094" xlink:href="#DejaVuSans-48"/>
       <use x="190.869141" xlink:href="#DejaVuSans-48"/>
      </g>
     </g>
    </g>
    <g id="xtick_4">
     <g id="line2d_4">
      <path clip-path="url(#pdb6e29a787)" d="M 185.398454 307.584 
L 185.398454 41.472 
" style="fill:none;stroke:#ffffff;stroke-linecap:round;"/>
     </g>
     <g id="text_4">
      <!-- 1500 -->
      <g style="fill:#262626;" transform="translate(171.400954 325.442281)scale(0.11 -0.11)">
       <use xlink:href="#DejaVuSans-49"/>
       <use x="63.623047" xlink:href="#DejaVuSans-53"/>
       <use x="127.246094" xlink:href="#DejaVuSans-48"/>
       <use x="190.869141" xlink:href="#DejaVuSans-48"/>
      </g>
     </g>
    </g>
    <g id="xtick_5">
     <g id="line2d_5">
      <path clip-path="url(#pdb6e29a787)" d="M 227.997939 307.584 
L 227.997939 41.472 
" style="fill:none;stroke:#ffffff;stroke-linecap:round;"/>
     </g>
     <g id="text_5">
      <!-- 2000 -->
      <defs>
       <path d="M 19.1875 8.296875 
L 53.609375 8.296875 
L 53.609375 0 
L 7.328125 0 
L 7.328125 8.296875 
Q 12.9375 14.109375 22.625 23.890625 
Q 32.328125 33.6875 34.8125 36.53125 
Q 39.546875 41.84375 41.421875 45.53125 
Q 43.3125 49.21875 43.3125 52.78125 
Q 43.3125 58.59375 39.234375 62.25 
Q 35.15625 65.921875 28.609375 65.921875 
Q 23.96875 65.921875 18.8125 64.3125 
Q 13.671875 62.703125 7.8125 59.421875 
L 7.8125 69.390625 
Q 13.765625 71.78125 18.9375 73 
Q 24.125 74.21875 28.421875 74.21875 
Q 39.75 74.21875 46.484375 68.546875 
Q 53.21875 62.890625 53.21875 53.421875 
Q 53.21875 48.921875 51.53125 44.890625 
Q 49.859375 40.875 45.40625 35.40625 
Q 44.1875 33.984375 37.640625 27.21875 
Q 31.109375 20.453125 19.1875 8.296875 
z
" id="DejaVuSans-50"/>
      </defs>
      <g style="fill:#262626;" transform="translate(214.000439 325.442281)scale(0.11 -0.11)">
       <use xlink:href="#DejaVuSans-50"/>
       <use x="63.623047" xlink:href="#DejaVuSans-48"/>
       <use x="127.246094" xlink:href="#DejaVuSans-48"/>
       <use x="190.869141" xlink:href="#DejaVuSans-48"/>
      </g>
     </g>
    </g>
    <g id="xtick_6">
     <g id="line2d_6">
      <path clip-path="url(#pdb6e29a787)" d="M 270.597423 307.584 
L 270.597423 41.472 
" style="fill:none;stroke:#ffffff;stroke-linecap:round;"/>
     </g>
     <g id="text_6">
      <!-- 2500 -->
      <g style="fill:#262626;" transform="translate(256.599923 325.442281)scale(0.11 -0.11)">
       <use xlink:href="#DejaVuSans-50"/>
       <use x="63.623047" xlink:href="#DejaVuSans-53"/>
       <use x="127.246094" xlink:href="#DejaVuSans-48"/>
       <use x="190.869141" xlink:href="#DejaVuSans-48"/>
      </g>
     </g>
    </g>
    <g id="xtick_7">
     <g id="line2d_7">
      <path clip-path="url(#pdb6e29a787)" d="M 313.196908 307.584 
L 313.196908 41.472 
" style="fill:none;stroke:#ffffff;stroke-linecap:round;"/>
     </g>
     <g id="text_7">
      <!-- 3000 -->
      <defs>
       <path d="M 40.578125 39.3125 
Q 47.65625 37.796875 51.625 33 
Q 55.609375 28.21875 55.609375 21.1875 
Q 55.609375 10.40625 48.1875 4.484375 
Q 40.765625 -1.421875 27.09375 -1.421875 
Q 22.515625 -1.421875 17.65625 -0.515625 
Q 12.796875 0.390625 7.625 2.203125 
L 7.625 11.71875 
Q 11.71875 9.328125 16.59375 8.109375 
Q 21.484375 6.890625 26.8125 6.890625 
Q 36.078125 6.890625 40.9375 10.546875 
Q 45.796875 14.203125 45.796875 21.1875 
Q 45.796875 27.640625 41.28125 31.265625 
Q 36.765625 34.90625 28.71875 34.90625 
L 20.21875 34.90625 
L 20.21875 43.015625 
L 29.109375 43.015625 
Q 36.375 43.015625 40.234375 45.921875 
Q 44.09375 48.828125 44.09375 54.296875 
Q 44.09375 59.90625 40.109375 62.90625 
Q 36.140625 65.921875 28.71875 65.921875 
Q 24.65625 65.921875 20.015625 65.03125 
Q 15.375 64.15625 9.8125 62.3125 
L 9.8125 71.09375 
Q 15.4375 72.65625 20.34375 73.4375 
Q 25.25 74.21875 29.59375 74.21875 
Q 40.828125 74.21875 47.359375 69.109375 
Q 53.90625 64.015625 53.90625 55.328125 
Q 53.90625 49.265625 50.4375 45.09375 
Q 46.96875 40.921875 40.578125 39.3125 
z
" id="DejaVuSans-51"/>
      </defs>
      <g style="fill:#262626;" transform="translate(299.199408 325.442281)scale(0.11 -0.11)">
       <use xlink:href="#DejaVuSans-51"/>
       <use x="63.623047" xlink:href="#DejaVuSans-48"/>
       <use x="127.246094" xlink:href="#DejaVuSans-48"/>
       <use x="190.869141" xlink:href="#DejaVuSans-48"/>
      </g>
     </g>
    </g>
    <g id="xtick_8">
     <g id="line2d_8">
      <path clip-path="url(#pdb6e29a787)" d="M 355.796393 307.584 
L 355.796393 41.472 
" style="fill:none;stroke:#ffffff;stroke-linecap:round;"/>
     </g>
     <g id="text_8">
      <!-- 3500 -->
      <g style="fill:#262626;" transform="translate(341.798893 325.442281)scale(0.11 -0.11)">
       <use xlink:href="#DejaVuSans-51"/>
       <use x="63.623047" xlink:href="#DejaVuSans-53"/>
       <use x="127.246094" xlink:href="#DejaVuSans-48"/>
       <use x="190.869141" xlink:href="#DejaVuSans-48"/>
      </g>
     </g>
    </g>
    <g id="xtick_9">
     <g id="line2d_9">
      <path clip-path="url(#pdb6e29a787)" d="M 398.395877 307.584 
L 398.395877 41.472 
" style="fill:none;stroke:#ffffff;stroke-linecap:round;"/>
     </g>
     <g id="text_9">
      <!-- 4000 -->
      <defs>
       <path d="M 37.796875 64.3125 
L 12.890625 25.390625 
L 37.796875 25.390625 
z
M 35.203125 72.90625 
L 47.609375 72.90625 
L 47.609375 25.390625 
L 58.015625 25.390625 
L 58.015625 17.1875 
L 47.609375 17.1875 
L 47.609375 0 
L 37.796875 0 
L 37.796875 17.1875 
L 4.890625 17.1875 
L 4.890625 26.703125 
z
" id="DejaVuSans-52"/>
      </defs>
      <g style="fill:#262626;" transform="translate(384.398377 325.442281)scale(0.11 -0.11)">
       <use xlink:href="#DejaVuSans-52"/>
       <use x="63.623047" xlink:href="#DejaVuSans-48"/>
       <use x="127.246094" xlink:href="#DejaVuSans-48"/>
       <use x="190.869141" xlink:href="#DejaVuSans-48"/>
      </g>
     </g>
    </g>
    <g id="text_10">
     <!-- number of defect categories -->
     <defs>
      <path d="M 54.890625 33.015625 
L 54.890625 0 
L 45.90625 0 
L 45.90625 32.71875 
Q 45.90625 40.484375 42.875 44.328125 
Q 39.84375 48.1875 33.796875 48.1875 
Q 26.515625 48.1875 22.3125 43.546875 
Q 18.109375 38.921875 18.109375 30.90625 
L 18.109375 0 
L 9.078125 0 
L 9.078125 54.6875 
L 18.109375 54.6875 
L 18.109375 46.1875 
Q 21.34375 51.125 25.703125 53.5625 
Q 30.078125 56 35.796875 56 
Q 45.21875 56 50.046875 50.171875 
Q 54.890625 44.34375 54.890625 33.015625 
z
" id="DejaVuSans-110"/>
      <path d="M 8.5 21.578125 
L 8.5 54.6875 
L 17.484375 54.6875 
L 17.484375 21.921875 
Q 17.484375 14.15625 20.5 10.265625 
Q 23.53125 6.390625 29.59375 6.390625 
Q 36.859375 6.390625 41.078125 11.03125 
Q 45.3125 15.671875 45.3125 23.6875 
L 45.3125 54.6875 
L 54.296875 54.6875 
L 54.296875 0 
L 45.3125 0 
L 45.3125 8.40625 
Q 42.046875 3.421875 37.71875 1 
Q 33.40625 -1.421875 27.6875 -1.421875 
Q 18.265625 -1.421875 13.375 4.4375 
Q 8.5 10.296875 8.5 21.578125 
z
M 31.109375 56 
z
" id="DejaVuSans-117"/>
      <path d="M 52 44.1875 
Q 55.375 50.25 60.0625 53.125 
Q 64.75 56 71.09375 56 
Q 79.640625 56 84.28125 50.015625 
Q 88.921875 44.046875 88.921875 33.015625 
L 88.921875 0 
L 79.890625 0 
L 79.890625 32.71875 
Q 79.890625 40.578125 77.09375 44.375 
Q 74.3125 48.1875 68.609375 48.1875 
Q 61.625 48.1875 57.5625 43.546875 
Q 53.515625 38.921875 53.515625 30.90625 
L 53.515625 0 
L 44.484375 0 
L 44.484375 32.71875 
Q 44.484375 40.625 41.703125 44.40625 
Q 38.921875 48.1875 33.109375 48.1875 
Q 26.21875 48.1875 22.15625 43.53125 
Q 18.109375 38.875 18.109375 30.90625 
L 18.109375 0 
L 9.078125 0 
L 9.078125 54.6875 
L 18.109375 54.6875 
L 18.109375 46.1875 
Q 21.1875 51.21875 25.484375 53.609375 
Q 29.78125 56 35.6875 56 
Q 41.65625 56 45.828125 52.96875 
Q 50 49.953125 52 44.1875 
z
" id="DejaVuSans-109"/>
      <path d="M 48.6875 27.296875 
Q 48.6875 37.203125 44.609375 42.84375 
Q 40.53125 48.484375 33.40625 48.484375 
Q 26.265625 48.484375 22.1875 42.84375 
Q 18.109375 37.203125 18.109375 27.296875 
Q 18.109375 17.390625 22.1875 11.75 
Q 26.265625 6.109375 33.40625 6.109375 
Q 40.53125 6.109375 44.609375 11.75 
Q 48.6875 17.390625 48.6875 27.296875 
z
M 18.109375 46.390625 
Q 20.953125 51.265625 25.265625 53.625 
Q 29.59375 56 35.59375 56 
Q 45.5625 56 51.78125 48.09375 
Q 58.015625 40.1875 58.015625 27.296875 
Q 58.015625 14.40625 51.78125 6.484375 
Q 45.5625 -1.421875 35.59375 -1.421875 
Q 29.59375 -1.421875 25.265625 0.953125 
Q 20.953125 3.328125 18.109375 8.203125 
L 18.109375 0 
L 9.078125 0 
L 9.078125 75.984375 
L 18.109375 75.984375 
z
" id="DejaVuSans-98"/>
      <path d="M 56.203125 29.59375 
L 56.203125 25.203125 
L 14.890625 25.203125 
Q 15.484375 15.921875 20.484375 11.0625 
Q 25.484375 6.203125 34.421875 6.203125 
Q 39.59375 6.203125 44.453125 7.46875 
Q 49.3125 8.734375 54.109375 11.28125 
L 54.109375 2.78125 
Q 49.265625 0.734375 44.1875 -0.34375 
Q 39.109375 -1.421875 33.890625 -1.421875 
Q 20.796875 -1.421875 13.15625 6.1875 
Q 5.515625 13.8125 5.515625 26.8125 
Q 5.515625 40.234375 12.765625 48.109375 
Q 20.015625 56 32.328125 56 
Q 43.359375 56 49.78125 48.890625 
Q 56.203125 41.796875 56.203125 29.59375 
z
M 47.21875 32.234375 
Q 47.125 39.59375 43.09375 43.984375 
Q 39.0625 48.390625 32.421875 48.390625 
Q 24.90625 48.390625 20.390625 44.140625 
Q 15.875 39.890625 15.1875 32.171875 
z
" id="DejaVuSans-101"/>
      <path d="M 41.109375 46.296875 
Q 39.59375 47.171875 37.8125 47.578125 
Q 36.03125 48 33.890625 48 
Q 26.265625 48 22.1875 43.046875 
Q 18.109375 38.09375 18.109375 28.8125 
L 18.109375 0 
L 9.078125 0 
L 9.078125 54.6875 
L 18.109375 54.6875 
L 18.109375 46.1875 
Q 20.953125 51.171875 25.484375 53.578125 
Q 30.03125 56 36.53125 56 
Q 37.453125 56 38.578125 55.875 
Q 39.703125 55.765625 41.0625 55.515625 
z
" id="DejaVuSans-114"/>
      <path id="DejaVuSans-32"/>
      <path d="M 30.609375 48.390625 
Q 23.390625 48.390625 19.1875 42.75 
Q 14.984375 37.109375 14.984375 27.296875 
Q 14.984375 17.484375 19.15625 11.84375 
Q 23.34375 6.203125 30.609375 6.203125 
Q 37.796875 6.203125 41.984375 11.859375 
Q 46.1875 17.53125 46.1875 27.296875 
Q 46.1875 37.015625 41.984375 42.703125 
Q 37.796875 48.390625 30.609375 48.390625 
z
M 30.609375 56 
Q 42.328125 56 49.015625 48.375 
Q 55.71875 40.765625 55.71875 27.296875 
Q 55.71875 13.875 49.015625 6.21875 
Q 42.328125 -1.421875 30.609375 -1.421875 
Q 18.84375 -1.421875 12.171875 6.21875 
Q 5.515625 13.875 5.515625 27.296875 
Q 5.515625 40.765625 12.171875 48.375 
Q 18.84375 56 30.609375 56 
z
" id="DejaVuSans-111"/>
      <path d="M 37.109375 75.984375 
L 37.109375 68.5 
L 28.515625 68.5 
Q 23.6875 68.5 21.796875 66.546875 
Q 19.921875 64.59375 19.921875 59.515625 
L 19.921875 54.6875 
L 34.71875 54.6875 
L 34.71875 47.703125 
L 19.921875 47.703125 
L 19.921875 0 
L 10.890625 0 
L 10.890625 47.703125 
L 2.296875 47.703125 
L 2.296875 54.6875 
L 10.890625 54.6875 
L 10.890625 58.5 
Q 10.890625 67.625 15.140625 71.796875 
Q 19.390625 75.984375 28.609375 75.984375 
z
" id="DejaVuSans-102"/>
      <path d="M 45.40625 46.390625 
L 45.40625 75.984375 
L 54.390625 75.984375 
L 54.390625 0 
L 45.40625 0 
L 45.40625 8.203125 
Q 42.578125 3.328125 38.25 0.953125 
Q 33.9375 -1.421875 27.875 -1.421875 
Q 17.96875 -1.421875 11.734375 6.484375 
Q 5.515625 14.40625 5.515625 27.296875 
Q 5.515625 40.1875 11.734375 48.09375 
Q 17.96875 56 27.875 56 
Q 33.9375 56 38.25 53.625 
Q 42.578125 51.265625 45.40625 46.390625 
z
M 14.796875 27.296875 
Q 14.796875 17.390625 18.875 11.75 
Q 22.953125 6.109375 30.078125 6.109375 
Q 37.203125 6.109375 41.296875 11.75 
Q 45.40625 17.390625 45.40625 27.296875 
Q 45.40625 37.203125 41.296875 42.84375 
Q 37.203125 48.484375 30.078125 48.484375 
Q 22.953125 48.484375 18.875 42.84375 
Q 14.796875 37.203125 14.796875 27.296875 
z
" id="DejaVuSans-100"/>
      <path d="M 48.78125 52.59375 
L 48.78125 44.1875 
Q 44.96875 46.296875 41.140625 47.34375 
Q 37.3125 48.390625 33.40625 48.390625 
Q 24.65625 48.390625 19.8125 42.84375 
Q 14.984375 37.3125 14.984375 27.296875 
Q 14.984375 17.28125 19.8125 11.734375 
Q 24.65625 6.203125 33.40625 6.203125 
Q 37.3125 6.203125 41.140625 7.25 
Q 44.96875 8.296875 48.78125 10.40625 
L 48.78125 2.09375 
Q 45.015625 0.34375 40.984375 -0.53125 
Q 36.96875 -1.421875 32.421875 -1.421875 
Q 20.0625 -1.421875 12.78125 6.34375 
Q 5.515625 14.109375 5.515625 27.296875 
Q 5.515625 40.671875 12.859375 48.328125 
Q 20.21875 56 33.015625 56 
Q 37.15625 56 41.109375 55.140625 
Q 45.0625 54.296875 48.78125 52.59375 
z
" id="DejaVuSans-99"/>
      <path d="M 18.3125 70.21875 
L 18.3125 54.6875 
L 36.8125 54.6875 
L 36.8125 47.703125 
L 18.3125 47.703125 
L 18.3125 18.015625 
Q 18.3125 11.328125 20.140625 9.421875 
Q 21.96875 7.515625 27.59375 7.515625 
L 36.8125 7.515625 
L 36.8125 0 
L 27.59375 0 
Q 17.1875 0 13.234375 3.875 
Q 9.28125 7.765625 9.28125 18.015625 
L 9.28125 47.703125 
L 2.6875 47.703125 
L 2.6875 54.6875 
L 9.28125 54.6875 
L 9.28125 70.21875 
z
" id="DejaVuSans-116"/>
      <path d="M 34.28125 27.484375 
Q 23.390625 27.484375 19.1875 25 
Q 14.984375 22.515625 14.984375 16.5 
Q 14.984375 11.71875 18.140625 8.90625 
Q 21.296875 6.109375 26.703125 6.109375 
Q 34.1875 6.109375 38.703125 11.40625 
Q 43.21875 16.703125 43.21875 25.484375 
L 43.21875 27.484375 
z
M 52.203125 31.203125 
L 52.203125 0 
L 43.21875 0 
L 43.21875 8.296875 
Q 40.140625 3.328125 35.546875 0.953125 
Q 30.953125 -1.421875 24.3125 -1.421875 
Q 15.921875 -1.421875 10.953125 3.296875 
Q 6 8.015625 6 15.921875 
Q 6 25.140625 12.171875 29.828125 
Q 18.359375 34.515625 30.609375 34.515625 
L 43.21875 34.515625 
L 43.21875 35.40625 
Q 43.21875 41.609375 39.140625 45 
Q 35.0625 48.390625 27.6875 48.390625 
Q 23 48.390625 18.546875 47.265625 
Q 14.109375 46.140625 10.015625 43.890625 
L 10.015625 52.203125 
Q 14.9375 54.109375 19.578125 55.046875 
Q 24.21875 56 28.609375 56 
Q 40.484375 56 46.34375 49.84375 
Q 52.203125 43.703125 52.203125 31.203125 
z
" id="DejaVuSans-97"/>
      <path d="M 45.40625 27.984375 
Q 45.40625 37.75 41.375 43.109375 
Q 37.359375 48.484375 30.078125 48.484375 
Q 22.859375 48.484375 18.828125 43.109375 
Q 14.796875 37.75 14.796875 27.984375 
Q 14.796875 18.265625 18.828125 12.890625 
Q 22.859375 7.515625 30.078125 7.515625 
Q 37.359375 7.515625 41.375 12.890625 
Q 45.40625 18.265625 45.40625 27.984375 
z
M 54.390625 6.78125 
Q 54.390625 -7.171875 48.1875 -13.984375 
Q 42 -20.796875 29.203125 -20.796875 
Q 24.46875 -20.796875 20.265625 -20.09375 
Q 16.0625 -19.390625 12.109375 -17.921875 
L 12.109375 -9.1875 
Q 16.0625 -11.328125 19.921875 -12.34375 
Q 23.78125 -13.375 27.78125 -13.375 
Q 36.625 -13.375 41.015625 -8.765625 
Q 45.40625 -4.15625 45.40625 5.171875 
L 45.40625 9.625 
Q 42.625 4.78125 38.28125 2.390625 
Q 33.9375 0 27.875 0 
Q 17.828125 0 11.671875 7.65625 
Q 5.515625 15.328125 5.515625 27.984375 
Q 5.515625 40.671875 11.671875 48.328125 
Q 17.828125 56 27.875 56 
Q 33.9375 56 38.28125 53.609375 
Q 42.625 51.21875 45.40625 46.390625 
L 45.40625 54.6875 
L 54.390625 54.6875 
z
" id="DejaVuSans-103"/>
      <path d="M 9.421875 54.6875 
L 18.40625 54.6875 
L 18.40625 0 
L 9.421875 0 
z
M 9.421875 75.984375 
L 18.40625 75.984375 
L 18.40625 64.59375 
L 9.421875 64.59375 
z
" id="DejaVuSans-105"/>
      <path d="M 44.28125 53.078125 
L 44.28125 44.578125 
Q 40.484375 46.53125 36.375 47.5 
Q 32.28125 48.484375 27.875 48.484375 
Q 21.1875 48.484375 17.84375 46.4375 
Q 14.5 44.390625 14.5 40.28125 
Q 14.5 37.15625 16.890625 35.375 
Q 19.28125 33.59375 26.515625 31.984375 
L 29.59375 31.296875 
Q 39.15625 29.25 43.1875 25.515625 
Q 47.21875 21.78125 47.21875 15.09375 
Q 47.21875 7.46875 41.1875 3.015625 
Q 35.15625 -1.421875 24.609375 -1.421875 
Q 20.21875 -1.421875 15.453125 -0.5625 
Q 10.6875 0.296875 5.421875 2 
L 5.421875 11.28125 
Q 10.40625 8.6875 15.234375 7.390625 
Q 20.0625 6.109375 24.8125 6.109375 
Q 31.15625 6.109375 34.5625 8.28125 
Q 37.984375 10.453125 37.984375 14.40625 
Q 37.984375 18.0625 35.515625 20.015625 
Q 33.0625 21.96875 24.703125 23.78125 
L 21.578125 24.515625 
Q 13.234375 26.265625 9.515625 29.90625 
Q 5.8125 33.546875 5.8125 39.890625 
Q 5.8125 47.609375 11.28125 51.796875 
Q 16.75 56 26.8125 56 
Q 31.78125 56 36.171875 55.265625 
Q 40.578125 54.546875 44.28125 53.078125 
z
" id="DejaVuSans-115"/>
     </defs>
     <g style="fill:#262626;" transform="translate(150.831563 340.848062)scale(0.12 -0.12)">
      <use xlink:href="#DejaVuSans-110"/>
      <use x="63.378906" xlink:href="#DejaVuSans-117"/>
      <use x="126.757812" xlink:href="#DejaVuSans-109"/>
      <use x="224.169922" xlink:href="#DejaVuSans-98"/>
      <use x="287.646484" xlink:href="#DejaVuSans-101"/>
      <use x="349.169922" xlink:href="#DejaVuSans-114"/>
      <use x="390.283203" xlink:href="#DejaVuSans-32"/>
      <use x="422.070312" xlink:href="#DejaVuSans-111"/>
      <use x="483.251953" xlink:href="#DejaVuSans-102"/>
      <use x="518.457031" xlink:href="#DejaVuSans-32"/>
      <use x="550.244141" xlink:href="#DejaVuSans-100"/>
      <use x="613.720703" xlink:href="#DejaVuSans-101"/>
      <use x="675.244141" xlink:href="#DejaVuSans-102"/>
      <use x="710.449219" xlink:href="#DejaVuSans-101"/>
      <use x="771.972656" xlink:href="#DejaVuSans-99"/>
      <use x="826.953125" xlink:href="#DejaVuSans-116"/>
      <use x="866.162109" xlink:href="#DejaVuSans-32"/>
      <use x="897.949219" xlink:href="#DejaVuSans-99"/>
      <use x="952.929688" xlink:href="#DejaVuSans-97"/>
      <use x="1014.208984" xlink:href="#DejaVuSans-116"/>
      <use x="1053.417969" xlink:href="#DejaVuSans-101"/>
      <use x="1114.941406" xlink:href="#DejaVuSans-103"/>
      <use x="1178.417969" xlink:href="#DejaVuSans-111"/>
      <use x="1239.599609" xlink:href="#DejaVuSans-114"/>
      <use x="1280.712891" xlink:href="#DejaVuSans-105"/>
      <use x="1308.496094" xlink:href="#DejaVuSans-101"/>
      <use x="1370.019531" xlink:href="#DejaVuSans-115"/>
     </g>
    </g>
   </g>
   <g id="matplotlib.axis_2">
    <g id="ytick_1">
     <g id="line2d_10">
      <path clip-path="url(#pdb6e29a787)" d="M 57.6 303.670588 
L 414.72 303.670588 
" style="fill:none;stroke:#ffffff;stroke-linecap:round;"/>
     </g>
     <g id="text_11">
      <!-- uneven weaving -->
      <defs>
       <path d="M 2.984375 54.6875 
L 12.5 54.6875 
L 29.59375 8.796875 
L 46.6875 54.6875 
L 56.203125 54.6875 
L 35.6875 0 
L 23.484375 0 
z
" id="DejaVuSans-118"/>
       <path d="M 4.203125 54.6875 
L 13.1875 54.6875 
L 24.421875 12.015625 
L 35.59375 54.6875 
L 46.1875 54.6875 
L 57.421875 12.015625 
L 68.609375 54.6875 
L 77.59375 54.6875 
L 63.28125 0 
L 52.6875 0 
L 40.921875 44.828125 
L 29.109375 0 
L 18.5 0 
z
" id="DejaVuSans-119"/>
      </defs>
      <g style="fill:#262626;" transform="translate(-42.383594 307.849729)scale(0.11 -0.11)">
       <use xlink:href="#DejaVuSans-117"/>
       <use x="63.378906" xlink:href="#DejaVuSans-110"/>
       <use x="126.757812" xlink:href="#DejaVuSans-101"/>
       <use x="188.28125" xlink:href="#DejaVuSans-118"/>
       <use x="247.460938" xlink:href="#DejaVuSans-101"/>
       <use x="308.984375" xlink:href="#DejaVuSans-110"/>
       <use x="372.363281" xlink:href="#DejaVuSans-32"/>
       <use x="404.150391" xlink:href="#DejaVuSans-119"/>
       <use x="485.9375" xlink:href="#DejaVuSans-101"/>
       <use x="547.460938" xlink:href="#DejaVuSans-97"/>
       <use x="608.740234" xlink:href="#DejaVuSans-118"/>
       <use x="667.919922" xlink:href="#DejaVuSans-105"/>
       <use x="695.703125" xlink:href="#DejaVuSans-110"/>
       <use x="759.082031" xlink:href="#DejaVuSans-103"/>
      </g>
     </g>
    </g>
    <g id="ytick_2">
     <g id="line2d_11">
      <path clip-path="url(#pdb6e29a787)" d="M 57.6 295.843765 
L 414.72 295.843765 
" style="fill:none;stroke:#ffffff;stroke-linecap:round;"/>
     </g>
     <g id="text_12">
      <!-- double end -->
      <defs>
       <path d="M 9.421875 75.984375 
L 18.40625 75.984375 
L 18.40625 0 
L 9.421875 0 
z
" id="DejaVuSans-108"/>
      </defs>
      <g style="fill:#262626;" transform="translate(-13.611719 300.022905)scale(0.11 -0.11)">
       <use xlink:href="#DejaVuSans-100"/>
       <use x="63.476562" xlink:href="#DejaVuSans-111"/>
       <use x="124.658203" xlink:href="#DejaVuSans-117"/>
       <use x="188.037109" xlink:href="#DejaVuSans-98"/>
       <use x="251.513672" xlink:href="#DejaVuSans-108"/>
       <use x="279.296875" xlink:href="#DejaVuSans-101"/>
       <use x="340.820312" xlink:href="#DejaVuSans-32"/>
       <use x="372.607422" xlink:href="#DejaVuSans-101"/>
       <use x="434.130859" xlink:href="#DejaVuSans-110"/>
       <use x="497.509766" xlink:href="#DejaVuSans-100"/>
      </g>
     </g>
    </g>
    <g id="ytick_3">
     <g id="line2d_12">
      <path clip-path="url(#pdb6e29a787)" d="M 57.6 288.016941 
L 414.72 288.016941 
" style="fill:none;stroke:#ffffff;stroke-linecap:round;"/>
     </g>
     <g id="text_13">
      <!-- double pick -->
      <defs>
       <path d="M 18.109375 8.203125 
L 18.109375 -20.796875 
L 9.078125 -20.796875 
L 9.078125 54.6875 
L 18.109375 54.6875 
L 18.109375 46.390625 
Q 20.953125 51.265625 25.265625 53.625 
Q 29.59375 56 35.59375 56 
Q 45.5625 56 51.78125 48.09375 
Q 58.015625 40.1875 58.015625 27.296875 
Q 58.015625 14.40625 51.78125 6.484375 
Q 45.5625 -1.421875 35.59375 -1.421875 
Q 29.59375 -1.421875 25.265625 0.953125 
Q 20.953125 3.328125 18.109375 8.203125 
z
M 48.6875 27.296875 
Q 48.6875 37.203125 44.609375 42.84375 
Q 40.53125 48.484375 33.40625 48.484375 
Q 26.265625 48.484375 22.1875 42.84375 
Q 18.109375 37.203125 18.109375 27.296875 
Q 18.109375 17.390625 22.1875 11.75 
Q 26.265625 6.109375 33.40625 6.109375 
Q 40.53125 6.109375 44.609375 11.75 
Q 48.6875 17.390625 48.6875 27.296875 
z
" id="DejaVuSans-112"/>
       <path d="M 9.078125 75.984375 
L 18.109375 75.984375 
L 18.109375 31.109375 
L 44.921875 54.6875 
L 56.390625 54.6875 
L 27.390625 29.109375 
L 57.625 0 
L 45.90625 0 
L 18.109375 26.703125 
L 18.109375 0 
L 9.078125 0 
z
" id="DejaVuSans-107"/>
      </defs>
      <g style="fill:#262626;" transform="translate(-15.345937 292.196082)scale(0.11 -0.11)">
       <use xlink:href="#DejaVuSans-100"/>
       <use x="63.476562" xlink:href="#DejaVuSans-111"/>
       <use x="124.658203" xlink:href="#DejaVuSans-117"/>
       <use x="188.037109" xlink:href="#DejaVuSans-98"/>
       <use x="251.513672" xlink:href="#DejaVuSans-108"/>
       <use x="279.296875" xlink:href="#DejaVuSans-101"/>
       <use x="340.820312" xlink:href="#DejaVuSans-32"/>
       <use x="372.607422" xlink:href="#DejaVuSans-112"/>
       <use x="436.083984" xlink:href="#DejaVuSans-105"/>
       <use x="463.867188" xlink:href="#DejaVuSans-99"/>
       <use x="518.847656" xlink:href="#DejaVuSans-107"/>
      </g>
     </g>
    </g>
    <g id="ytick_4">
     <g id="line2d_13">
      <path clip-path="url(#pdb6e29a787)" d="M 57.6 280.190118 
L 414.72 280.190118 
" style="fill:none;stroke:#ffffff;stroke-linecap:round;"/>
     </g>
     <g id="text_14">
      <!-- buckling place -->
      <g style="fill:#262626;" transform="translate(-31.431719 284.369258)scale(0.11 -0.11)">
       <use xlink:href="#DejaVuSans-98"/>
       <use x="63.476562" xlink:href="#DejaVuSans-117"/>
       <use x="126.855469" xlink:href="#DejaVuSans-99"/>
       <use x="181.835938" xlink:href="#DejaVuSans-107"/>
       <use x="239.746094" xlink:href="#DejaVuSans-108"/>
       <use x="267.529297" xlink:href="#DejaVuSans-105"/>
       <use x="295.3125" xlink:href="#DejaVuSans-110"/>
       <use x="358.691406" xlink:href="#DejaVuSans-103"/>
       <use x="422.167969" xlink:href="#DejaVuSans-32"/>
       <use x="453.955078" xlink:href="#DejaVuSans-112"/>
       <use x="517.431641" xlink:href="#DejaVuSans-108"/>
       <use x="545.214844" xlink:href="#DejaVuSans-97"/>
       <use x="606.494141" xlink:href="#DejaVuSans-99"/>
       <use x="661.474609" xlink:href="#DejaVuSans-101"/>
      </g>
     </g>
    </g>
    <g id="ytick_5">
     <g id="line2d_14">
      <path clip-path="url(#pdb6e29a787)" d="M 57.6 272.363294 
L 414.72 272.363294 
" style="fill:none;stroke:#ffffff;stroke-linecap:round;"/>
     </g>
     <g id="text_15">
      <!-- color shading -->
      <defs>
       <path d="M 54.890625 33.015625 
L 54.890625 0 
L 45.90625 0 
L 45.90625 32.71875 
Q 45.90625 40.484375 42.875 44.328125 
Q 39.84375 48.1875 33.796875 48.1875 
Q 26.515625 48.1875 22.3125 43.546875 
Q 18.109375 38.921875 18.109375 30.90625 
L 18.109375 0 
L 9.078125 0 
L 9.078125 75.984375 
L 18.109375 75.984375 
L 18.109375 46.1875 
Q 21.34375 51.125 25.703125 53.5625 
Q 30.078125 56 35.796875 56 
Q 45.21875 56 50.046875 50.171875 
Q 54.890625 44.34375 54.890625 33.015625 
z
" id="DejaVuSans-104"/>
      </defs>
      <g style="fill:#262626;" transform="translate(-25.919688 276.542435)scale(0.11 -0.11)">
       <use xlink:href="#DejaVuSans-99"/>
       <use x="54.980469" xlink:href="#DejaVuSans-111"/>
       <use x="116.162109" xlink:href="#DejaVuSans-108"/>
       <use x="143.945312" xlink:href="#DejaVuSans-111"/>
       <use x="205.126953" xlink:href="#DejaVuSans-114"/>
       <use x="246.240234" xlink:href="#DejaVuSans-32"/>
       <use x="278.027344" xlink:href="#DejaVuSans-115"/>
       <use x="330.126953" xlink:href="#DejaVuSans-104"/>
       <use x="393.505859" xlink:href="#DejaVuSans-97"/>
       <use x="454.785156" xlink:href="#DejaVuSans-100"/>
       <use x="518.261719" xlink:href="#DejaVuSans-105"/>
       <use x="546.044922" xlink:href="#DejaVuSans-110"/>
       <use x="609.423828" xlink:href="#DejaVuSans-103"/>
      </g>
     </g>
    </g>
    <g id="ytick_6">
     <g id="line2d_15">
      <path clip-path="url(#pdb6e29a787)" d="M 57.6 264.536471 
L 414.72 264.536471 
" style="fill:none;stroke:#ffffff;stroke-linecap:round;"/>
     </g>
     <g id="text_16">
      <!-- singeing -->
      <g style="fill:#262626;" transform="translate(1.580312 268.715611)scale(0.11 -0.11)">
       <use xlink:href="#DejaVuSans-115"/>
       <use x="52.099609" xlink:href="#DejaVuSans-105"/>
       <use x="79.882812" xlink:href="#DejaVuSans-110"/>
       <use x="143.261719" xlink:href="#DejaVuSans-103"/>
       <use x="206.738281" xlink:href="#DejaVuSans-101"/>
       <use x="268.261719" xlink:href="#DejaVuSans-105"/>
       <use x="296.044922" xlink:href="#DejaVuSans-110"/>
       <use x="359.423828" xlink:href="#DejaVuSans-103"/>
      </g>
     </g>
    </g>
    <g id="ytick_7">
     <g id="line2d_16">
      <path clip-path="url(#pdb6e29a787)" d="M 57.6 256.709647 
L 414.72 256.709647 
" style="fill:none;stroke:#ffffff;stroke-linecap:round;"/>
     </g>
     <g id="text_17">
      <!-- bad weft yarn -->
      <defs>
       <path d="M 32.171875 -5.078125 
Q 28.375 -14.84375 24.75 -17.8125 
Q 21.140625 -20.796875 15.09375 -20.796875 
L 7.90625 -20.796875 
L 7.90625 -13.28125 
L 13.1875 -13.28125 
Q 16.890625 -13.28125 18.9375 -11.515625 
Q 21 -9.765625 23.484375 -3.21875 
L 25.09375 0.875 
L 2.984375 54.6875 
L 12.5 54.6875 
L 29.59375 11.921875 
L 46.6875 54.6875 
L 56.203125 54.6875 
z
" id="DejaVuSans-121"/>
      </defs>
      <g style="fill:#262626;" transform="translate(-27.908281 260.888788)scale(0.11 -0.11)">
       <use xlink:href="#DejaVuSans-98"/>
       <use x="63.476562" xlink:href="#DejaVuSans-97"/>
       <use x="124.755859" xlink:href="#DejaVuSans-100"/>
       <use x="188.232422" xlink:href="#DejaVuSans-32"/>
       <use x="220.019531" xlink:href="#DejaVuSans-119"/>
       <use x="301.806641" xlink:href="#DejaVuSans-101"/>
       <use x="363.330078" xlink:href="#DejaVuSans-102"/>
       <use x="396.785156" xlink:href="#DejaVuSans-116"/>
       <use x="435.994141" xlink:href="#DejaVuSans-32"/>
       <use x="467.78125" xlink:href="#DejaVuSans-121"/>
       <use x="526.960938" xlink:href="#DejaVuSans-97"/>
       <use x="588.240234" xlink:href="#DejaVuSans-114"/>
       <use x="627.603516" xlink:href="#DejaVuSans-110"/>
      </g>
     </g>
    </g>
    <g id="ytick_8">
     <g id="line2d_17">
      <path clip-path="url(#pdb6e29a787)" d="M 57.6 248.882824 
L 414.72 248.882824 
" style="fill:none;stroke:#ffffff;stroke-linecap:round;"/>
     </g>
     <g id="text_18">
      <!-- reediness -->
      <g style="fill:#262626;" transform="translate(-4.950938 253.061964)scale(0.11 -0.11)">
       <use xlink:href="#DejaVuSans-114"/>
       <use x="38.863281" xlink:href="#DejaVuSans-101"/>
       <use x="100.386719" xlink:href="#DejaVuSans-101"/>
       <use x="161.910156" xlink:href="#DejaVuSans-100"/>
       <use x="225.386719" xlink:href="#DejaVuSans-105"/>
       <use x="253.169922" xlink:href="#DejaVuSans-110"/>
       <use x="316.548828" xlink:href="#DejaVuSans-101"/>
       <use x="378.072266" xlink:href="#DejaVuSans-115"/>
       <use x="430.171875" xlink:href="#DejaVuSans-115"/>
      </g>
     </g>
    </g>
    <g id="ytick_9">
     <g id="line2d_18">
      <path clip-path="url(#pdb6e29a787)" d="M 57.6 241.056 
L 414.72 241.056 
" style="fill:none;stroke:#ffffff;stroke-linecap:round;"/>
     </g>
     <g id="text_19">
      <!-- water stain -->
      <g style="fill:#262626;" transform="translate(-13.546406 245.235141)scale(0.11 -0.11)">
       <use xlink:href="#DejaVuSans-119"/>
       <use x="81.787109" xlink:href="#DejaVuSans-97"/>
       <use x="143.066406" xlink:href="#DejaVuSans-116"/>
       <use x="182.275391" xlink:href="#DejaVuSans-101"/>
       <use x="243.798828" xlink:href="#DejaVuSans-114"/>
       <use x="284.912109" xlink:href="#DejaVuSans-32"/>
       <use x="316.699219" xlink:href="#DejaVuSans-115"/>
       <use x="368.798828" xlink:href="#DejaVuSans-116"/>
       <use x="408.007812" xlink:href="#DejaVuSans-97"/>
       <use x="469.287109" xlink:href="#DejaVuSans-105"/>
       <use x="497.070312" xlink:href="#DejaVuSans-110"/>
      </g>
     </g>
    </g>
    <g id="ytick_10">
     <g id="line2d_19">
      <path clip-path="url(#pdb6e29a787)" d="M 57.6 233.229176 
L 414.72 233.229176 
" style="fill:none;stroke:#ffffff;stroke-linecap:round;"/>
     </g>
     <g id="text_20">
      <!-- smash -->
      <g style="fill:#262626;" transform="translate(12.2125 237.408317)scale(0.11 -0.11)">
       <use xlink:href="#DejaVuSans-115"/>
       <use x="52.099609" xlink:href="#DejaVuSans-109"/>
       <use x="149.511719" xlink:href="#DejaVuSans-97"/>
       <use x="210.791016" xlink:href="#DejaVuSans-115"/>
       <use x="262.890625" xlink:href="#DejaVuSans-104"/>
      </g>
     </g>
    </g>
    <g id="ytick_11">
     <g id="line2d_20">
      <path clip-path="url(#pdb6e29a787)" d="M 57.6 225.402353 
L 414.72 225.402353 
" style="fill:none;stroke:#ffffff;stroke-linecap:round;"/>
     </g>
     <g id="text_21">
      <!-- skips -->
      <g style="fill:#262626;" transform="translate(20.230469 229.581494)scale(0.11 -0.11)">
       <use xlink:href="#DejaVuSans-115"/>
       <use x="52.099609" xlink:href="#DejaVuSans-107"/>
       <use x="110.009766" xlink:href="#DejaVuSans-105"/>
       <use x="137.792969" xlink:href="#DejaVuSans-112"/>
       <use x="201.269531" xlink:href="#DejaVuSans-115"/>
      </g>
     </g>
    </g>
    <g id="ytick_12">
     <g id="line2d_21">
      <path clip-path="url(#pdb6e29a787)" d="M 57.6 217.575529 
L 414.72 217.575529 
" style="fill:none;stroke:#ffffff;stroke-linecap:round;"/>
     </g>
     <g id="text_22">
      <!-- felter -->
      <g style="fill:#262626;" transform="translate(18.800469 221.75467)scale(0.11 -0.11)">
       <use xlink:href="#DejaVuSans-102"/>
       <use x="35.205078" xlink:href="#DejaVuSans-101"/>
       <use x="96.728516" xlink:href="#DejaVuSans-108"/>
       <use x="124.511719" xlink:href="#DejaVuSans-116"/>
       <use x="163.720703" xlink:href="#DejaVuSans-101"/>
       <use x="225.244141" xlink:href="#DejaVuSans-114"/>
      </g>
     </g>
    </g>
    <g id="ytick_13">
     <g id="line2d_22">
      <path clip-path="url(#pdb6e29a787)" d="M 57.6 209.748706 
L 414.72 209.748706 
" style="fill:none;stroke:#ffffff;stroke-linecap:round;"/>
     </g>
     <g id="text_23">
      <!-- oil stain -->
      <g style="fill:#262626;" transform="translate(4.950781 213.927847)scale(0.11 -0.11)">
       <use xlink:href="#DejaVuSans-111"/>
       <use x="61.181641" xlink:href="#DejaVuSans-105"/>
       <use x="88.964844" xlink:href="#DejaVuSans-108"/>
       <use x="116.748047" xlink:href="#DejaVuSans-32"/>
       <use x="148.535156" xlink:href="#DejaVuSans-115"/>
       <use x="200.634766" xlink:href="#DejaVuSans-116"/>
       <use x="239.84375" xlink:href="#DejaVuSans-97"/>
       <use x="301.123047" xlink:href="#DejaVuSans-105"/>
       <use x="328.90625" xlink:href="#DejaVuSans-110"/>
      </g>
     </g>
    </g>
    <g id="ytick_14">
     <g id="line2d_23">
      <path clip-path="url(#pdb6e29a787)" d="M 57.6 201.921882 
L 414.72 201.921882 
" style="fill:none;stroke:#ffffff;stroke-linecap:round;"/>
     </g>
     <g id="text_24">
      <!-- crinked -->
      <g style="fill:#262626;" transform="translate(7.779844 206.101023)scale(0.11 -0.11)">
       <use xlink:href="#DejaVuSans-99"/>
       <use x="54.980469" xlink:href="#DejaVuSans-114"/>
       <use x="96.09375" xlink:href="#DejaVuSans-105"/>
       <use x="123.876953" xlink:href="#DejaVuSans-110"/>
       <use x="187.255859" xlink:href="#DejaVuSans-107"/>
       <use x="241.541016" xlink:href="#DejaVuSans-101"/>
       <use x="303.064453" xlink:href="#DejaVuSans-100"/>
      </g>
     </g>
    </g>
    <g id="ytick_15">
     <g id="line2d_24">
      <path clip-path="url(#pdb6e29a787)" d="M 57.6 194.095059 
L 414.72 194.095059 
" style="fill:none;stroke:#ffffff;stroke-linecap:round;"/>
     </g>
     <g id="text_25">
      <!-- card skip -->
      <g style="fill:#262626;" transform="translate(-1.637187 198.274199)scale(0.11 -0.11)">
       <use xlink:href="#DejaVuSans-99"/>
       <use x="54.980469" xlink:href="#DejaVuSans-97"/>
       <use x="116.259766" xlink:href="#DejaVuSans-114"/>
       <use x="155.623047" xlink:href="#DejaVuSans-100"/>
       <use x="219.099609" xlink:href="#DejaVuSans-32"/>
       <use x="250.886719" xlink:href="#DejaVuSans-115"/>
       <use x="302.986328" xlink:href="#DejaVuSans-107"/>
       <use x="360.896484" xlink:href="#DejaVuSans-105"/>
       <use x="388.679688" xlink:href="#DejaVuSans-112"/>
      </g>
     </g>
    </g>
    <g id="ytick_16">
     <g id="line2d_25">
      <path clip-path="url(#pdb6e29a787)" d="M 57.6 186.268235 
L 414.72 186.268235 
" style="fill:none;stroke:#ffffff;stroke-linecap:round;"/>
     </g>
     <g id="text_26">
      <!-- take marks -->
      <g style="fill:#262626;" transform="translate(-13.26625 190.447376)scale(0.11 -0.11)">
       <use xlink:href="#DejaVuSans-116"/>
       <use x="39.208984" xlink:href="#DejaVuSans-97"/>
       <use x="100.488281" xlink:href="#DejaVuSans-107"/>
       <use x="154.773438" xlink:href="#DejaVuSans-101"/>
       <use x="216.296875" xlink:href="#DejaVuSans-32"/>
       <use x="248.083984" xlink:href="#DejaVuSans-109"/>
       <use x="345.496094" xlink:href="#DejaVuSans-97"/>
       <use x="406.775391" xlink:href="#DejaVuSans-114"/>
       <use x="447.888672" xlink:href="#DejaVuSans-107"/>
       <use x="505.798828" xlink:href="#DejaVuSans-115"/>
      </g>
     </g>
    </g>
    <g id="ytick_17">
     <g id="line2d_26">
      <path clip-path="url(#pdb6e29a787)" d="M 57.6 178.441412 
L 414.72 178.441412 
" style="fill:none;stroke:#ffffff;stroke-linecap:round;"/>
     </g>
     <g id="text_27">
      <!-- buttonhold selvage -->
      <g style="fill:#262626;" transform="translate(-57.976094 182.620552)scale(0.11 -0.11)">
       <use xlink:href="#DejaVuSans-98"/>
       <use x="63.476562" xlink:href="#DejaVuSans-117"/>
       <use x="126.855469" xlink:href="#DejaVuSans-116"/>
       <use x="166.064453" xlink:href="#DejaVuSans-116"/>
       <use x="205.273438" xlink:href="#DejaVuSans-111"/>
       <use x="266.455078" xlink:href="#DejaVuSans-110"/>
       <use x="329.833984" xlink:href="#DejaVuSans-104"/>
       <use x="393.212891" xlink:href="#DejaVuSans-111"/>
       <use x="454.394531" xlink:href="#DejaVuSans-108"/>
       <use x="482.177734" xlink:href="#DejaVuSans-100"/>
       <use x="545.654297" xlink:href="#DejaVuSans-32"/>
       <use x="577.441406" xlink:href="#DejaVuSans-115"/>
       <use x="629.541016" xlink:href="#DejaVuSans-101"/>
       <use x="691.064453" xlink:href="#DejaVuSans-108"/>
       <use x="718.847656" xlink:href="#DejaVuSans-118"/>
       <use x="778.027344" xlink:href="#DejaVuSans-97"/>
       <use x="839.306641" xlink:href="#DejaVuSans-103"/>
       <use x="902.783203" xlink:href="#DejaVuSans-101"/>
      </g>
     </g>
    </g>
    <g id="ytick_18">
     <g id="line2d_27">
      <path clip-path="url(#pdb6e29a787)" d="M 57.6 170.614588 
L 414.72 170.614588 
" style="fill:none;stroke:#ffffff;stroke-linecap:round;"/>
     </g>
     <g id="text_28">
      <!-- mispick -->
      <g style="fill:#262626;" transform="translate(6.141875 174.793729)scale(0.11 -0.11)">
       <use xlink:href="#DejaVuSans-109"/>
       <use x="97.412109" xlink:href="#DejaVuSans-105"/>
       <use x="125.195312" xlink:href="#DejaVuSans-115"/>
       <use x="177.294922" xlink:href="#DejaVuSans-112"/>
       <use x="240.771484" xlink:href="#DejaVuSans-105"/>
       <use x="268.554688" xlink:href="#DejaVuSans-99"/>
       <use x="323.535156" xlink:href="#DejaVuSans-107"/>
      </g>
     </g>
    </g>
    <g id="ytick_19">
     <g id="line2d_28">
      <path clip-path="url(#pdb6e29a787)" d="M 57.6 162.787765 
L 414.72 162.787765 
" style="fill:none;stroke:#ffffff;stroke-linecap:round;"/>
     </g>
     <g id="text_29">
      <!-- card neps -->
      <g style="fill:#262626;" transform="translate(-5.95125 166.966905)scale(0.11 -0.11)">
       <use xlink:href="#DejaVuSans-99"/>
       <use x="54.980469" xlink:href="#DejaVuSans-97"/>
       <use x="116.259766" xlink:href="#DejaVuSans-114"/>
       <use x="155.623047" xlink:href="#DejaVuSans-100"/>
       <use x="219.099609" xlink:href="#DejaVuSans-32"/>
       <use x="250.886719" xlink:href="#DejaVuSans-110"/>
       <use x="314.265625" xlink:href="#DejaVuSans-101"/>
       <use x="375.789062" xlink:href="#DejaVuSans-112"/>
       <use x="439.265625" xlink:href="#DejaVuSans-115"/>
      </g>
     </g>
    </g>
    <g id="ytick_20">
     <g id="line2d_29">
      <path clip-path="url(#pdb6e29a787)" d="M 57.6 154.960941 
L 414.72 154.960941 
" style="fill:none;stroke:#ffffff;stroke-linecap:round;"/>
     </g>
     <g id="text_30">
      <!-- roll marks -->
      <g style="fill:#262626;" transform="translate(-6.590625 159.140082)scale(0.11 -0.11)">
       <use xlink:href="#DejaVuSans-114"/>
       <use x="38.863281" xlink:href="#DejaVuSans-111"/>
       <use x="100.044922" xlink:href="#DejaVuSans-108"/>
       <use x="127.828125" xlink:href="#DejaVuSans-108"/>
       <use x="155.611328" xlink:href="#DejaVuSans-32"/>
       <use x="187.398438" xlink:href="#DejaVuSans-109"/>
       <use x="284.810547" xlink:href="#DejaVuSans-97"/>
       <use x="346.089844" xlink:href="#DejaVuSans-114"/>
       <use x="387.203125" xlink:href="#DejaVuSans-107"/>
       <use x="445.113281" xlink:href="#DejaVuSans-115"/>
      </g>
     </g>
    </g>
    <g id="ytick_21">
     <g id="line2d_30">
      <path clip-path="url(#pdb6e29a787)" d="M 57.6 147.134118 
L 414.72 147.134118 
" style="fill:none;stroke:#ffffff;stroke-linecap:round;"/>
     </g>
     <g id="text_31">
      <!-- coarse end -->
      <g style="fill:#262626;" transform="translate(-12.659531 151.313258)scale(0.11 -0.11)">
       <use xlink:href="#DejaVuSans-99"/>
       <use x="54.980469" xlink:href="#DejaVuSans-111"/>
       <use x="116.162109" xlink:href="#DejaVuSans-97"/>
       <use x="177.441406" xlink:href="#DejaVuSans-114"/>
       <use x="218.554688" xlink:href="#DejaVuSans-115"/>
       <use x="270.654297" xlink:href="#DejaVuSans-101"/>
       <use x="332.177734" xlink:href="#DejaVuSans-32"/>
       <use x="363.964844" xlink:href="#DejaVuSans-101"/>
       <use x="425.488281" xlink:href="#DejaVuSans-110"/>
       <use x="488.867188" xlink:href="#DejaVuSans-100"/>
      </g>
     </g>
    </g>
    <g id="ytick_22">
     <g id="line2d_31">
      <path clip-path="url(#pdb6e29a787)" d="M 57.6 139.307294 
L 414.72 139.307294 
" style="fill:none;stroke:#ffffff;stroke-linecap:round;"/>
     </g>
     <g id="text_32">
      <!-- stitch -->
      <g style="fill:#262626;" transform="translate(17.669531 143.486435)scale(0.11 -0.11)">
       <use xlink:href="#DejaVuSans-115"/>
       <use x="52.099609" xlink:href="#DejaVuSans-116"/>
       <use x="91.308594" xlink:href="#DejaVuSans-105"/>
       <use x="119.091797" xlink:href="#DejaVuSans-116"/>
       <use x="158.300781" xlink:href="#DejaVuSans-99"/>
       <use x="213.28125" xlink:href="#DejaVuSans-104"/>
      </g>
     </g>
    </g>
    <g id="ytick_23">
     <g id="line2d_32">
      <path clip-path="url(#pdb6e29a787)" d="M 57.6 131.480471 
L 414.72 131.480471 
" style="fill:none;stroke:#ffffff;stroke-linecap:round;"/>
     </g>
     <g id="text_33">
      <!-- soiled -->
      <g style="fill:#262626;" transform="translate(15.775469 135.659611)scale(0.11 -0.11)">
       <use xlink:href="#DejaVuSans-115"/>
       <use x="52.099609" xlink:href="#DejaVuSans-111"/>
       <use x="113.28125" xlink:href="#DejaVuSans-105"/>
       <use x="141.064453" xlink:href="#DejaVuSans-108"/>
       <use x="168.847656" xlink:href="#DejaVuSans-101"/>
       <use x="230.371094" xlink:href="#DejaVuSans-100"/>
      </g>
     </g>
    </g>
    <g id="ytick_24">
     <g id="line2d_33">
      <path clip-path="url(#pdb6e29a787)" d="M 57.6 123.653647 
L 414.72 123.653647 
" style="fill:none;stroke:#ffffff;stroke-linecap:round;"/>
     </g>
     <g id="text_34">
      <!-- thin thick place -->
      <g style="fill:#262626;" transform="translate(-36.557031 127.832788)scale(0.11 -0.11)">
       <use xlink:href="#DejaVuSans-116"/>
       <use x="39.208984" xlink:href="#DejaVuSans-104"/>
       <use x="102.587891" xlink:href="#DejaVuSans-105"/>
       <use x="130.371094" xlink:href="#DejaVuSans-110"/>
       <use x="193.75" xlink:href="#DejaVuSans-32"/>
       <use x="225.537109" xlink:href="#DejaVuSans-116"/>
       <use x="264.746094" xlink:href="#DejaVuSans-104"/>
       <use x="328.125" xlink:href="#DejaVuSans-105"/>
       <use x="355.908203" xlink:href="#DejaVuSans-99"/>
       <use x="410.888672" xlink:href="#DejaVuSans-107"/>
       <use x="468.798828" xlink:href="#DejaVuSans-32"/>
       <use x="500.585938" xlink:href="#DejaVuSans-112"/>
       <use x="564.0625" xlink:href="#DejaVuSans-108"/>
       <use x="591.845703" xlink:href="#DejaVuSans-97"/>
       <use x="653.125" xlink:href="#DejaVuSans-99"/>
       <use x="708.105469" xlink:href="#DejaVuSans-101"/>
      </g>
     </g>
    </g>
    <g id="ytick_25">
     <g id="line2d_34">
      <path clip-path="url(#pdb6e29a787)" d="M 57.6 115.826824 
L 414.72 115.826824 
" style="fill:none;stroke:#ffffff;stroke-linecap:round;"/>
     </g>
     <g id="text_35">
      <!-- cracked ends -->
      <g style="fill:#262626;" transform="translate(-24.931406 120.005964)scale(0.11 -0.11)">
       <use xlink:href="#DejaVuSans-99"/>
       <use x="54.980469" xlink:href="#DejaVuSans-114"/>
       <use x="96.09375" xlink:href="#DejaVuSans-97"/>
       <use x="157.373047" xlink:href="#DejaVuSans-99"/>
       <use x="212.353516" xlink:href="#DejaVuSans-107"/>
       <use x="266.638672" xlink:href="#DejaVuSans-101"/>
       <use x="328.162109" xlink:href="#DejaVuSans-100"/>
       <use x="391.638672" xlink:href="#DejaVuSans-32"/>
       <use x="423.425781" xlink:href="#DejaVuSans-101"/>
       <use x="484.949219" xlink:href="#DejaVuSans-110"/>
       <use x="548.328125" xlink:href="#DejaVuSans-100"/>
       <use x="611.804688" xlink:href="#DejaVuSans-115"/>
      </g>
     </g>
    </g>
    <g id="ytick_26">
     <g id="line2d_35">
      <path clip-path="url(#pdb6e29a787)" d="M 57.6 108 
L 414.72 108 
" style="fill:none;stroke:#ffffff;stroke-linecap:round;"/>
     </g>
     <g id="text_36">
      <!-- hole -->
      <g style="fill:#262626;" transform="translate(24.57375 112.179141)scale(0.11 -0.11)">
       <use xlink:href="#DejaVuSans-104"/>
       <use x="63.378906" xlink:href="#DejaVuSans-111"/>
       <use x="124.560547" xlink:href="#DejaVuSans-108"/>
       <use x="152.34375" xlink:href="#DejaVuSans-101"/>
      </g>
     </g>
    </g>
    <g id="ytick_27">
     <g id="line2d_36">
      <path clip-path="url(#pdb6e29a787)" d="M 57.6 100.173176 
L 414.72 100.173176 
" style="fill:none;stroke:#ffffff;stroke-linecap:round;"/>
     </g>
     <g id="text_37">
      <!-- hard size -->
      <defs>
       <path d="M 5.515625 54.6875 
L 48.1875 54.6875 
L 48.1875 46.484375 
L 14.40625 7.171875 
L 48.1875 7.171875 
L 48.1875 0 
L 4.296875 0 
L 4.296875 8.203125 
L 38.09375 47.515625 
L 5.515625 47.515625 
z
" id="DejaVuSans-122"/>
      </defs>
      <g style="fill:#262626;" transform="translate(-1.748906 104.352317)scale(0.11 -0.11)">
       <use xlink:href="#DejaVuSans-104"/>
       <use x="63.378906" xlink:href="#DejaVuSans-97"/>
       <use x="124.658203" xlink:href="#DejaVuSans-114"/>
       <use x="164.021484" xlink:href="#DejaVuSans-100"/>
       <use x="227.498047" xlink:href="#DejaVuSans-32"/>
       <use x="259.285156" xlink:href="#DejaVuSans-115"/>
       <use x="311.384766" xlink:href="#DejaVuSans-105"/>
       <use x="339.167969" xlink:href="#DejaVuSans-122"/>
       <use x="391.658203" xlink:href="#DejaVuSans-101"/>
      </g>
     </g>
    </g>
    <g id="ytick_28">
     <g id="line2d_37">
      <path clip-path="url(#pdb6e29a787)" d="M 57.6 92.346353 
L 414.72 92.346353 
" style="fill:none;stroke:#ffffff;stroke-linecap:round;"/>
     </g>
     <g id="text_38">
      <!-- loose warp -->
      <g style="fill:#262626;" transform="translate(-11.654063 96.525494)scale(0.11 -0.11)">
       <use xlink:href="#DejaVuSans-108"/>
       <use x="27.783203" xlink:href="#DejaVuSans-111"/>
       <use x="88.964844" xlink:href="#DejaVuSans-111"/>
       <use x="150.146484" xlink:href="#DejaVuSans-115"/>
       <use x="202.246094" xlink:href="#DejaVuSans-101"/>
       <use x="263.769531" xlink:href="#DejaVuSans-32"/>
       <use x="295.556641" xlink:href="#DejaVuSans-119"/>
       <use x="377.34375" xlink:href="#DejaVuSans-97"/>
       <use x="438.623047" xlink:href="#DejaVuSans-114"/>
       <use x="479.736328" xlink:href="#DejaVuSans-112"/>
      </g>
     </g>
    </g>
    <g id="ytick_29">
     <g id="line2d_38">
      <path clip-path="url(#pdb6e29a787)" d="M 57.6 84.519529 
L 414.72 84.519529 
" style="fill:none;stroke:#ffffff;stroke-linecap:round;"/>
     </g>
     <g id="text_39">
      <!-- looped weft -->
      <g style="fill:#262626;" transform="translate(-16.404688 88.69867)scale(0.11 -0.11)">
       <use xlink:href="#DejaVuSans-108"/>
       <use x="27.783203" xlink:href="#DejaVuSans-111"/>
       <use x="88.964844" xlink:href="#DejaVuSans-111"/>
       <use x="150.146484" xlink:href="#DejaVuSans-112"/>
       <use x="213.623047" xlink:href="#DejaVuSans-101"/>
       <use x="275.146484" xlink:href="#DejaVuSans-100"/>
       <use x="338.623047" xlink:href="#DejaVuSans-32"/>
       <use x="370.410156" xlink:href="#DejaVuSans-119"/>
       <use x="452.197266" xlink:href="#DejaVuSans-101"/>
       <use x="513.720703" xlink:href="#DejaVuSans-102"/>
       <use x="547.175781" xlink:href="#DejaVuSans-116"/>
      </g>
     </g>
    </g>
    <g id="ytick_30">
     <g id="line2d_39">
      <path clip-path="url(#pdb6e29a787)" d="M 57.6 76.692706 
L 414.72 76.692706 
" style="fill:none;stroke:#ffffff;stroke-linecap:round;"/>
     </g>
     <g id="text_40">
      <!-- warping knot -->
      <g style="fill:#262626;" transform="translate(-24.0325 80.871847)scale(0.11 -0.11)">
       <use xlink:href="#DejaVuSans-119"/>
       <use x="81.787109" xlink:href="#DejaVuSans-97"/>
       <use x="143.066406" xlink:href="#DejaVuSans-114"/>
       <use x="184.179688" xlink:href="#DejaVuSans-112"/>
       <use x="247.65625" xlink:href="#DejaVuSans-105"/>
       <use x="275.439453" xlink:href="#DejaVuSans-110"/>
       <use x="338.818359" xlink:href="#DejaVuSans-103"/>
       <use x="402.294922" xlink:href="#DejaVuSans-32"/>
       <use x="434.082031" xlink:href="#DejaVuSans-107"/>
       <use x="491.992188" xlink:href="#DejaVuSans-110"/>
       <use x="555.371094" xlink:href="#DejaVuSans-111"/>
       <use x="616.552734" xlink:href="#DejaVuSans-116"/>
      </g>
     </g>
    </g>
    <g id="ytick_31">
     <g id="line2d_40">
      <path clip-path="url(#pdb6e29a787)" d="M 57.6 68.865882 
L 414.72 68.865882 
" style="fill:none;stroke:#ffffff;stroke-linecap:round;"/>
     </g>
     <g id="text_41">
      <!-- broken spandex -->
      <defs>
       <path d="M 54.890625 54.6875 
L 35.109375 28.078125 
L 55.90625 0 
L 45.3125 0 
L 29.390625 21.484375 
L 13.484375 0 
L 2.875 0 
L 24.125 28.609375 
L 4.6875 54.6875 
L 15.28125 54.6875 
L 29.78125 35.203125 
L 44.28125 54.6875 
z
" id="DejaVuSans-120"/>
      </defs>
      <g style="fill:#262626;" transform="translate(-39.590625 73.045023)scale(0.11 -0.11)">
       <use xlink:href="#DejaVuSans-98"/>
       <use x="63.476562" xlink:href="#DejaVuSans-114"/>
       <use x="102.339844" xlink:href="#DejaVuSans-111"/>
       <use x="163.521484" xlink:href="#DejaVuSans-107"/>
       <use x="217.806641" xlink:href="#DejaVuSans-101"/>
       <use x="279.330078" xlink:href="#DejaVuSans-110"/>
       <use x="342.708984" xlink:href="#DejaVuSans-32"/>
       <use x="374.496094" xlink:href="#DejaVuSans-115"/>
       <use x="426.595703" xlink:href="#DejaVuSans-112"/>
       <use x="490.072266" xlink:href="#DejaVuSans-97"/>
       <use x="551.351562" xlink:href="#DejaVuSans-110"/>
       <use x="614.730469" xlink:href="#DejaVuSans-100"/>
       <use x="678.207031" xlink:href="#DejaVuSans-101"/>
       <use x="737.980469" xlink:href="#DejaVuSans-120"/>
      </g>
     </g>
    </g>
    <g id="ytick_32">
     <g id="line2d_41">
      <path clip-path="url(#pdb6e29a787)" d="M 57.6 61.039059 
L 414.72 61.039059 
" style="fill:none;stroke:#ffffff;stroke-linecap:round;"/>
     </g>
     <g id="text_42">
      <!-- coarse picks -->
      <g style="fill:#262626;" transform="translate(-20.124063 65.218199)scale(0.11 -0.11)">
       <use xlink:href="#DejaVuSans-99"/>
       <use x="54.980469" xlink:href="#DejaVuSans-111"/>
       <use x="116.162109" xlink:href="#DejaVuSans-97"/>
       <use x="177.441406" xlink:href="#DejaVuSans-114"/>
       <use x="218.554688" xlink:href="#DejaVuSans-115"/>
       <use x="270.654297" xlink:href="#DejaVuSans-101"/>
       <use x="332.177734" xlink:href="#DejaVuSans-32"/>
       <use x="363.964844" xlink:href="#DejaVuSans-112"/>
       <use x="427.441406" xlink:href="#DejaVuSans-105"/>
       <use x="455.224609" xlink:href="#DejaVuSans-99"/>
       <use x="510.205078" xlink:href="#DejaVuSans-107"/>
       <use x="568.115234" xlink:href="#DejaVuSans-115"/>
      </g>
     </g>
    </g>
    <g id="ytick_33">
     <g id="line2d_42">
      <path clip-path="url(#pdb6e29a787)" d="M 57.6 53.212235 
L 414.72 53.212235 
" style="fill:none;stroke:#ffffff;stroke-linecap:round;"/>
     </g>
     <g id="text_43">
      <!-- three silk -->
      <g style="fill:#262626;" transform="translate(-2.702813 57.391376)scale(0.11 -0.11)">
       <use xlink:href="#DejaVuSans-116"/>
       <use x="39.208984" xlink:href="#DejaVuSans-104"/>
       <use x="102.587891" xlink:href="#DejaVuSans-114"/>
       <use x="141.451172" xlink:href="#DejaVuSans-101"/>
       <use x="202.974609" xlink:href="#DejaVuSans-101"/>
       <use x="264.498047" xlink:href="#DejaVuSans-32"/>
       <use x="296.285156" xlink:href="#DejaVuSans-115"/>
       <use x="348.384766" xlink:href="#DejaVuSans-105"/>
       <use x="376.167969" xlink:href="#DejaVuSans-108"/>
       <use x="403.951172" xlink:href="#DejaVuSans-107"/>
      </g>
     </g>
    </g>
    <g id="ytick_34">
     <g id="line2d_43">
      <path clip-path="url(#pdb6e29a787)" d="M 57.6 45.385412 
L 414.72 45.385412 
" style="fill:none;stroke:#ffffff;stroke-linecap:round;"/>
     </g>
     <g id="text_44">
      <!-- knots -->
      <g style="fill:#262626;" transform="translate(17.985781 49.564552)scale(0.11 -0.11)">
       <use xlink:href="#DejaVuSans-107"/>
       <use x="57.910156" xlink:href="#DejaVuSans-110"/>
       <use x="121.289062" xlink:href="#DejaVuSans-111"/>
       <use x="182.470703" xlink:href="#DejaVuSans-116"/>
       <use x="221.679688" xlink:href="#DejaVuSans-115"/>
      </g>
     </g>
    </g>
   </g>
   <g id="patch_3">
    <path clip-path="url(#pdb6e29a787)" d="M 57.6 305.627294 
L 58.537189 305.627294 
L 58.537189 301.713882 
L 57.6 301.713882 
z
" style="fill:#4c72b0;stroke:#ffffff;stroke-linejoin:miter;"/>
   </g>
   <g id="patch_4">
    <path clip-path="url(#pdb6e29a787)" d="M 57.6 297.800471 
L 58.622388 297.800471 
L 58.622388 293.887059 
L 57.6 293.887059 
z
" style="fill:#4c72b0;stroke:#ffffff;stroke-linejoin:miter;"/>
   </g>
   <g id="patch_5">
    <path clip-path="url(#pdb6e29a787)" d="M 57.6 289.973647 
L 59.21878 289.973647 
L 59.21878 286.060235 
L 57.6 286.060235 
z
" style="fill:#4c72b0;stroke:#ffffff;stroke-linejoin:miter;"/>
   </g>
   <g id="patch_6">
    <path clip-path="url(#pdb6e29a787)" d="M 57.6 282.146824 
L 60.667163 282.146824 
L 60.667163 278.233412 
L 57.6 278.233412 
z
" style="fill:#4c72b0;stroke:#ffffff;stroke-linejoin:miter;"/>
   </g>
   <g id="patch_7">
    <path clip-path="url(#pdb6e29a787)" d="M 57.6 274.32 
L 61.433954 274.32 
L 61.433954 270.406588 
L 57.6 270.406588 
z
" style="fill:#4c72b0;stroke:#ffffff;stroke-linejoin:miter;"/>
   </g>
   <g id="patch_8">
    <path clip-path="url(#pdb6e29a787)" d="M 57.6 266.493176 
L 61.859948 266.493176 
L 61.859948 262.579765 
L 57.6 262.579765 
z
" style="fill:#4c72b0;stroke:#ffffff;stroke-linejoin:miter;"/>
   </g>
   <g id="patch_9">
    <path clip-path="url(#pdb6e29a787)" d="M 57.6 258.666353 
L 62.371142 258.666353 
L 62.371142 254.752941 
L 57.6 254.752941 
z
" style="fill:#4c72b0;stroke:#ffffff;stroke-linejoin:miter;"/>
   </g>
   <g id="patch_10">
    <path clip-path="url(#pdb6e29a787)" d="M 57.6 250.839529 
L 63.052734 250.839529 
L 63.052734 246.926118 
L 57.6 246.926118 
z
" style="fill:#4c72b0;stroke:#ffffff;stroke-linejoin:miter;"/>
   </g>
   <g id="patch_11">
    <path clip-path="url(#pdb6e29a787)" d="M 57.6 243.012706 
L 63.478729 243.012706 
L 63.478729 239.099294 
L 57.6 239.099294 
z
" style="fill:#4c72b0;stroke:#ffffff;stroke-linejoin:miter;"/>
   </g>
   <g id="patch_12">
    <path clip-path="url(#pdb6e29a787)" d="M 57.6 235.185882 
L 63.904724 235.185882 
L 63.904724 231.272471 
L 57.6 231.272471 
z
" style="fill:#4c72b0;stroke:#ffffff;stroke-linejoin:miter;"/>
   </g>
   <g id="patch_13">
    <path clip-path="url(#pdb6e29a787)" d="M 57.6 227.359059 
L 64.24552 227.359059 
L 64.24552 223.445647 
L 57.6 223.445647 
z
" style="fill:#4c72b0;stroke:#ffffff;stroke-linejoin:miter;"/>
   </g>
   <g id="patch_14">
    <path clip-path="url(#pdb6e29a787)" d="M 57.6 219.532235 
L 66.034698 219.532235 
L 66.034698 215.618824 
L 57.6 215.618824 
z
" style="fill:#4c72b0;stroke:#ffffff;stroke-linejoin:miter;"/>
   </g>
   <g id="patch_15">
    <path clip-path="url(#pdb6e29a787)" d="M 57.6 211.705412 
L 66.034698 211.705412 
L 66.034698 207.792 
L 57.6 207.792 
z
" style="fill:#4c72b0;stroke:#ffffff;stroke-linejoin:miter;"/>
   </g>
   <g id="patch_16">
    <path clip-path="url(#pdb6e29a787)" d="M 57.6 203.878588 
L 66.119897 203.878588 
L 66.119897 199.965176 
L 57.6 199.965176 
z
" style="fill:#4c72b0;stroke:#ffffff;stroke-linejoin:miter;"/>
   </g>
   <g id="patch_17">
    <path clip-path="url(#pdb6e29a787)" d="M 57.6 196.051765 
L 69.016662 196.051765 
L 69.016662 192.138353 
L 57.6 192.138353 
z
" style="fill:#4c72b0;stroke:#ffffff;stroke-linejoin:miter;"/>
   </g>
   <g id="patch_18">
    <path clip-path="url(#pdb6e29a787)" d="M 57.6 188.224941 
L 70.209447 188.224941 
L 70.209447 184.311529 
L 57.6 184.311529 
z
" style="fill:#4c72b0;stroke:#ffffff;stroke-linejoin:miter;"/>
   </g>
   <g id="patch_19">
    <path clip-path="url(#pdb6e29a787)" d="M 57.6 180.398118 
L 71.231835 180.398118 
L 71.231835 176.484706 
L 57.6 176.484706 
z
" style="fill:#4c72b0;stroke:#ffffff;stroke-linejoin:miter;"/>
   </g>
   <g id="patch_20">
    <path clip-path="url(#pdb6e29a787)" d="M 57.6 172.571294 
L 71.317034 172.571294 
L 71.317034 168.657882 
L 57.6 168.657882 
z
" style="fill:#4c72b0;stroke:#ffffff;stroke-linejoin:miter;"/>
   </g>
   <g id="patch_21">
    <path clip-path="url(#pdb6e29a787)" d="M 57.6 164.744471 
L 74.213799 164.744471 
L 74.213799 160.831059 
L 57.6 160.831059 
z
" style="fill:#4c72b0;stroke:#ffffff;stroke-linejoin:miter;"/>
   </g>
   <g id="patch_22">
    <path clip-path="url(#pdb6e29a787)" d="M 57.6 156.917647 
L 74.469396 156.917647 
L 74.469396 153.004235 
L 57.6 153.004235 
z
" style="fill:#4c72b0;stroke:#ffffff;stroke-linejoin:miter;"/>
   </g>
   <g id="patch_23">
    <path clip-path="url(#pdb6e29a787)" d="M 57.6 149.090824 
L 75.74738 149.090824 
L 75.74738 145.177412 
L 57.6 145.177412 
z
" style="fill:#4c72b0;stroke:#ffffff;stroke-linejoin:miter;"/>
   </g>
   <g id="patch_24">
    <path clip-path="url(#pdb6e29a787)" d="M 57.6 141.264 
L 76.684569 141.264 
L 76.684569 137.350588 
L 57.6 137.350588 
z
" style="fill:#4c72b0;stroke:#ffffff;stroke-linejoin:miter;"/>
   </g>
   <g id="patch_25">
    <path clip-path="url(#pdb6e29a787)" d="M 57.6 133.437176 
L 77.45136 133.437176 
L 77.45136 129.523765 
L 57.6 129.523765 
z
" style="fill:#4c72b0;stroke:#ffffff;stroke-linejoin:miter;"/>
   </g>
   <g id="patch_26">
    <path clip-path="url(#pdb6e29a787)" d="M 57.6 125.610353 
L 81.455711 125.610353 
L 81.455711 121.696941 
L 57.6 121.696941 
z
" style="fill:#4c72b0;stroke:#ffffff;stroke-linejoin:miter;"/>
   </g>
   <g id="patch_27">
    <path clip-path="url(#pdb6e29a787)" d="M 57.6 117.783529 
L 81.796507 117.783529 
L 81.796507 113.870118 
L 57.6 113.870118 
z
" style="fill:#4c72b0;stroke:#ffffff;stroke-linejoin:miter;"/>
   </g>
   <g id="patch_28">
    <path clip-path="url(#pdb6e29a787)" d="M 57.6 109.956706 
L 84.182078 109.956706 
L 84.182078 106.043294 
L 57.6 106.043294 
z
" style="fill:#4c72b0;stroke:#ffffff;stroke-linejoin:miter;"/>
   </g>
   <g id="patch_29">
    <path clip-path="url(#pdb6e29a787)" d="M 57.6 102.129882 
L 86.226854 102.129882 
L 86.226854 98.216471 
L 57.6 98.216471 
z
" style="fill:#4c72b0;stroke:#ffffff;stroke-linejoin:miter;"/>
   </g>
   <g id="patch_30">
    <path clip-path="url(#pdb6e29a787)" d="M 57.6 94.303059 
L 91.338792 94.303059 
L 91.338792 90.389647 
L 57.6 90.389647 
z
" style="fill:#4c72b0;stroke:#ffffff;stroke-linejoin:miter;"/>
   </g>
   <g id="patch_31">
    <path clip-path="url(#pdb6e29a787)" d="M 57.6 86.476235 
L 96.109934 86.476235 
L 96.109934 82.562824 
L 57.6 82.562824 
z
" style="fill:#4c72b0;stroke:#ffffff;stroke-linejoin:miter;"/>
   </g>
   <g id="patch_32">
    <path clip-path="url(#pdb6e29a787)" d="M 57.6 78.649412 
L 97.899113 78.649412 
L 97.899113 74.736 
L 57.6 74.736 
z
" style="fill:#4c72b0;stroke:#ffffff;stroke-linejoin:miter;"/>
   </g>
   <g id="patch_33">
    <path clip-path="url(#pdb6e29a787)" d="M 57.6 70.822588 
L 104.118637 70.822588 
L 104.118637 66.909176 
L 57.6 66.909176 
z
" style="fill:#4c72b0;stroke:#ffffff;stroke-linejoin:miter;"/>
   </g>
   <g id="patch_34">
    <path clip-path="url(#pdb6e29a787)" d="M 57.6 62.995765 
L 135.557057 62.995765 
L 135.557057 59.082353 
L 57.6 59.082353 
z
" style="fill:#4c72b0;stroke:#ffffff;stroke-linejoin:miter;"/>
   </g>
   <g id="patch_35">
    <path clip-path="url(#pdb6e29a787)" d="M 57.6 55.168941 
L 147.484913 55.168941 
L 147.484913 51.255529 
L 57.6 51.255529 
z
" style="fill:#4c72b0;stroke:#ffffff;stroke-linejoin:miter;"/>
   </g>
   <g id="patch_36">
    <path clip-path="url(#pdb6e29a787)" d="M 57.6 47.342118 
L 227.657143 47.342118 
L 227.657143 43.428706 
L 57.6 43.428706 
z
" style="fill:#4c72b0;stroke:#ffffff;stroke-linejoin:miter;"/>
   </g>
   <g id="patch_37">
    <path clip-path="url(#pdb6e29a787)" d="M 58.537189 305.627294 
L 59.133581 305.627294 
L 59.133581 301.713882 
L 58.537189 301.713882 
z
" style="fill:#dd8452;stroke:#ffffff;stroke-linejoin:miter;"/>
   </g>
   <g id="patch_38">
    <path clip-path="url(#pdb6e29a787)" d="M 58.622388 297.800471 
L 59.474377 297.800471 
L 59.474377 293.887059 
L 58.622388 293.887059 
z
" style="fill:#dd8452;stroke:#ffffff;stroke-linejoin:miter;"/>
   </g>
   <g id="patch_39">
    <path clip-path="url(#pdb6e29a787)" d="M 59.21878 289.973647 
L 60.411566 289.973647 
L 60.411566 286.060235 
L 59.21878 286.060235 
z
" style="fill:#dd8452;stroke:#ffffff;stroke-linejoin:miter;"/>
   </g>
   <g id="patch_40">
    <path clip-path="url(#pdb6e29a787)" d="M 60.667163 282.146824 
L 62.882336 282.146824 
L 62.882336 278.233412 
L 60.667163 278.233412 
z
" style="fill:#dd8452;stroke:#ffffff;stroke-linejoin:miter;"/>
   </g>
   <g id="patch_41">
    <path clip-path="url(#pdb6e29a787)" d="M 61.433954 274.32 
L 64.075122 274.32 
L 64.075122 270.406588 
L 61.433954 270.406588 
z
" style="fill:#dd8452;stroke:#ffffff;stroke-linejoin:miter;"/>
   </g>
   <g id="patch_42">
    <path clip-path="url(#pdb6e29a787)" d="M 61.859948 266.493176 
L 65.267907 266.493176 
L 65.267907 262.579765 
L 61.859948 262.579765 
z
" style="fill:#dd8452;stroke:#ffffff;stroke-linejoin:miter;"/>
   </g>
   <g id="patch_43">
    <path clip-path="url(#pdb6e29a787)" d="M 62.371142 258.666353 
L 66.71629 258.666353 
L 66.71629 254.752941 
L 62.371142 254.752941 
z
" style="fill:#dd8452;stroke:#ffffff;stroke-linejoin:miter;"/>
   </g>
   <g id="patch_44">
    <path clip-path="url(#pdb6e29a787)" d="M 63.052734 250.839529 
L 67.397881 250.839529 
L 67.397881 246.926118 
L 63.052734 246.926118 
z
" style="fill:#dd8452;stroke:#ffffff;stroke-linejoin:miter;"/>
   </g>
   <g id="patch_45">
    <path clip-path="url(#pdb6e29a787)" d="M 63.478729 243.012706 
L 67.653478 243.012706 
L 67.653478 239.099294 
L 63.478729 239.099294 
z
" style="fill:#dd8452;stroke:#ffffff;stroke-linejoin:miter;"/>
   </g>
   <g id="patch_46">
    <path clip-path="url(#pdb6e29a787)" d="M 63.904724 235.185882 
L 69.527856 235.185882 
L 69.527856 231.272471 
L 63.904724 231.272471 
z
" style="fill:#dd8452;stroke:#ffffff;stroke-linejoin:miter;"/>
   </g>
   <g id="patch_47">
    <path clip-path="url(#pdb6e29a787)" d="M 64.24552 227.359059 
L 69.698254 227.359059 
L 69.698254 223.445647 
L 64.24552 223.445647 
z
" style="fill:#dd8452;stroke:#ffffff;stroke-linejoin:miter;"/>
   </g>
   <g id="patch_48">
    <path clip-path="url(#pdb6e29a787)" d="M 66.034698 219.532235 
L 73.191411 219.532235 
L 73.191411 215.618824 
L 66.034698 215.618824 
z
" style="fill:#dd8452;stroke:#ffffff;stroke-linejoin:miter;"/>
   </g>
   <g id="patch_49">
    <path clip-path="url(#pdb6e29a787)" d="M 66.034698 211.705412 
L 72.424621 211.705412 
L 72.424621 207.792 
L 66.034698 207.792 
z
" style="fill:#dd8452;stroke:#ffffff;stroke-linejoin:miter;"/>
   </g>
   <g id="patch_50">
    <path clip-path="url(#pdb6e29a787)" d="M 66.119897 203.878588 
L 72.50982 203.878588 
L 72.50982 199.965176 
L 66.119897 199.965176 
z
" style="fill:#dd8452;stroke:#ffffff;stroke-linejoin:miter;"/>
   </g>
   <g id="patch_51">
    <path clip-path="url(#pdb6e29a787)" d="M 69.016662 196.051765 
L 78.047753 196.051765 
L 78.047753 192.138353 
L 69.016662 192.138353 
z
" style="fill:#dd8452;stroke:#ffffff;stroke-linejoin:miter;"/>
   </g>
   <g id="patch_52">
    <path clip-path="url(#pdb6e29a787)" d="M 70.209447 188.224941 
L 80.092528 188.224941 
L 80.092528 184.311529 
L 70.209447 184.311529 
z
" style="fill:#dd8452;stroke:#ffffff;stroke-linejoin:miter;"/>
   </g>
   <g id="patch_53">
    <path clip-path="url(#pdb6e29a787)" d="M 71.231835 180.398118 
L 82.563298 180.398118 
L 82.563298 176.484706 
L 71.231835 176.484706 
z
" style="fill:#dd8452;stroke:#ffffff;stroke-linejoin:miter;"/>
   </g>
   <g id="patch_54">
    <path clip-path="url(#pdb6e29a787)" d="M 71.317034 172.571294 
L 82.478099 172.571294 
L 82.478099 168.657882 
L 71.317034 168.657882 
z
" style="fill:#dd8452;stroke:#ffffff;stroke-linejoin:miter;"/>
   </g>
   <g id="patch_55">
    <path clip-path="url(#pdb6e29a787)" d="M 74.213799 164.744471 
L 87.675236 164.744471 
L 87.675236 160.831059 
L 74.213799 160.831059 
z
" style="fill:#dd8452;stroke:#ffffff;stroke-linejoin:miter;"/>
   </g>
   <g id="patch_56">
    <path clip-path="url(#pdb6e29a787)" d="M 74.469396 156.917647 
L 87.845634 156.917647 
L 87.845634 153.004235 
L 74.469396 153.004235 
z
" style="fill:#dd8452;stroke:#ffffff;stroke-linejoin:miter;"/>
   </g>
   <g id="patch_57">
    <path clip-path="url(#pdb6e29a787)" d="M 75.74738 149.090824 
L 90.401603 149.090824 
L 90.401603 145.177412 
L 75.74738 145.177412 
z
" style="fill:#dd8452;stroke:#ffffff;stroke-linejoin:miter;"/>
   </g>
   <g id="patch_58">
    <path clip-path="url(#pdb6e29a787)" d="M 76.684569 141.264 
L 92.446378 141.264 
L 92.446378 137.350588 
L 76.684569 137.350588 
z
" style="fill:#dd8452;stroke:#ffffff;stroke-linejoin:miter;"/>
   </g>
   <g id="patch_59">
    <path clip-path="url(#pdb6e29a787)" d="M 77.45136 133.437176 
L 89.890409 133.437176 
L 89.890409 129.523765 
L 77.45136 129.523765 
z
" style="fill:#dd8452;stroke:#ffffff;stroke-linejoin:miter;"/>
   </g>
   <g id="patch_60">
    <path clip-path="url(#pdb6e29a787)" d="M 81.455711 125.610353 
L 101.818265 125.610353 
L 101.818265 121.696941 
L 81.455711 121.696941 
z
" style="fill:#dd8452;stroke:#ffffff;stroke-linejoin:miter;"/>
   </g>
   <g id="patch_61">
    <path clip-path="url(#pdb6e29a787)" d="M 81.796507 117.783529 
L 101.39227 117.783529 
L 101.39227 113.870118 
L 81.796507 113.870118 
z
" style="fill:#dd8452;stroke:#ffffff;stroke-linejoin:miter;"/>
   </g>
   <g id="patch_62">
    <path clip-path="url(#pdb6e29a787)" d="M 84.182078 109.956706 
L 104.118637 109.956706 
L 104.118637 106.043294 
L 84.182078 106.043294 
z
" style="fill:#dd8452;stroke:#ffffff;stroke-linejoin:miter;"/>
   </g>
   <g id="patch_63">
    <path clip-path="url(#pdb6e29a787)" d="M 86.226854 102.129882 
L 108.122989 102.129882 
L 108.122989 98.216471 
L 86.226854 98.216471 
z
" style="fill:#dd8452;stroke:#ffffff;stroke-linejoin:miter;"/>
   </g>
   <g id="patch_64">
    <path clip-path="url(#pdb6e29a787)" d="M 91.338792 94.303059 
L 117.494875 94.303059 
L 117.494875 90.389647 
L 91.338792 90.389647 
z
" style="fill:#dd8452;stroke:#ffffff;stroke-linejoin:miter;"/>
   </g>
   <g id="patch_65">
    <path clip-path="url(#pdb6e29a787)" d="M 96.109934 86.476235 
L 128.911537 86.476235 
L 128.911537 82.562824 
L 96.109934 82.562824 
z
" style="fill:#dd8452;stroke:#ffffff;stroke-linejoin:miter;"/>
   </g>
   <g id="patch_66">
    <path clip-path="url(#pdb6e29a787)" d="M 97.899113 78.649412 
L 131.297109 78.649412 
L 131.297109 74.736 
L 97.899113 74.736 
z
" style="fill:#dd8452;stroke:#ffffff;stroke-linejoin:miter;"/>
   </g>
   <g id="patch_67">
    <path clip-path="url(#pdb6e29a787)" d="M 104.118637 70.822588 
L 139.561409 70.822588 
L 139.561409 66.909176 
L 104.118637 66.909176 
z
" style="fill:#dd8452;stroke:#ffffff;stroke-linejoin:miter;"/>
   </g>
   <g id="patch_68">
    <path clip-path="url(#pdb6e29a787)" d="M 135.557057 62.995765 
L 198.178299 62.995765 
L 198.178299 59.082353 
L 135.557057 59.082353 
z
" style="fill:#dd8452;stroke:#ffffff;stroke-linejoin:miter;"/>
   </g>
   <g id="patch_69">
    <path clip-path="url(#pdb6e29a787)" d="M 147.484913 55.168941 
L 219.989236 55.168941 
L 219.989236 51.255529 
L 147.484913 51.255529 
z
" style="fill:#dd8452;stroke:#ffffff;stroke-linejoin:miter;"/>
   </g>
   <g id="patch_70">
    <path clip-path="url(#pdb6e29a787)" d="M 227.657143 47.342118 
L 361.675122 47.342118 
L 361.675122 43.428706 
L 227.657143 43.428706 
z
" style="fill:#dd8452;stroke:#ffffff;stroke-linejoin:miter;"/>
   </g>
   <g id="patch_71">
    <path clip-path="url(#pdb6e29a787)" d="M 59.133581 305.627294 
L 59.474377 305.627294 
L 59.474377 301.713882 
L 59.133581 301.713882 
z
" style="fill:#55a868;stroke:#ffffff;stroke-linejoin:miter;"/>
   </g>
   <g id="patch_72">
    <path clip-path="url(#pdb6e29a787)" d="M 59.474377 297.800471 
L 59.644775 297.800471 
L 59.644775 293.887059 
L 59.474377 293.887059 
z
" style="fill:#55a868;stroke:#ffffff;stroke-linejoin:miter;"/>
   </g>
   <g id="patch_73">
    <path clip-path="url(#pdb6e29a787)" d="M 60.411566 289.973647 
L 60.837561 289.973647 
L 60.837561 286.060235 
L 60.411566 286.060235 
z
" style="fill:#55a868;stroke:#ffffff;stroke-linejoin:miter;"/>
   </g>
   <g id="patch_74">
    <path clip-path="url(#pdb6e29a787)" d="M 62.882336 282.146824 
L 63.734326 282.146824 
L 63.734326 278.233412 
L 62.882336 278.233412 
z
" style="fill:#55a868;stroke:#ffffff;stroke-linejoin:miter;"/>
   </g>
   <g id="patch_75">
    <path clip-path="url(#pdb6e29a787)" d="M 64.075122 274.32 
L 65.267907 274.32 
L 65.267907 270.406588 
L 64.075122 270.406588 
z
" style="fill:#55a868;stroke:#ffffff;stroke-linejoin:miter;"/>
   </g>
   <g id="patch_76">
    <path clip-path="url(#pdb6e29a787)" d="M 65.267907 266.493176 
L 66.119897 266.493176 
L 66.119897 262.579765 
L 65.267907 262.579765 
z
" style="fill:#55a868;stroke:#ffffff;stroke-linejoin:miter;"/>
   </g>
   <g id="patch_77">
    <path clip-path="url(#pdb6e29a787)" d="M 66.71629 258.666353 
L 67.142285 258.666353 
L 67.142285 254.752941 
L 66.71629 254.752941 
z
" style="fill:#55a868;stroke:#ffffff;stroke-linejoin:miter;"/>
   </g>
   <g id="patch_78">
    <path clip-path="url(#pdb6e29a787)" d="M 67.397881 250.839529 
L 68.505468 250.839529 
L 68.505468 246.926118 
L 67.397881 246.926118 
z
" style="fill:#55a868;stroke:#ffffff;stroke-linejoin:miter;"/>
   </g>
   <g id="patch_79">
    <path clip-path="url(#pdb6e29a787)" d="M 67.653478 243.012706 
L 69.357458 243.012706 
L 69.357458 239.099294 
L 67.653478 239.099294 
z
" style="fill:#55a868;stroke:#ffffff;stroke-linejoin:miter;"/>
   </g>
   <g id="patch_80">
    <path clip-path="url(#pdb6e29a787)" d="M 69.527856 235.185882 
L 70.209447 235.185882 
L 70.209447 231.272471 
L 69.527856 231.272471 
z
" style="fill:#55a868;stroke:#ffffff;stroke-linejoin:miter;"/>
   </g>
   <g id="patch_81">
    <path clip-path="url(#pdb6e29a787)" d="M 69.698254 227.359059 
L 70.891039 227.359059 
L 70.891039 223.445647 
L 69.698254 223.445647 
z
" style="fill:#55a868;stroke:#ffffff;stroke-linejoin:miter;"/>
   </g>
   <g id="patch_82">
    <path clip-path="url(#pdb6e29a787)" d="M 73.191411 219.532235 
L 74.469396 219.532235 
L 74.469396 215.618824 
L 73.191411 215.618824 
z
" style="fill:#55a868;stroke:#ffffff;stroke-linejoin:miter;"/>
   </g>
   <g id="patch_83">
    <path clip-path="url(#pdb6e29a787)" d="M 72.424621 211.705412 
L 74.469396 211.705412 
L 74.469396 207.792 
L 72.424621 207.792 
z
" style="fill:#55a868;stroke:#ffffff;stroke-linejoin:miter;"/>
   </g>
   <g id="patch_84">
    <path clip-path="url(#pdb6e29a787)" d="M 72.50982 203.878588 
L 74.639794 203.878588 
L 74.639794 199.965176 
L 72.50982 199.965176 
z
" style="fill:#55a868;stroke:#ffffff;stroke-linejoin:miter;"/>
   </g>
   <g id="patch_85">
    <path clip-path="url(#pdb6e29a787)" d="M 78.047753 196.051765 
L 80.433324 196.051765 
L 80.433324 192.138353 
L 78.047753 192.138353 
z
" style="fill:#55a868;stroke:#ffffff;stroke-linejoin:miter;"/>
   </g>
   <g id="patch_86">
    <path clip-path="url(#pdb6e29a787)" d="M 80.092528 188.224941 
L 82.818895 188.224941 
L 82.818895 184.311529 
L 80.092528 184.311529 
z
" style="fill:#55a868;stroke:#ffffff;stroke-linejoin:miter;"/>
   </g>
   <g id="patch_87">
    <path clip-path="url(#pdb6e29a787)" d="M 82.563298 180.398118 
L 84.86367 180.398118 
L 84.86367 176.484706 
L 82.563298 176.484706 
z
" style="fill:#55a868;stroke:#ffffff;stroke-linejoin:miter;"/>
   </g>
   <g id="patch_88">
    <path clip-path="url(#pdb6e29a787)" d="M 82.478099 172.571294 
L 85.034068 172.571294 
L 85.034068 168.657882 
L 82.478099 168.657882 
z
" style="fill:#55a868;stroke:#ffffff;stroke-linejoin:miter;"/>
   </g>
   <g id="patch_89">
    <path clip-path="url(#pdb6e29a787)" d="M 87.675236 164.744471 
L 90.827598 164.744471 
L 90.827598 160.831059 
L 87.675236 160.831059 
z
" style="fill:#55a868;stroke:#ffffff;stroke-linejoin:miter;"/>
   </g>
   <g id="patch_90">
    <path clip-path="url(#pdb6e29a787)" d="M 87.845634 156.917647 
L 91.338792 156.917647 
L 91.338792 153.004235 
L 87.845634 153.004235 
z
" style="fill:#55a868;stroke:#ffffff;stroke-linejoin:miter;"/>
   </g>
   <g id="patch_91">
    <path clip-path="url(#pdb6e29a787)" d="M 90.401603 149.090824 
L 93.894761 149.090824 
L 93.894761 145.177412 
L 90.401603 145.177412 
z
" style="fill:#55a868;stroke:#ffffff;stroke-linejoin:miter;"/>
   </g>
   <g id="patch_92">
    <path clip-path="url(#pdb6e29a787)" d="M 92.446378 141.264 
L 95.769138 141.264 
L 95.769138 137.350588 
L 92.446378 137.350588 
z
" style="fill:#55a868;stroke:#ffffff;stroke-linejoin:miter;"/>
   </g>
   <g id="patch_93">
    <path clip-path="url(#pdb6e29a787)" d="M 89.890409 133.437176 
L 97.30272 133.437176 
L 97.30272 129.523765 
L 89.890409 129.523765 
z
" style="fill:#55a868;stroke:#ffffff;stroke-linejoin:miter;"/>
   </g>
   <g id="patch_94">
    <path clip-path="url(#pdb6e29a787)" d="M 101.818265 125.610353 
L 105.311423 125.610353 
L 105.311423 121.696941 
L 101.818265 121.696941 
z
" style="fill:#55a868;stroke:#ffffff;stroke-linejoin:miter;"/>
   </g>
   <g id="patch_95">
    <path clip-path="url(#pdb6e29a787)" d="M 101.39227 117.783529 
L 105.993015 117.783529 
L 105.993015 113.870118 
L 101.39227 113.870118 
z
" style="fill:#55a868;stroke:#ffffff;stroke-linejoin:miter;"/>
   </g>
   <g id="patch_96">
    <path clip-path="url(#pdb6e29a787)" d="M 104.118637 109.956706 
L 110.764157 109.956706 
L 110.764157 106.043294 
L 104.118637 106.043294 
z
" style="fill:#55a868;stroke:#ffffff;stroke-linejoin:miter;"/>
   </g>
   <g id="patch_97">
    <path clip-path="url(#pdb6e29a787)" d="M 108.122989 102.129882 
L 114.853707 102.129882 
L 114.853707 98.216471 
L 108.122989 98.216471 
z
" style="fill:#55a868;stroke:#ffffff;stroke-linejoin:miter;"/>
   </g>
   <g id="patch_98">
    <path clip-path="url(#pdb6e29a787)" d="M 117.494875 94.303059 
L 125.077584 94.303059 
L 125.077584 90.389647 
L 117.494875 90.389647 
z
" style="fill:#55a868;stroke:#ffffff;stroke-linejoin:miter;"/>
   </g>
   <g id="patch_99">
    <path clip-path="url(#pdb6e29a787)" d="M 128.911537 86.476235 
L 134.619868 86.476235 
L 134.619868 82.562824 
L 128.911537 82.562824 
z
" style="fill:#55a868;stroke:#ffffff;stroke-linejoin:miter;"/>
   </g>
   <g id="patch_100">
    <path clip-path="url(#pdb6e29a787)" d="M 131.297109 78.649412 
L 138.198225 78.649412 
L 138.198225 74.736 
L 131.297109 74.736 
z
" style="fill:#55a868;stroke:#ffffff;stroke-linejoin:miter;"/>
   </g>
   <g id="patch_101">
    <path clip-path="url(#pdb6e29a787)" d="M 139.561409 70.822588 
L 150.637275 70.822588 
L 150.637275 66.909176 
L 139.561409 66.909176 
z
" style="fill:#55a868;stroke:#ffffff;stroke-linejoin:miter;"/>
   </g>
   <g id="patch_102">
    <path clip-path="url(#pdb6e29a787)" d="M 198.178299 62.995765 
L 213.514114 62.995765 
L 213.514114 59.082353 
L 198.178299 59.082353 
z
" style="fill:#55a868;stroke:#ffffff;stroke-linejoin:miter;"/>
   </g>
   <g id="patch_103">
    <path clip-path="url(#pdb6e29a787)" d="M 219.989236 55.168941 
L 237.369825 55.168941 
L 237.369825 51.255529 
L 219.989236 51.255529 
z
" style="fill:#55a868;stroke:#ffffff;stroke-linejoin:miter;"/>
   </g>
   <g id="patch_104">
    <path clip-path="url(#pdb6e29a787)" d="M 361.675122 47.342118 
L 397.714286 47.342118 
L 397.714286 43.428706 
L 361.675122 43.428706 
z
" style="fill:#55a868;stroke:#ffffff;stroke-linejoin:miter;"/>
   </g>
   <g id="patch_105">
    <path d="M 57.6 307.584 
L 57.6 41.472 
" style="fill:none;stroke:#ffffff;stroke-linecap:square;stroke-linejoin:miter;stroke-width:1.25;"/>
   </g>
   <g id="patch_106">
    <path d="M 414.72 307.584 
L 414.72 41.472 
" style="fill:none;stroke:#ffffff;stroke-linecap:square;stroke-linejoin:miter;stroke-width:1.25;"/>
   </g>
   <g id="patch_107">
    <path d="M 57.6 307.584 
L 414.72 307.584 
" style="fill:none;stroke:#ffffff;stroke-linecap:square;stroke-linejoin:miter;stroke-width:1.25;"/>
   </g>
   <g id="patch_108">
    <path d="M 57.6 41.472 
L 414.72 41.472 
" style="fill:none;stroke:#ffffff;stroke-linecap:square;stroke-linejoin:miter;stroke-width:1.25;"/>
   </g>
   <g id="legend_1">
    <g id="patch_109">
     <path d="M 346.2175 302.084 
L 407.02 302.084 
Q 409.22 302.084 409.22 299.884 
L 409.22 252.546187 
Q 409.22 250.346187 407.02 250.346187 
L 346.2175 250.346187 
Q 344.0175 250.346187 344.0175 252.546187 
L 344.0175 299.884 
Q 344.0175 302.084 346.2175 302.084 
z
" style="fill:#eaeaf2;opacity:0.8;stroke:#cccccc;stroke-linejoin:miter;"/>
    </g>
    <g id="patch_110">
     <path d="M 348.4175 263.104469 
L 370.4175 263.104469 
L 370.4175 255.404469 
L 348.4175 255.404469 
z
" style="fill:#4c72b0;stroke:#ffffff;stroke-linejoin:miter;"/>
    </g>
    <g id="text_45">
     <!-- all -->
     <g style="fill:#262626;" transform="translate(379.2175 263.104469)scale(0.11 -0.11)">
      <use xlink:href="#DejaVuSans-97"/>
      <use x="61.279297" xlink:href="#DejaVuSans-108"/>
      <use x="89.0625" xlink:href="#DejaVuSans-108"/>
     </g>
    </g>
    <g id="patch_111">
     <path d="M 348.4175 279.250406 
L 370.4175 279.250406 
L 370.4175 271.550406 
L 348.4175 271.550406 
z
" style="fill:#dd8452;stroke:#ffffff;stroke-linejoin:miter;"/>
    </g>
    <g id="text_46">
     <!-- train -->
     <g style="fill:#262626;" transform="translate(379.2175 279.250406)scale(0.11 -0.11)">
      <use xlink:href="#DejaVuSans-116"/>
      <use x="39.208984" xlink:href="#DejaVuSans-114"/>
      <use x="80.322266" xlink:href="#DejaVuSans-97"/>
      <use x="141.601562" xlink:href="#DejaVuSans-105"/>
      <use x="169.384766" xlink:href="#DejaVuSans-110"/>
     </g>
    </g>
    <g id="patch_112">
     <path d="M 348.4175 295.396344 
L 370.4175 295.396344 
L 370.4175 287.696344 
L 348.4175 287.696344 
z
" style="fill:#55a868;stroke:#ffffff;stroke-linejoin:miter;"/>
    </g>
    <g id="text_47">
     <!-- test -->
     <g style="fill:#262626;" transform="translate(379.2175 295.396344)scale(0.11 -0.11)">
      <use xlink:href="#DejaVuSans-116"/>
      <use x="39.208984" xlink:href="#DejaVuSans-101"/>
      <use x="100.732422" xlink:href="#DejaVuSans-115"/>
      <use x="152.832031" xlink:href="#DejaVuSans-116"/>
     </g>
    </g>
   </g>
  </g>
 </g>
 <defs>
  <clipPath id="pdb6e29a787">
   <rect height="266.112" width="357.12" x="57.6" y="41.472"/>
  </clipPath>
 </defs>
</svg>
