<?xml version="1.0" encoding="utf-8" standalone="no"?>
<!DOCTYPE svg PUBLIC "-//W3C//DTD SVG 1.1//EN"
  "http://www.w3.org/Graphics/SVG/1.1/DTD/svg11.dtd">
<!-- Created with matplotlib (https://matplotlib.org/) -->
<svg height="345.6pt" version="1.1" viewBox="0 0 460.8 345.6" width="460.8pt" xmlns="http://www.w3.org/2000/svg" xmlns:xlink="http://www.w3.org/1999/xlink">
 <defs>
  <style type="text/css">
*{stroke-linecap:butt;stroke-linejoin:round;}
  </style>
 </defs>
 <g id="figure_1">
  <g id="patch_1">
   <path d="M 0 345.6 
L 460.8 345.6 
L 460.8 0 
L 0 0 
z
" style="fill:#ffffff;"/>
  </g>
  <g id="axes_1">
   <g id="patch_2">
    <path d="M 124.416 307.584 
L 446.976 307.584 
L 446.976 13.824 
L 124.416 13.824 
z
" style="fill:#eaeaf2;"/>
   </g>
   <g id="matplotlib.axis_1">
    <g id="xtick_1">
     <g id="line2d_1">
      <path clip-path="url(#p4d411edc0e)" d="M 124.416 307.584 
L 124.416 13.824 
" style="fill:none;stroke:#ffffff;stroke-linecap:round;"/>
     </g>
     <g id="text_1">
      <!-- 0 -->
      <defs>
       <path d="M 31.78125 66.40625 
Q 24.171875 66.40625 20.328125 58.90625 
Q 16.5 51.421875 16.5 36.375 
Q 16.5 21.390625 20.328125 13.890625 
Q 24.171875 6.390625 31.78125 6.390625 
Q 39.453125 6.390625 43.28125 13.890625 
Q 47.125 21.390625 47.125 36.375 
Q 47.125 51.421875 43.28125 58.90625 
Q 39.453125 66.40625 31.78125 66.40625 
z
M 31.78125 74.21875 
Q 44.046875 74.21875 50.515625 64.515625 
Q 56.984375 54.828125 56.984375 36.375 
Q 56.984375 17.96875 50.515625 8.265625 
Q 44.046875 -1.421875 31.78125 -1.421875 
Q 19.53125 -1.421875 13.0625 8.265625 
Q 6.59375 17.96875 6.59375 36.375 
Q 6.59375 54.828125 13.0625 64.515625 
Q 19.53125 74.21875 31.78125 74.21875 
z
" id="DejaVuSans-48"/>
      </defs>
      <g style="fill:#262626;" transform="translate(120.916625 325.442281)scale(0.11 -0.11)">
       <use xlink:href="#DejaVuSans-48"/>
      </g>
     </g>
    </g>
    <g id="xtick_2">
     <g id="line2d_2">
      <path clip-path="url(#p4d411edc0e)" d="M 162.892954 307.584 
L 162.892954 13.824 
" style="fill:none;stroke:#ffffff;stroke-linecap:round;"/>
     </g>
     <g id="text_2">
      <!-- 500 -->
      <defs>
       <path d="M 10.796875 72.90625 
L 49.515625 72.90625 
L 49.515625 64.59375 
L 19.828125 64.59375 
L 19.828125 46.734375 
Q 21.96875 47.46875 24.109375 47.828125 
Q 26.265625 48.1875 28.421875 48.1875 
Q 40.625 48.1875 47.75 41.5 
Q 54.890625 34.8125 54.890625 23.390625 
Q 54.890625 11.625 47.5625 5.09375 
Q 40.234375 -1.421875 26.90625 -1.421875 
Q 22.3125 -1.421875 17.546875 -0.640625 
Q 12.796875 0.140625 7.71875 1.703125 
L 7.71875 11.625 
Q 12.109375 9.234375 16.796875 8.0625 
Q 21.484375 6.890625 26.703125 6.890625 
Q 35.15625 6.890625 40.078125 11.328125 
Q 45.015625 15.765625 45.015625 23.390625 
Q 45.015625 31 40.078125 35.4375 
Q 35.15625 39.890625 26.703125 39.890625 
Q 22.75 39.890625 18.8125 39.015625 
Q 14.890625 38.140625 10.796875 36.28125 
z
" id="DejaVuSans-53"/>
      </defs>
      <g style="fill:#262626;" transform="translate(152.394829 325.442281)scale(0.11 -0.11)">
       <use xlink:href="#DejaVuSans-53"/>
       <use x="63.623047" xlink:href="#DejaVuSans-48"/>
       <use x="127.246094" xlink:href="#DejaVuSans-48"/>
      </g>
     </g>
    </g>
    <g id="xtick_3">
     <g id="line2d_3">
      <path clip-path="url(#p4d411edc0e)" d="M 201.369908 307.584 
L 201.369908 13.824 
" style="fill:none;stroke:#ffffff;stroke-linecap:round;"/>
     </g>
     <g id="text_3">
      <!-- 1000 -->
      <defs>
       <path d="M 12.40625 8.296875 
L 28.515625 8.296875 
L 28.515625 63.921875 
L 10.984375 60.40625 
L 10.984375 69.390625 
L 28.421875 72.90625 
L 38.28125 72.90625 
L 38.28125 8.296875 
L 54.390625 8.296875 
L 54.390625 0 
L 12.40625 0 
z
" id="DejaVuSans-49"/>
      </defs>
      <g style="fill:#262626;" transform="translate(187.372408 325.442281)scale(0.11 -0.11)">
       <use xlink:href="#DejaVuSans-49"/>
       <use x="63.623047" xlink:href="#DejaVuSans-48"/>
       <use x="127.246094" xlink:href="#DejaVuSans-48"/>
       <use x="190.869141" xlink:href="#DejaVuSans-48"/>
      </g>
     </g>
    </g>
    <g id="xtick_4">
     <g id="line2d_4">
      <path clip-path="url(#p4d411edc0e)" d="M 239.846862 307.584 
L 239.846862 13.824 
" style="fill:none;stroke:#ffffff;stroke-linecap:round;"/>
     </g>
     <g id="text_4">
      <!-- 1500 -->
      <g style="fill:#262626;" transform="translate(225.849362 325.442281)scale(0.11 -0.11)">
       <use xlink:href="#DejaVuSans-49"/>
       <use x="63.623047" xlink:href="#DejaVuSans-53"/>
       <use x="127.246094" xlink:href="#DejaVuSans-48"/>
       <use x="190.869141" xlink:href="#DejaVuSans-48"/>
      </g>
     </g>
    </g>
    <g id="xtick_5">
     <g id="line2d_5">
      <path clip-path="url(#p4d411edc0e)" d="M 278.323816 307.584 
L 278.323816 13.824 
" style="fill:none;stroke:#ffffff;stroke-linecap:round;"/>
     </g>
     <g id="text_5">
      <!-- 2000 -->
      <defs>
       <path d="M 19.1875 8.296875 
L 53.609375 8.296875 
L 53.609375 0 
L 7.328125 0 
L 7.328125 8.296875 
Q 12.9375 14.109375 22.625 23.890625 
Q 32.328125 33.6875 34.8125 36.53125 
Q 39.546875 41.84375 41.421875 45.53125 
Q 43.3125 49.21875 43.3125 52.78125 
Q 43.3125 58.59375 39.234375 62.25 
Q 35.15625 65.921875 28.609375 65.921875 
Q 23.96875 65.921875 18.8125 64.3125 
Q 13.671875 62.703125 7.8125 59.421875 
L 7.8125 69.390625 
Q 13.765625 71.78125 18.9375 73 
Q 24.125 74.21875 28.421875 74.21875 
Q 39.75 74.21875 46.484375 68.546875 
Q 53.21875 62.890625 53.21875 53.421875 
Q 53.21875 48.921875 51.53125 44.890625 
Q 49.859375 40.875 45.40625 35.40625 
Q 44.1875 33.984375 37.640625 27.21875 
Q 31.109375 20.453125 19.1875 8.296875 
z
" id="DejaVuSans-50"/>
      </defs>
      <g style="fill:#262626;" transform="translate(264.326316 325.442281)scale(0.11 -0.11)">
       <use xlink:href="#DejaVuSans-50"/>
       <use x="63.623047" xlink:href="#DejaVuSans-48"/>
       <use x="127.246094" xlink:href="#DejaVuSans-48"/>
       <use x="190.869141" xlink:href="#DejaVuSans-48"/>
      </g>
     </g>
    </g>
    <g id="xtick_6">
     <g id="line2d_6">
      <path clip-path="url(#p4d411edc0e)" d="M 316.80077 307.584 
L 316.80077 13.824 
" style="fill:none;stroke:#ffffff;stroke-linecap:round;"/>
     </g>
     <g id="text_6">
      <!-- 2500 -->
      <g style="fill:#262626;" transform="translate(302.80327 325.442281)scale(0.11 -0.11)">
       <use xlink:href="#DejaVuSans-50"/>
       <use x="63.623047" xlink:href="#DejaVuSans-53"/>
       <use x="127.246094" xlink:href="#DejaVuSans-48"/>
       <use x="190.869141" xlink:href="#DejaVuSans-48"/>
      </g>
     </g>
    </g>
    <g id="xtick_7">
     <g id="line2d_7">
      <path clip-path="url(#p4d411edc0e)" d="M 355.277723 307.584 
L 355.277723 13.824 
" style="fill:none;stroke:#ffffff;stroke-linecap:round;"/>
     </g>
     <g id="text_7">
      <!-- 3000 -->
      <defs>
       <path d="M 40.578125 39.3125 
Q 47.65625 37.796875 51.625 33 
Q 55.609375 28.21875 55.609375 21.1875 
Q 55.609375 10.40625 48.1875 4.484375 
Q 40.765625 -1.421875 27.09375 -1.421875 
Q 22.515625 -1.421875 17.65625 -0.515625 
Q 12.796875 0.390625 7.625 2.203125 
L 7.625 11.71875 
Q 11.71875 9.328125 16.59375 8.109375 
Q 21.484375 6.890625 26.8125 6.890625 
Q 36.078125 6.890625 40.9375 10.546875 
Q 45.796875 14.203125 45.796875 21.1875 
Q 45.796875 27.640625 41.28125 31.265625 
Q 36.765625 34.90625 28.71875 34.90625 
L 20.21875 34.90625 
L 20.21875 43.015625 
L 29.109375 43.015625 
Q 36.375 43.015625 40.234375 45.921875 
Q 44.09375 48.828125 44.09375 54.296875 
Q 44.09375 59.90625 40.109375 62.90625 
Q 36.140625 65.921875 28.71875 65.921875 
Q 24.65625 65.921875 20.015625 65.03125 
Q 15.375 64.15625 9.8125 62.3125 
L 9.8125 71.09375 
Q 15.4375 72.65625 20.34375 73.4375 
Q 25.25 74.21875 29.59375 74.21875 
Q 40.828125 74.21875 47.359375 69.109375 
Q 53.90625 64.015625 53.90625 55.328125 
Q 53.90625 49.265625 50.4375 45.09375 
Q 46.96875 40.921875 40.578125 39.3125 
z
" id="DejaVuSans-51"/>
      </defs>
      <g style="fill:#262626;" transform="translate(341.280223 325.442281)scale(0.11 -0.11)">
       <use xlink:href="#DejaVuSans-51"/>
       <use x="63.623047" xlink:href="#DejaVuSans-48"/>
       <use x="127.246094" xlink:href="#DejaVuSans-48"/>
       <use x="190.869141" xlink:href="#DejaVuSans-48"/>
      </g>
     </g>
    </g>
    <g id="xtick_8">
     <g id="line2d_8">
      <path clip-path="url(#p4d411edc0e)" d="M 393.754677 307.584 
L 393.754677 13.824 
" style="fill:none;stroke:#ffffff;stroke-linecap:round;"/>
     </g>
     <g id="text_8">
      <!-- 3500 -->
      <g style="fill:#262626;" transform="translate(379.757177 325.442281)scale(0.11 -0.11)">
       <use xlink:href="#DejaVuSans-51"/>
       <use x="63.623047" xlink:href="#DejaVuSans-53"/>
       <use x="127.246094" xlink:href="#DejaVuSans-48"/>
       <use x="190.869141" xlink:href="#DejaVuSans-48"/>
      </g>
     </g>
    </g>
    <g id="xtick_9">
     <g id="line2d_9">
      <path clip-path="url(#p4d411edc0e)" d="M 432.231631 307.584 
L 432.231631 13.824 
" style="fill:none;stroke:#ffffff;stroke-linecap:round;"/>
     </g>
     <g id="text_9">
      <!-- 4000 -->
      <defs>
       <path d="M 37.796875 64.3125 
L 12.890625 25.390625 
L 37.796875 25.390625 
z
M 35.203125 72.90625 
L 47.609375 72.90625 
L 47.609375 25.390625 
L 58.015625 25.390625 
L 58.015625 17.1875 
L 47.609375 17.1875 
L 47.609375 0 
L 37.796875 0 
L 37.796875 17.1875 
L 4.890625 17.1875 
L 4.890625 26.703125 
z
" id="DejaVuSans-52"/>
      </defs>
      <g style="fill:#262626;" transform="translate(418.234131 325.442281)scale(0.11 -0.11)">
       <use xlink:href="#DejaVuSans-52"/>
       <use x="63.623047" xlink:href="#DejaVuSans-48"/>
       <use x="127.246094" xlink:href="#DejaVuSans-48"/>
       <use x="190.869141" xlink:href="#DejaVuSans-48"/>
      </g>
     </g>
    </g>
    <g id="text_10">
     <!-- number of defect categories -->
     <defs>
      <path d="M 54.890625 33.015625 
L 54.890625 0 
L 45.90625 0 
L 45.90625 32.71875 
Q 45.90625 40.484375 42.875 44.328125 
Q 39.84375 48.1875 33.796875 48.1875 
Q 26.515625 48.1875 22.3125 43.546875 
Q 18.109375 38.921875 18.109375 30.90625 
L 18.109375 0 
L 9.078125 0 
L 9.078125 54.6875 
L 18.109375 54.6875 
L 18.109375 46.1875 
Q 21.34375 51.125 25.703125 53.5625 
Q 30.078125 56 35.796875 56 
Q 45.21875 56 50.046875 50.171875 
Q 54.890625 44.34375 54.890625 33.015625 
z
" id="DejaVuSans-110"/>
      <path d="M 8.5 21.578125 
L 8.5 54.6875 
L 17.484375 54.6875 
L 17.484375 21.921875 
Q 17.484375 14.15625 20.5 10.265625 
Q 23.53125 6.390625 29.59375 6.390625 
Q 36.859375 6.390625 41.078125 11.03125 
Q 45.3125 15.671875 45.3125 23.6875 
L 45.3125 54.6875 
L 54.296875 54.6875 
L 54.296875 0 
L 45.3125 0 
L 45.3125 8.40625 
Q 42.046875 3.421875 37.71875 1 
Q 33.40625 -1.421875 27.6875 -1.421875 
Q 18.265625 -1.421875 13.375 4.4375 
Q 8.5 10.296875 8.5 21.578125 
z
M 31.109375 56 
z
" id="DejaVuSans-117"/>
      <path d="M 52 44.1875 
Q 55.375 50.25 60.0625 53.125 
Q 64.75 56 71.09375 56 
Q 79.640625 56 84.28125 50.015625 
Q 88.921875 44.046875 88.921875 33.015625 
L 88.921875 0 
L 79.890625 0 
L 79.890625 32.71875 
Q 79.890625 40.578125 77.09375 44.375 
Q 74.3125 48.1875 68.609375 48.1875 
Q 61.625 48.1875 57.5625 43.546875 
Q 53.515625 38.921875 53.515625 30.90625 
L 53.515625 0 
L 44.484375 0 
L 44.484375 32.71875 
Q 44.484375 40.625 41.703125 44.40625 
Q 38.921875 48.1875 33.109375 48.1875 
Q 26.21875 48.1875 22.15625 43.53125 
Q 18.109375 38.875 18.109375 30.90625 
L 18.109375 0 
L 9.078125 0 
L 9.078125 54.6875 
L 18.109375 54.6875 
L 18.109375 46.1875 
Q 21.1875 51.21875 25.484375 53.609375 
Q 29.78125 56 35.6875 56 
Q 41.65625 56 45.828125 52.96875 
Q 50 49.953125 52 44.1875 
z
" id="DejaVuSans-109"/>
      <path d="M 48.6875 27.296875 
Q 48.6875 37.203125 44.609375 42.84375 
Q 40.53125 48.484375 33.40625 48.484375 
Q 26.265625 48.484375 22.1875 42.84375 
Q 18.109375 37.203125 18.109375 27.296875 
Q 18.109375 17.390625 22.1875 11.75 
Q 26.265625 6.109375 33.40625 6.109375 
Q 40.53125 6.109375 44.609375 11.75 
Q 48.6875 17.390625 48.6875 27.296875 
z
M 18.109375 46.390625 
Q 20.953125 51.265625 25.265625 53.625 
Q 29.59375 56 35.59375 56 
Q 45.5625 56 51.78125 48.09375 
Q 58.015625 40.1875 58.015625 27.296875 
Q 58.015625 14.40625 51.78125 6.484375 
Q 45.5625 -1.421875 35.59375 -1.421875 
Q 29.59375 -1.421875 25.265625 0.953125 
Q 20.953125 3.328125 18.109375 8.203125 
L 18.109375 0 
L 9.078125 0 
L 9.078125 75.984375 
L 18.109375 75.984375 
z
" id="DejaVuSans-98"/>
      <path d="M 56.203125 29.59375 
L 56.203125 25.203125 
L 14.890625 25.203125 
Q 15.484375 15.921875 20.484375 11.0625 
Q 25.484375 6.203125 34.421875 6.203125 
Q 39.59375 6.203125 44.453125 7.46875 
Q 49.3125 8.734375 54.109375 11.28125 
L 54.109375 2.78125 
Q 49.265625 0.734375 44.1875 -0.34375 
Q 39.109375 -1.421875 33.890625 -1.421875 
Q 20.796875 -1.421875 13.15625 6.1875 
Q 5.515625 13.8125 5.515625 26.8125 
Q 5.515625 40.234375 12.765625 48.109375 
Q 20.015625 56 32.328125 56 
Q 43.359375 56 49.78125 48.890625 
Q 56.203125 41.796875 56.203125 29.59375 
z
M 47.21875 32.234375 
Q 47.125 39.59375 43.09375 43.984375 
Q 39.0625 48.390625 32.421875 48.390625 
Q 24.90625 48.390625 20.390625 44.140625 
Q 15.875 39.890625 15.1875 32.171875 
z
" id="DejaVuSans-101"/>
      <path d="M 41.109375 46.296875 
Q 39.59375 47.171875 37.8125 47.578125 
Q 36.03125 48 33.890625 48 
Q 26.265625 48 22.1875 43.046875 
Q 18.109375 38.09375 18.109375 28.8125 
L 18.109375 0 
L 9.078125 0 
L 9.078125 54.6875 
L 18.109375 54.6875 
L 18.109375 46.1875 
Q 20.953125 51.171875 25.484375 53.578125 
Q 30.03125 56 36.53125 56 
Q 37.453125 56 38.578125 55.875 
Q 39.703125 55.765625 41.0625 55.515625 
z
" id="DejaVuSans-114"/>
      <path id="DejaVuSans-32"/>
      <path d="M 30.609375 48.390625 
Q 23.390625 48.390625 19.1875 42.75 
Q 14.984375 37.109375 14.984375 27.296875 
Q 14.984375 17.484375 19.15625 11.84375 
Q 23.34375 6.203125 30.609375 6.203125 
Q 37.796875 6.203125 41.984375 11.859375 
Q 46.1875 17.53125 46.1875 27.296875 
Q 46.1875 37.015625 41.984375 42.703125 
Q 37.796875 48.390625 30.609375 48.390625 
z
M 30.609375 56 
Q 42.328125 56 49.015625 48.375 
Q 55.71875 40.765625 55.71875 27.296875 
Q 55.71875 13.875 49.015625 6.21875 
Q 42.328125 -1.421875 30.609375 -1.421875 
Q 18.84375 -1.421875 12.171875 6.21875 
Q 5.515625 13.875 5.515625 27.296875 
Q 5.515625 40.765625 12.171875 48.375 
Q 18.84375 56 30.609375 56 
z
" id="DejaVuSans-111"/>
      <path d="M 37.109375 75.984375 
L 37.109375 68.5 
L 28.515625 68.5 
Q 23.6875 68.5 21.796875 66.546875 
Q 19.921875 64.59375 19.921875 59.515625 
L 19.921875 54.6875 
L 34.71875 54.6875 
L 34.71875 47.703125 
L 19.921875 47.703125 
L 19.921875 0 
L 10.890625 0 
L 10.890625 47.703125 
L 2.296875 47.703125 
L 2.296875 54.6875 
L 10.890625 54.6875 
L 10.890625 58.5 
Q 10.890625 67.625 15.140625 71.796875 
Q 19.390625 75.984375 28.609375 75.984375 
z
" id="DejaVuSans-102"/>
      <path d="M 45.40625 46.390625 
L 45.40625 75.984375 
L 54.390625 75.984375 
L 54.390625 0 
L 45.40625 0 
L 45.40625 8.203125 
Q 42.578125 3.328125 38.25 0.953125 
Q 33.9375 -1.421875 27.875 -1.421875 
Q 17.96875 -1.421875 11.734375 6.484375 
Q 5.515625 14.40625 5.515625 27.296875 
Q 5.515625 40.1875 11.734375 48.09375 
Q 17.96875 56 27.875 56 
Q 33.9375 56 38.25 53.625 
Q 42.578125 51.265625 45.40625 46.390625 
z
M 14.796875 27.296875 
Q 14.796875 17.390625 18.875 11.75 
Q 22.953125 6.109375 30.078125 6.109375 
Q 37.203125 6.109375 41.296875 11.75 
Q 45.40625 17.390625 45.40625 27.296875 
Q 45.40625 37.203125 41.296875 42.84375 
Q 37.203125 48.484375 30.078125 48.484375 
Q 22.953125 48.484375 18.875 42.84375 
Q 14.796875 37.203125 14.796875 27.296875 
z
" id="DejaVuSans-100"/>
      <path d="M 48.78125 52.59375 
L 48.78125 44.1875 
Q 44.96875 46.296875 41.140625 47.34375 
Q 37.3125 48.390625 33.40625 48.390625 
Q 24.65625 48.390625 19.8125 42.84375 
Q 14.984375 37.3125 14.984375 27.296875 
Q 14.984375 17.28125 19.8125 11.734375 
Q 24.65625 6.203125 33.40625 6.203125 
Q 37.3125 6.203125 41.140625 7.25 
Q 44.96875 8.296875 48.78125 10.40625 
L 48.78125 2.09375 
Q 45.015625 0.34375 40.984375 -0.53125 
Q 36.96875 -1.421875 32.421875 -1.421875 
Q 20.0625 -1.421875 12.78125 6.34375 
Q 5.515625 14.109375 5.515625 27.296875 
Q 5.515625 40.671875 12.859375 48.328125 
Q 20.21875 56 33.015625 56 
Q 37.15625 56 41.109375 55.140625 
Q 45.0625 54.296875 48.78125 52.59375 
z
" id="DejaVuSans-99"/>
      <path d="M 18.3125 70.21875 
L 18.3125 54.6875 
L 36.8125 54.6875 
L 36.8125 47.703125 
L 18.3125 47.703125 
L 18.3125 18.015625 
Q 18.3125 11.328125 20.140625 9.421875 
Q 21.96875 7.515625 27.59375 7.515625 
L 36.8125 7.515625 
L 36.8125 0 
L 27.59375 0 
Q 17.1875 0 13.234375 3.875 
Q 9.28125 7.765625 9.28125 18.015625 
L 9.28125 47.703125 
L 2.6875 47.703125 
L 2.6875 54.6875 
L 9.28125 54.6875 
L 9.28125 70.21875 
z
" id="DejaVuSans-116"/>
      <path d="M 34.28125 27.484375 
Q 23.390625 27.484375 19.1875 25 
Q 14.984375 22.515625 14.984375 16.5 
Q 14.984375 11.71875 18.140625 8.90625 
Q 21.296875 6.109375 26.703125 6.109375 
Q 34.1875 6.109375 38.703125 11.40625 
Q 43.21875 16.703125 43.21875 25.484375 
L 43.21875 27.484375 
z
M 52.203125 31.203125 
L 52.203125 0 
L 43.21875 0 
L 43.21875 8.296875 
Q 40.140625 3.328125 35.546875 0.953125 
Q 30.953125 -1.421875 24.3125 -1.421875 
Q 15.921875 -1.421875 10.953125 3.296875 
Q 6 8.015625 6 15.921875 
Q 6 25.140625 12.171875 29.828125 
Q 18.359375 34.515625 30.609375 34.515625 
L 43.21875 34.515625 
L 43.21875 35.40625 
Q 43.21875 41.609375 39.140625 45 
Q 35.0625 48.390625 27.6875 48.390625 
Q 23 48.390625 18.546875 47.265625 
Q 14.109375 46.140625 10.015625 43.890625 
L 10.015625 52.203125 
Q 14.9375 54.109375 19.578125 55.046875 
Q 24.21875 56 28.609375 56 
Q 40.484375 56 46.34375 49.84375 
Q 52.203125 43.703125 52.203125 31.203125 
z
" id="DejaVuSans-97"/>
      <path d="M 45.40625 27.984375 
Q 45.40625 37.75 41.375 43.109375 
Q 37.359375 48.484375 30.078125 48.484375 
Q 22.859375 48.484375 18.828125 43.109375 
Q 14.796875 37.75 14.796875 27.984375 
Q 14.796875 18.265625 18.828125 12.890625 
Q 22.859375 7.515625 30.078125 7.515625 
Q 37.359375 7.515625 41.375 12.890625 
Q 45.40625 18.265625 45.40625 27.984375 
z
M 54.390625 6.78125 
Q 54.390625 -7.171875 48.1875 -13.984375 
Q 42 -20.796875 29.203125 -20.796875 
Q 24.46875 -20.796875 20.265625 -20.09375 
Q 16.0625 -19.390625 12.109375 -17.921875 
L 12.109375 -9.1875 
Q 16.0625 -11.328125 19.921875 -12.34375 
Q 23.78125 -13.375 27.78125 -13.375 
Q 36.625 -13.375 41.015625 -8.765625 
Q 45.40625 -4.15625 45.40625 5.171875 
L 45.40625 9.625 
Q 42.625 4.78125 38.28125 2.390625 
Q 33.9375 0 27.875 0 
Q 17.828125 0 11.671875 7.65625 
Q 5.515625 15.328125 5.515625 27.984375 
Q 5.515625 40.671875 11.671875 48.328125 
Q 17.828125 56 27.875 56 
Q 33.9375 56 38.28125 53.609375 
Q 42.625 51.21875 45.40625 46.390625 
L 45.40625 54.6875 
L 54.390625 54.6875 
z
" id="DejaVuSans-103"/>
      <path d="M 9.421875 54.6875 
L 18.40625 54.6875 
L 18.40625 0 
L 9.421875 0 
z
M 9.421875 75.984375 
L 18.40625 75.984375 
L 18.40625 64.59375 
L 9.421875 64.59375 
z
" id="DejaVuSans-105"/>
      <path d="M 44.28125 53.078125 
L 44.28125 44.578125 
Q 40.484375 46.53125 36.375 47.5 
Q 32.28125 48.484375 27.875 48.484375 
Q 21.1875 48.484375 17.84375 46.4375 
Q 14.5 44.390625 14.5 40.28125 
Q 14.5 37.15625 16.890625 35.375 
Q 19.28125 33.59375 26.515625 31.984375 
L 29.59375 31.296875 
Q 39.15625 29.25 43.1875 25.515625 
Q 47.21875 21.78125 47.21875 15.09375 
Q 47.21875 7.46875 41.1875 3.015625 
Q 35.15625 -1.421875 24.609375 -1.421875 
Q 20.21875 -1.421875 15.453125 -0.5625 
Q 10.6875 0.296875 5.421875 2 
L 5.421875 11.28125 
Q 10.40625 8.6875 15.234375 7.390625 
Q 20.0625 6.109375 24.8125 6.109375 
Q 31.15625 6.109375 34.5625 8.28125 
Q 37.984375 10.453125 37.984375 14.40625 
Q 37.984375 18.0625 35.515625 20.015625 
Q 33.0625 21.96875 24.703125 23.78125 
L 21.578125 24.515625 
Q 13.234375 26.265625 9.515625 29.90625 
Q 5.8125 33.546875 5.8125 39.890625 
Q 5.8125 47.609375 11.28125 51.796875 
Q 16.75 56 26.8125 56 
Q 31.78125 56 36.171875 55.265625 
Q 40.578125 54.546875 44.28125 53.078125 
z
" id="DejaVuSans-115"/>
     </defs>
     <g style="fill:#262626;" transform="translate(200.367563 340.848062)scale(0.12 -0.12)">
      <use xlink:href="#DejaVuSans-110"/>
      <use x="63.378906" xlink:href="#DejaVuSans-117"/>
      <use x="126.757812" xlink:href="#DejaVuSans-109"/>
      <use x="224.169922" xlink:href="#DejaVuSans-98"/>
      <use x="287.646484" xlink:href="#DejaVuSans-101"/>
      <use x="349.169922" xlink:href="#DejaVuSans-114"/>
      <use x="390.283203" xlink:href="#DejaVuSans-32"/>
      <use x="422.070312" xlink:href="#DejaVuSans-111"/>
      <use x="483.251953" xlink:href="#DejaVuSans-102"/>
      <use x="518.457031" xlink:href="#DejaVuSans-32"/>
      <use x="550.244141" xlink:href="#DejaVuSans-100"/>
      <use x="613.720703" xlink:href="#DejaVuSans-101"/>
      <use x="675.244141" xlink:href="#DejaVuSans-102"/>
      <use x="710.449219" xlink:href="#DejaVuSans-101"/>
      <use x="771.972656" xlink:href="#DejaVuSans-99"/>
      <use x="826.953125" xlink:href="#DejaVuSans-116"/>
      <use x="866.162109" xlink:href="#DejaVuSans-32"/>
      <use x="897.949219" xlink:href="#DejaVuSans-99"/>
      <use x="952.929688" xlink:href="#DejaVuSans-97"/>
      <use x="1014.208984" xlink:href="#DejaVuSans-116"/>
      <use x="1053.417969" xlink:href="#DejaVuSans-101"/>
      <use x="1114.941406" xlink:href="#DejaVuSans-103"/>
      <use x="1178.417969" xlink:href="#DejaVuSans-111"/>
      <use x="1239.599609" xlink:href="#DejaVuSans-114"/>
      <use x="1280.712891" xlink:href="#DejaVuSans-105"/>
      <use x="1308.496094" xlink:href="#DejaVuSans-101"/>
      <use x="1370.019531" xlink:href="#DejaVuSans-115"/>
     </g>
    </g>
   </g>
   <g id="matplotlib.axis_2">
    <g id="ytick_1">
     <g id="line2d_10">
      <path clip-path="url(#p4d411edc0e)" d="M 124.416 303.264 
L 446.976 303.264 
" style="fill:none;stroke:#ffffff;stroke-linecap:round;"/>
     </g>
     <g id="text_11">
      <!-- uneven weaving -->
      <defs>
       <path d="M 2.984375 54.6875 
L 12.5 54.6875 
L 29.59375 8.796875 
L 46.6875 54.6875 
L 56.203125 54.6875 
L 35.6875 0 
L 23.484375 0 
z
" id="DejaVuSans-118"/>
       <path d="M 4.203125 54.6875 
L 13.1875 54.6875 
L 24.421875 12.015625 
L 35.59375 54.6875 
L 46.1875 54.6875 
L 57.421875 12.015625 
L 68.609375 54.6875 
L 77.59375 54.6875 
L 63.28125 0 
L 52.6875 0 
L 40.921875 44.828125 
L 29.109375 0 
L 18.5 0 
z
" id="DejaVuSans-119"/>
      </defs>
      <g style="fill:#262626;" transform="translate(24.432406 307.443141)scale(0.11 -0.11)">
       <use xlink:href="#DejaVuSans-117"/>
       <use x="63.378906" xlink:href="#DejaVuSans-110"/>
       <use x="126.757812" xlink:href="#DejaVuSans-101"/>
       <use x="188.28125" xlink:href="#DejaVuSans-118"/>
       <use x="247.460938" xlink:href="#DejaVuSans-101"/>
       <use x="308.984375" xlink:href="#DejaVuSans-110"/>
       <use x="372.363281" xlink:href="#DejaVuSans-32"/>
       <use x="404.150391" xlink:href="#DejaVuSans-119"/>
       <use x="485.9375" xlink:href="#DejaVuSans-101"/>
       <use x="547.460938" xlink:href="#DejaVuSans-97"/>
       <use x="608.740234" xlink:href="#DejaVuSans-118"/>
       <use x="667.919922" xlink:href="#DejaVuSans-105"/>
       <use x="695.703125" xlink:href="#DejaVuSans-110"/>
       <use x="759.082031" xlink:href="#DejaVuSans-103"/>
      </g>
     </g>
    </g>
    <g id="ytick_2">
     <g id="line2d_11">
      <path clip-path="url(#p4d411edc0e)" d="M 124.416 294.624 
L 446.976 294.624 
" style="fill:none;stroke:#ffffff;stroke-linecap:round;"/>
     </g>
     <g id="text_12">
      <!-- double end -->
      <defs>
       <path d="M 9.421875 75.984375 
L 18.40625 75.984375 
L 18.40625 0 
L 9.421875 0 
z
" id="DejaVuSans-108"/>
      </defs>
      <g style="fill:#262626;" transform="translate(53.204281 298.803141)scale(0.11 -0.11)">
       <use xlink:href="#DejaVuSans-100"/>
       <use x="63.476562" xlink:href="#DejaVuSans-111"/>
       <use x="124.658203" xlink:href="#DejaVuSans-117"/>
       <use x="188.037109" xlink:href="#DejaVuSans-98"/>
       <use x="251.513672" xlink:href="#DejaVuSans-108"/>
       <use x="279.296875" xlink:href="#DejaVuSans-101"/>
       <use x="340.820312" xlink:href="#DejaVuSans-32"/>
       <use x="372.607422" xlink:href="#DejaVuSans-101"/>
       <use x="434.130859" xlink:href="#DejaVuSans-110"/>
       <use x="497.509766" xlink:href="#DejaVuSans-100"/>
      </g>
     </g>
    </g>
    <g id="ytick_3">
     <g id="line2d_12">
      <path clip-path="url(#p4d411edc0e)" d="M 124.416 285.984 
L 446.976 285.984 
" style="fill:none;stroke:#ffffff;stroke-linecap:round;"/>
     </g>
     <g id="text_13">
      <!-- double pick -->
      <defs>
       <path d="M 18.109375 8.203125 
L 18.109375 -20.796875 
L 9.078125 -20.796875 
L 9.078125 54.6875 
L 18.109375 54.6875 
L 18.109375 46.390625 
Q 20.953125 51.265625 25.265625 53.625 
Q 29.59375 56 35.59375 56 
Q 45.5625 56 51.78125 48.09375 
Q 58.015625 40.1875 58.015625 27.296875 
Q 58.015625 14.40625 51.78125 6.484375 
Q 45.5625 -1.421875 35.59375 -1.421875 
Q 29.59375 -1.421875 25.265625 0.953125 
Q 20.953125 3.328125 18.109375 8.203125 
z
M 48.6875 27.296875 
Q 48.6875 37.203125 44.609375 42.84375 
Q 40.53125 48.484375 33.40625 48.484375 
Q 26.265625 48.484375 22.1875 42.84375 
Q 18.109375 37.203125 18.109375 27.296875 
Q 18.109375 17.390625 22.1875 11.75 
Q 26.265625 6.109375 33.40625 6.109375 
Q 40.53125 6.109375 44.609375 11.75 
Q 48.6875 17.390625 48.6875 27.296875 
z
" id="DejaVuSans-112"/>
       <path d="M 9.078125 75.984375 
L 18.109375 75.984375 
L 18.109375 31.109375 
L 44.921875 54.6875 
L 56.390625 54.6875 
L 27.390625 29.109375 
L 57.625 0 
L 45.90625 0 
L 18.109375 26.703125 
L 18.109375 0 
L 9.078125 0 
z
" id="DejaVuSans-107"/>
      </defs>
      <g style="fill:#262626;" transform="translate(51.470063 290.163141)scale(0.11 -0.11)">
       <use xlink:href="#DejaVuSans-100"/>
       <use x="63.476562" xlink:href="#DejaVuSans-111"/>
       <use x="124.658203" xlink:href="#DejaVuSans-117"/>
       <use x="188.037109" xlink:href="#DejaVuSans-98"/>
       <use x="251.513672" xlink:href="#DejaVuSans-108"/>
       <use x="279.296875" xlink:href="#DejaVuSans-101"/>
       <use x="340.820312" xlink:href="#DejaVuSans-32"/>
       <use x="372.607422" xlink:href="#DejaVuSans-112"/>
       <use x="436.083984" xlink:href="#DejaVuSans-105"/>
       <use x="463.867188" xlink:href="#DejaVuSans-99"/>
       <use x="518.847656" xlink:href="#DejaVuSans-107"/>
      </g>
     </g>
    </g>
    <g id="ytick_4">
     <g id="line2d_13">
      <path clip-path="url(#p4d411edc0e)" d="M 124.416 277.344 
L 446.976 277.344 
" style="fill:none;stroke:#ffffff;stroke-linecap:round;"/>
     </g>
     <g id="text_14">
      <!-- buckling place -->
      <g style="fill:#262626;" transform="translate(35.384281 281.523141)scale(0.11 -0.11)">
       <use xlink:href="#DejaVuSans-98"/>
       <use x="63.476562" xlink:href="#DejaVuSans-117"/>
       <use x="126.855469" xlink:href="#DejaVuSans-99"/>
       <use x="181.835938" xlink:href="#DejaVuSans-107"/>
       <use x="239.746094" xlink:href="#DejaVuSans-108"/>
       <use x="267.529297" xlink:href="#DejaVuSans-105"/>
       <use x="295.3125" xlink:href="#DejaVuSans-110"/>
       <use x="358.691406" xlink:href="#DejaVuSans-103"/>
       <use x="422.167969" xlink:href="#DejaVuSans-32"/>
       <use x="453.955078" xlink:href="#DejaVuSans-112"/>
       <use x="517.431641" xlink:href="#DejaVuSans-108"/>
       <use x="545.214844" xlink:href="#DejaVuSans-97"/>
       <use x="606.494141" xlink:href="#DejaVuSans-99"/>
       <use x="661.474609" xlink:href="#DejaVuSans-101"/>
      </g>
     </g>
    </g>
    <g id="ytick_5">
     <g id="line2d_14">
      <path clip-path="url(#p4d411edc0e)" d="M 124.416 268.704 
L 446.976 268.704 
" style="fill:none;stroke:#ffffff;stroke-linecap:round;"/>
     </g>
     <g id="text_15">
      <!-- color shading -->
      <defs>
       <path d="M 54.890625 33.015625 
L 54.890625 0 
L 45.90625 0 
L 45.90625 32.71875 
Q 45.90625 40.484375 42.875 44.328125 
Q 39.84375 48.1875 33.796875 48.1875 
Q 26.515625 48.1875 22.3125 43.546875 
Q 18.109375 38.921875 18.109375 30.90625 
L 18.109375 0 
L 9.078125 0 
L 9.078125 75.984375 
L 18.109375 75.984375 
L 18.109375 46.1875 
Q 21.34375 51.125 25.703125 53.5625 
Q 30.078125 56 35.796875 56 
Q 45.21875 56 50.046875 50.171875 
Q 54.890625 44.34375 54.890625 33.015625 
z
" id="DejaVuSans-104"/>
      </defs>
      <g style="fill:#262626;" transform="translate(40.896313 272.883141)scale(0.11 -0.11)">
       <use xlink:href="#DejaVuSans-99"/>
       <use x="54.980469" xlink:href="#DejaVuSans-111"/>
       <use x="116.162109" xlink:href="#DejaVuSans-108"/>
       <use x="143.945312" xlink:href="#DejaVuSans-111"/>
       <use x="205.126953" xlink:href="#DejaVuSans-114"/>
       <use x="246.240234" xlink:href="#DejaVuSans-32"/>
       <use x="278.027344" xlink:href="#DejaVuSans-115"/>
       <use x="330.126953" xlink:href="#DejaVuSans-104"/>
       <use x="393.505859" xlink:href="#DejaVuSans-97"/>
       <use x="454.785156" xlink:href="#DejaVuSans-100"/>
       <use x="518.261719" xlink:href="#DejaVuSans-105"/>
       <use x="546.044922" xlink:href="#DejaVuSans-110"/>
       <use x="609.423828" xlink:href="#DejaVuSans-103"/>
      </g>
     </g>
    </g>
    <g id="ytick_6">
     <g id="line2d_15">
      <path clip-path="url(#p4d411edc0e)" d="M 124.416 260.064 
L 446.976 260.064 
" style="fill:none;stroke:#ffffff;stroke-linecap:round;"/>
     </g>
     <g id="text_16">
      <!-- singeing -->
      <g style="fill:#262626;" transform="translate(68.396313 264.243141)scale(0.11 -0.11)">
       <use xlink:href="#DejaVuSans-115"/>
       <use x="52.099609" xlink:href="#DejaVuSans-105"/>
       <use x="79.882812" xlink:href="#DejaVuSans-110"/>
       <use x="143.261719" xlink:href="#DejaVuSans-103"/>
       <use x="206.738281" xlink:href="#DejaVuSans-101"/>
       <use x="268.261719" xlink:href="#DejaVuSans-105"/>
       <use x="296.044922" xlink:href="#DejaVuSans-110"/>
       <use x="359.423828" xlink:href="#DejaVuSans-103"/>
      </g>
     </g>
    </g>
    <g id="ytick_7">
     <g id="line2d_16">
      <path clip-path="url(#p4d411edc0e)" d="M 124.416 251.424 
L 446.976 251.424 
" style="fill:none;stroke:#ffffff;stroke-linecap:round;"/>
     </g>
     <g id="text_17">
      <!-- bad weft yarn -->
      <defs>
       <path d="M 32.171875 -5.078125 
Q 28.375 -14.84375 24.75 -17.8125 
Q 21.140625 -20.796875 15.09375 -20.796875 
L 7.90625 -20.796875 
L 7.90625 -13.28125 
L 13.1875 -13.28125 
Q 16.890625 -13.28125 18.9375 -11.515625 
Q 21 -9.765625 23.484375 -3.21875 
L 25.09375 0.875 
L 2.984375 54.6875 
L 12.5 54.6875 
L 29.59375 11.921875 
L 46.6875 54.6875 
L 56.203125 54.6875 
z
" id="DejaVuSans-121"/>
      </defs>
      <g style="fill:#262626;" transform="translate(38.907719 255.603141)scale(0.11 -0.11)">
       <use xlink:href="#DejaVuSans-98"/>
       <use x="63.476562" xlink:href="#DejaVuSans-97"/>
       <use x="124.755859" xlink:href="#DejaVuSans-100"/>
       <use x="188.232422" xlink:href="#DejaVuSans-32"/>
       <use x="220.019531" xlink:href="#DejaVuSans-119"/>
       <use x="301.806641" xlink:href="#DejaVuSans-101"/>
       <use x="363.330078" xlink:href="#DejaVuSans-102"/>
       <use x="396.785156" xlink:href="#DejaVuSans-116"/>
       <use x="435.994141" xlink:href="#DejaVuSans-32"/>
       <use x="467.78125" xlink:href="#DejaVuSans-121"/>
       <use x="526.960938" xlink:href="#DejaVuSans-97"/>
       <use x="588.240234" xlink:href="#DejaVuSans-114"/>
       <use x="627.603516" xlink:href="#DejaVuSans-110"/>
      </g>
     </g>
    </g>
    <g id="ytick_8">
     <g id="line2d_17">
      <path clip-path="url(#p4d411edc0e)" d="M 124.416 242.784 
L 446.976 242.784 
" style="fill:none;stroke:#ffffff;stroke-linecap:round;"/>
     </g>
     <g id="text_18">
      <!-- reediness -->
      <g style="fill:#262626;" transform="translate(61.865063 246.963141)scale(0.11 -0.11)">
       <use xlink:href="#DejaVuSans-114"/>
       <use x="38.863281" xlink:href="#DejaVuSans-101"/>
       <use x="100.386719" xlink:href="#DejaVuSans-101"/>
       <use x="161.910156" xlink:href="#DejaVuSans-100"/>
       <use x="225.386719" xlink:href="#DejaVuSans-105"/>
       <use x="253.169922" xlink:href="#DejaVuSans-110"/>
       <use x="316.548828" xlink:href="#DejaVuSans-101"/>
       <use x="378.072266" xlink:href="#DejaVuSans-115"/>
       <use x="430.171875" xlink:href="#DejaVuSans-115"/>
      </g>
     </g>
    </g>
    <g id="ytick_9">
     <g id="line2d_18">
      <path clip-path="url(#p4d411edc0e)" d="M 124.416 234.144 
L 446.976 234.144 
" style="fill:none;stroke:#ffffff;stroke-linecap:round;"/>
     </g>
     <g id="text_19">
      <!-- water stain -->
      <g style="fill:#262626;" transform="translate(53.269594 238.323141)scale(0.11 -0.11)">
       <use xlink:href="#DejaVuSans-119"/>
       <use x="81.787109" xlink:href="#DejaVuSans-97"/>
       <use x="143.066406" xlink:href="#DejaVuSans-116"/>
       <use x="182.275391" xlink:href="#DejaVuSans-101"/>
       <use x="243.798828" xlink:href="#DejaVuSans-114"/>
       <use x="284.912109" xlink:href="#DejaVuSans-32"/>
       <use x="316.699219" xlink:href="#DejaVuSans-115"/>
       <use x="368.798828" xlink:href="#DejaVuSans-116"/>
       <use x="408.007812" xlink:href="#DejaVuSans-97"/>
       <use x="469.287109" xlink:href="#DejaVuSans-105"/>
       <use x="497.070312" xlink:href="#DejaVuSans-110"/>
      </g>
     </g>
    </g>
    <g id="ytick_10">
     <g id="line2d_19">
      <path clip-path="url(#p4d411edc0e)" d="M 124.416 225.504 
L 446.976 225.504 
" style="fill:none;stroke:#ffffff;stroke-linecap:round;"/>
     </g>
     <g id="text_20">
      <!-- smash -->
      <g style="fill:#262626;" transform="translate(79.0285 229.683141)scale(0.11 -0.11)">
       <use xlink:href="#DejaVuSans-115"/>
       <use x="52.099609" xlink:href="#DejaVuSans-109"/>
       <use x="149.511719" xlink:href="#DejaVuSans-97"/>
       <use x="210.791016" xlink:href="#DejaVuSans-115"/>
       <use x="262.890625" xlink:href="#DejaVuSans-104"/>
      </g>
     </g>
    </g>
    <g id="ytick_11">
     <g id="line2d_20">
      <path clip-path="url(#p4d411edc0e)" d="M 124.416 216.864 
L 446.976 216.864 
" style="fill:none;stroke:#ffffff;stroke-linecap:round;"/>
     </g>
     <g id="text_21">
      <!-- skips -->
      <g style="fill:#262626;" transform="translate(87.046469 221.043141)scale(0.11 -0.11)">
       <use xlink:href="#DejaVuSans-115"/>
       <use x="52.099609" xlink:href="#DejaVuSans-107"/>
       <use x="110.009766" xlink:href="#DejaVuSans-105"/>
       <use x="137.792969" xlink:href="#DejaVuSans-112"/>
       <use x="201.269531" xlink:href="#DejaVuSans-115"/>
      </g>
     </g>
    </g>
    <g id="ytick_12">
     <g id="line2d_21">
      <path clip-path="url(#p4d411edc0e)" d="M 124.416 208.224 
L 446.976 208.224 
" style="fill:none;stroke:#ffffff;stroke-linecap:round;"/>
     </g>
     <g id="text_22">
      <!-- felter -->
      <g style="fill:#262626;" transform="translate(85.616469 212.403141)scale(0.11 -0.11)">
       <use xlink:href="#DejaVuSans-102"/>
       <use x="35.205078" xlink:href="#DejaVuSans-101"/>
       <use x="96.728516" xlink:href="#DejaVuSans-108"/>
       <use x="124.511719" xlink:href="#DejaVuSans-116"/>
       <use x="163.720703" xlink:href="#DejaVuSans-101"/>
       <use x="225.244141" xlink:href="#DejaVuSans-114"/>
      </g>
     </g>
    </g>
    <g id="ytick_13">
     <g id="line2d_22">
      <path clip-path="url(#p4d411edc0e)" d="M 124.416 199.584 
L 446.976 199.584 
" style="fill:none;stroke:#ffffff;stroke-linecap:round;"/>
     </g>
     <g id="text_23">
      <!-- oil stain -->
      <g style="fill:#262626;" transform="translate(71.766781 203.763141)scale(0.11 -0.11)">
       <use xlink:href="#DejaVuSans-111"/>
       <use x="61.181641" xlink:href="#DejaVuSans-105"/>
       <use x="88.964844" xlink:href="#DejaVuSans-108"/>
       <use x="116.748047" xlink:href="#DejaVuSans-32"/>
       <use x="148.535156" xlink:href="#DejaVuSans-115"/>
       <use x="200.634766" xlink:href="#DejaVuSans-116"/>
       <use x="239.84375" xlink:href="#DejaVuSans-97"/>
       <use x="301.123047" xlink:href="#DejaVuSans-105"/>
       <use x="328.90625" xlink:href="#DejaVuSans-110"/>
      </g>
     </g>
    </g>
    <g id="ytick_14">
     <g id="line2d_23">
      <path clip-path="url(#p4d411edc0e)" d="M 124.416 190.944 
L 446.976 190.944 
" style="fill:none;stroke:#ffffff;stroke-linecap:round;"/>
     </g>
     <g id="text_24">
      <!-- crinked -->
      <g style="fill:#262626;" transform="translate(74.595844 195.123141)scale(0.11 -0.11)">
       <use xlink:href="#DejaVuSans-99"/>
       <use x="54.980469" xlink:href="#DejaVuSans-114"/>
       <use x="96.09375" xlink:href="#DejaVuSans-105"/>
       <use x="123.876953" xlink:href="#DejaVuSans-110"/>
       <use x="187.255859" xlink:href="#DejaVuSans-107"/>
       <use x="241.541016" xlink:href="#DejaVuSans-101"/>
       <use x="303.064453" xlink:href="#DejaVuSans-100"/>
      </g>
     </g>
    </g>
    <g id="ytick_15">
     <g id="line2d_24">
      <path clip-path="url(#p4d411edc0e)" d="M 124.416 182.304 
L 446.976 182.304 
" style="fill:none;stroke:#ffffff;stroke-linecap:round;"/>
     </g>
     <g id="text_25">
      <!-- card skip -->
      <g style="fill:#262626;" transform="translate(65.178813 186.483141)scale(0.11 -0.11)">
       <use xlink:href="#DejaVuSans-99"/>
       <use x="54.980469" xlink:href="#DejaVuSans-97"/>
       <use x="116.259766" xlink:href="#DejaVuSans-114"/>
       <use x="155.623047" xlink:href="#DejaVuSans-100"/>
       <use x="219.099609" xlink:href="#DejaVuSans-32"/>
       <use x="250.886719" xlink:href="#DejaVuSans-115"/>
       <use x="302.986328" xlink:href="#DejaVuSans-107"/>
       <use x="360.896484" xlink:href="#DejaVuSans-105"/>
       <use x="388.679688" xlink:href="#DejaVuSans-112"/>
      </g>
     </g>
    </g>
    <g id="ytick_16">
     <g id="line2d_25">
      <path clip-path="url(#p4d411edc0e)" d="M 124.416 173.664 
L 446.976 173.664 
" style="fill:none;stroke:#ffffff;stroke-linecap:round;"/>
     </g>
     <g id="text_26">
      <!-- take marks -->
      <g style="fill:#262626;" transform="translate(53.54975 177.843141)scale(0.11 -0.11)">
       <use xlink:href="#DejaVuSans-116"/>
       <use x="39.208984" xlink:href="#DejaVuSans-97"/>
       <use x="100.488281" xlink:href="#DejaVuSans-107"/>
       <use x="154.773438" xlink:href="#DejaVuSans-101"/>
       <use x="216.296875" xlink:href="#DejaVuSans-32"/>
       <use x="248.083984" xlink:href="#DejaVuSans-109"/>
       <use x="345.496094" xlink:href="#DejaVuSans-97"/>
       <use x="406.775391" xlink:href="#DejaVuSans-114"/>
       <use x="447.888672" xlink:href="#DejaVuSans-107"/>
       <use x="505.798828" xlink:href="#DejaVuSans-115"/>
      </g>
     </g>
    </g>
    <g id="ytick_17">
     <g id="line2d_26">
      <path clip-path="url(#p4d411edc0e)" d="M 124.416 165.024 
L 446.976 165.024 
" style="fill:none;stroke:#ffffff;stroke-linecap:round;"/>
     </g>
     <g id="text_27">
      <!-- buttonhold selvage -->
      <g style="fill:#262626;" transform="translate(8.839906 169.203141)scale(0.11 -0.11)">
       <use xlink:href="#DejaVuSans-98"/>
       <use x="63.476562" xlink:href="#DejaVuSans-117"/>
       <use x="126.855469" xlink:href="#DejaVuSans-116"/>
       <use x="166.064453" xlink:href="#DejaVuSans-116"/>
       <use x="205.273438" xlink:href="#DejaVuSans-111"/>
       <use x="266.455078" xlink:href="#DejaVuSans-110"/>
       <use x="329.833984" xlink:href="#DejaVuSans-104"/>
       <use x="393.212891" xlink:href="#DejaVuSans-111"/>
       <use x="454.394531" xlink:href="#DejaVuSans-108"/>
       <use x="482.177734" xlink:href="#DejaVuSans-100"/>
       <use x="545.654297" xlink:href="#DejaVuSans-32"/>
       <use x="577.441406" xlink:href="#DejaVuSans-115"/>
       <use x="629.541016" xlink:href="#DejaVuSans-101"/>
       <use x="691.064453" xlink:href="#DejaVuSans-108"/>
       <use x="718.847656" xlink:href="#DejaVuSans-118"/>
       <use x="778.027344" xlink:href="#DejaVuSans-97"/>
       <use x="839.306641" xlink:href="#DejaVuSans-103"/>
       <use x="902.783203" xlink:href="#DejaVuSans-101"/>
      </g>
     </g>
    </g>
    <g id="ytick_18">
     <g id="line2d_27">
      <path clip-path="url(#p4d411edc0e)" d="M 124.416 156.384 
L 446.976 156.384 
" style="fill:none;stroke:#ffffff;stroke-linecap:round;"/>
     </g>
     <g id="text_28">
      <!-- mispick -->
      <g style="fill:#262626;" transform="translate(72.957875 160.563141)scale(0.11 -0.11)">
       <use xlink:href="#DejaVuSans-109"/>
       <use x="97.412109" xlink:href="#DejaVuSans-105"/>
       <use x="125.195312" xlink:href="#DejaVuSans-115"/>
       <use x="177.294922" xlink:href="#DejaVuSans-112"/>
       <use x="240.771484" xlink:href="#DejaVuSans-105"/>
       <use x="268.554688" xlink:href="#DejaVuSans-99"/>
       <use x="323.535156" xlink:href="#DejaVuSans-107"/>
      </g>
     </g>
    </g>
    <g id="ytick_19">
     <g id="line2d_28">
      <path clip-path="url(#p4d411edc0e)" d="M 124.416 147.744 
L 446.976 147.744 
" style="fill:none;stroke:#ffffff;stroke-linecap:round;"/>
     </g>
     <g id="text_29">
      <!-- card neps -->
      <g style="fill:#262626;" transform="translate(60.86475 151.923141)scale(0.11 -0.11)">
       <use xlink:href="#DejaVuSans-99"/>
       <use x="54.980469" xlink:href="#DejaVuSans-97"/>
       <use x="116.259766" xlink:href="#DejaVuSans-114"/>
       <use x="155.623047" xlink:href="#DejaVuSans-100"/>
       <use x="219.099609" xlink:href="#DejaVuSans-32"/>
       <use x="250.886719" xlink:href="#DejaVuSans-110"/>
       <use x="314.265625" xlink:href="#DejaVuSans-101"/>
       <use x="375.789062" xlink:href="#DejaVuSans-112"/>
       <use x="439.265625" xlink:href="#DejaVuSans-115"/>
      </g>
     </g>
    </g>
    <g id="ytick_20">
     <g id="line2d_29">
      <path clip-path="url(#p4d411edc0e)" d="M 124.416 139.104 
L 446.976 139.104 
" style="fill:none;stroke:#ffffff;stroke-linecap:round;"/>
     </g>
     <g id="text_30">
      <!-- roll marks -->
      <g style="fill:#262626;" transform="translate(60.225375 143.283141)scale(0.11 -0.11)">
       <use xlink:href="#DejaVuSans-114"/>
       <use x="38.863281" xlink:href="#DejaVuSans-111"/>
       <use x="100.044922" xlink:href="#DejaVuSans-108"/>
       <use x="127.828125" xlink:href="#DejaVuSans-108"/>
       <use x="155.611328" xlink:href="#DejaVuSans-32"/>
       <use x="187.398438" xlink:href="#DejaVuSans-109"/>
       <use x="284.810547" xlink:href="#DejaVuSans-97"/>
       <use x="346.089844" xlink:href="#DejaVuSans-114"/>
       <use x="387.203125" xlink:href="#DejaVuSans-107"/>
       <use x="445.113281" xlink:href="#DejaVuSans-115"/>
      </g>
     </g>
    </g>
    <g id="ytick_21">
     <g id="line2d_30">
      <path clip-path="url(#p4d411edc0e)" d="M 124.416 130.464 
L 446.976 130.464 
" style="fill:none;stroke:#ffffff;stroke-linecap:round;"/>
     </g>
     <g id="text_31">
      <!-- coarse end -->
      <g style="fill:#262626;" transform="translate(54.156469 134.643141)scale(0.11 -0.11)">
       <use xlink:href="#DejaVuSans-99"/>
       <use x="54.980469" xlink:href="#DejaVuSans-111"/>
       <use x="116.162109" xlink:href="#DejaVuSans-97"/>
       <use x="177.441406" xlink:href="#DejaVuSans-114"/>
       <use x="218.554688" xlink:href="#DejaVuSans-115"/>
       <use x="270.654297" xlink:href="#DejaVuSans-101"/>
       <use x="332.177734" xlink:href="#DejaVuSans-32"/>
       <use x="363.964844" xlink:href="#DejaVuSans-101"/>
       <use x="425.488281" xlink:href="#DejaVuSans-110"/>
       <use x="488.867188" xlink:href="#DejaVuSans-100"/>
      </g>
     </g>
    </g>
    <g id="ytick_22">
     <g id="line2d_31">
      <path clip-path="url(#p4d411edc0e)" d="M 124.416 121.824 
L 446.976 121.824 
" style="fill:none;stroke:#ffffff;stroke-linecap:round;"/>
     </g>
     <g id="text_32">
      <!-- stitch -->
      <g style="fill:#262626;" transform="translate(84.485531 126.003141)scale(0.11 -0.11)">
       <use xlink:href="#DejaVuSans-115"/>
       <use x="52.099609" xlink:href="#DejaVuSans-116"/>
       <use x="91.308594" xlink:href="#DejaVuSans-105"/>
       <use x="119.091797" xlink:href="#DejaVuSans-116"/>
       <use x="158.300781" xlink:href="#DejaVuSans-99"/>
       <use x="213.28125" xlink:href="#DejaVuSans-104"/>
      </g>
     </g>
    </g>
    <g id="ytick_23">
     <g id="line2d_32">
      <path clip-path="url(#p4d411edc0e)" d="M 124.416 113.184 
L 446.976 113.184 
" style="fill:none;stroke:#ffffff;stroke-linecap:round;"/>
     </g>
     <g id="text_33">
      <!-- soiled -->
      <g style="fill:#262626;" transform="translate(82.591469 117.363141)scale(0.11 -0.11)">
       <use xlink:href="#DejaVuSans-115"/>
       <use x="52.099609" xlink:href="#DejaVuSans-111"/>
       <use x="113.28125" xlink:href="#DejaVuSans-105"/>
       <use x="141.064453" xlink:href="#DejaVuSans-108"/>
       <use x="168.847656" xlink:href="#DejaVuSans-101"/>
       <use x="230.371094" xlink:href="#DejaVuSans-100"/>
      </g>
     </g>
    </g>
    <g id="ytick_24">
     <g id="line2d_33">
      <path clip-path="url(#p4d411edc0e)" d="M 124.416 104.544 
L 446.976 104.544 
" style="fill:none;stroke:#ffffff;stroke-linecap:round;"/>
     </g>
     <g id="text_34">
      <!-- thin thick place -->
      <g style="fill:#262626;" transform="translate(30.258969 108.723141)scale(0.11 -0.11)">
       <use xlink:href="#DejaVuSans-116"/>
       <use x="39.208984" xlink:href="#DejaVuSans-104"/>
       <use x="102.587891" xlink:href="#DejaVuSans-105"/>
       <use x="130.371094" xlink:href="#DejaVuSans-110"/>
       <use x="193.75" xlink:href="#DejaVuSans-32"/>
       <use x="225.537109" xlink:href="#DejaVuSans-116"/>
       <use x="264.746094" xlink:href="#DejaVuSans-104"/>
       <use x="328.125" xlink:href="#DejaVuSans-105"/>
       <use x="355.908203" xlink:href="#DejaVuSans-99"/>
       <use x="410.888672" xlink:href="#DejaVuSans-107"/>
       <use x="468.798828" xlink:href="#DejaVuSans-32"/>
       <use x="500.585938" xlink:href="#DejaVuSans-112"/>
       <use x="564.0625" xlink:href="#DejaVuSans-108"/>
       <use x="591.845703" xlink:href="#DejaVuSans-97"/>
       <use x="653.125" xlink:href="#DejaVuSans-99"/>
       <use x="708.105469" xlink:href="#DejaVuSans-101"/>
      </g>
     </g>
    </g>
    <g id="ytick_25">
     <g id="line2d_34">
      <path clip-path="url(#p4d411edc0e)" d="M 124.416 95.904 
L 446.976 95.904 
" style="fill:none;stroke:#ffffff;stroke-linecap:round;"/>
     </g>
     <g id="text_35">
      <!-- cracked ends -->
      <g style="fill:#262626;" transform="translate(41.884594 100.083141)scale(0.11 -0.11)">
       <use xlink:href="#DejaVuSans-99"/>
       <use x="54.980469" xlink:href="#DejaVuSans-114"/>
       <use x="96.09375" xlink:href="#DejaVuSans-97"/>
       <use x="157.373047" xlink:href="#DejaVuSans-99"/>
       <use x="212.353516" xlink:href="#DejaVuSans-107"/>
       <use x="266.638672" xlink:href="#DejaVuSans-101"/>
       <use x="328.162109" xlink:href="#DejaVuSans-100"/>
       <use x="391.638672" xlink:href="#DejaVuSans-32"/>
       <use x="423.425781" xlink:href="#DejaVuSans-101"/>
       <use x="484.949219" xlink:href="#DejaVuSans-110"/>
       <use x="548.328125" xlink:href="#DejaVuSans-100"/>
       <use x="611.804688" xlink:href="#DejaVuSans-115"/>
      </g>
     </g>
    </g>
    <g id="ytick_26">
     <g id="line2d_35">
      <path clip-path="url(#p4d411edc0e)" d="M 124.416 87.264 
L 446.976 87.264 
" style="fill:none;stroke:#ffffff;stroke-linecap:round;"/>
     </g>
     <g id="text_36">
      <!-- hole -->
      <g style="fill:#262626;" transform="translate(91.38975 91.443141)scale(0.11 -0.11)">
       <use xlink:href="#DejaVuSans-104"/>
       <use x="63.378906" xlink:href="#DejaVuSans-111"/>
       <use x="124.560547" xlink:href="#DejaVuSans-108"/>
       <use x="152.34375" xlink:href="#DejaVuSans-101"/>
      </g>
     </g>
    </g>
    <g id="ytick_27">
     <g id="line2d_36">
      <path clip-path="url(#p4d411edc0e)" d="M 124.416 78.624 
L 446.976 78.624 
" style="fill:none;stroke:#ffffff;stroke-linecap:round;"/>
     </g>
     <g id="text_37">
      <!-- hard size -->
      <defs>
       <path d="M 5.515625 54.6875 
L 48.1875 54.6875 
L 48.1875 46.484375 
L 14.40625 7.171875 
L 48.1875 7.171875 
L 48.1875 0 
L 4.296875 0 
L 4.296875 8.203125 
L 38.09375 47.515625 
L 5.515625 47.515625 
z
" id="DejaVuSans-122"/>
      </defs>
      <g style="fill:#262626;" transform="translate(65.067094 82.803141)scale(0.11 -0.11)">
       <use xlink:href="#DejaVuSans-104"/>
       <use x="63.378906" xlink:href="#DejaVuSans-97"/>
       <use x="124.658203" xlink:href="#DejaVuSans-114"/>
       <use x="164.021484" xlink:href="#DejaVuSans-100"/>
       <use x="227.498047" xlink:href="#DejaVuSans-32"/>
       <use x="259.285156" xlink:href="#DejaVuSans-115"/>
       <use x="311.384766" xlink:href="#DejaVuSans-105"/>
       <use x="339.167969" xlink:href="#DejaVuSans-122"/>
       <use x="391.658203" xlink:href="#DejaVuSans-101"/>
      </g>
     </g>
    </g>
    <g id="ytick_28">
     <g id="line2d_37">
      <path clip-path="url(#p4d411edc0e)" d="M 124.416 69.984 
L 446.976 69.984 
" style="fill:none;stroke:#ffffff;stroke-linecap:round;"/>
     </g>
     <g id="text_38">
      <!-- loose warp -->
      <g style="fill:#262626;" transform="translate(55.161938 74.163141)scale(0.11 -0.11)">
       <use xlink:href="#DejaVuSans-108"/>
       <use x="27.783203" xlink:href="#DejaVuSans-111"/>
       <use x="88.964844" xlink:href="#DejaVuSans-111"/>
       <use x="150.146484" xlink:href="#DejaVuSans-115"/>
       <use x="202.246094" xlink:href="#DejaVuSans-101"/>
       <use x="263.769531" xlink:href="#DejaVuSans-32"/>
       <use x="295.556641" xlink:href="#DejaVuSans-119"/>
       <use x="377.34375" xlink:href="#DejaVuSans-97"/>
       <use x="438.623047" xlink:href="#DejaVuSans-114"/>
       <use x="479.736328" xlink:href="#DejaVuSans-112"/>
      </g>
     </g>
    </g>
    <g id="ytick_29">
     <g id="line2d_38">
      <path clip-path="url(#p4d411edc0e)" d="M 124.416 61.344 
L 446.976 61.344 
" style="fill:none;stroke:#ffffff;stroke-linecap:round;"/>
     </g>
     <g id="text_39">
      <!-- looped weft -->
      <g style="fill:#262626;" transform="translate(50.411313 65.523141)scale(0.11 -0.11)">
       <use xlink:href="#DejaVuSans-108"/>
       <use x="27.783203" xlink:href="#DejaVuSans-111"/>
       <use x="88.964844" xlink:href="#DejaVuSans-111"/>
       <use x="150.146484" xlink:href="#DejaVuSans-112"/>
       <use x="213.623047" xlink:href="#DejaVuSans-101"/>
       <use x="275.146484" xlink:href="#DejaVuSans-100"/>
       <use x="338.623047" xlink:href="#DejaVuSans-32"/>
       <use x="370.410156" xlink:href="#DejaVuSans-119"/>
       <use x="452.197266" xlink:href="#DejaVuSans-101"/>
       <use x="513.720703" xlink:href="#DejaVuSans-102"/>
       <use x="547.175781" xlink:href="#DejaVuSans-116"/>
      </g>
     </g>
    </g>
    <g id="ytick_30">
     <g id="line2d_39">
      <path clip-path="url(#p4d411edc0e)" d="M 124.416 52.704 
L 446.976 52.704 
" style="fill:none;stroke:#ffffff;stroke-linecap:round;"/>
     </g>
     <g id="text_40">
      <!-- warping knot -->
      <g style="fill:#262626;" transform="translate(42.7835 56.883141)scale(0.11 -0.11)">
       <use xlink:href="#DejaVuSans-119"/>
       <use x="81.787109" xlink:href="#DejaVuSans-97"/>
       <use x="143.066406" xlink:href="#DejaVuSans-114"/>
       <use x="184.179688" xlink:href="#DejaVuSans-112"/>
       <use x="247.65625" xlink:href="#DejaVuSans-105"/>
       <use x="275.439453" xlink:href="#DejaVuSans-110"/>
       <use x="338.818359" xlink:href="#DejaVuSans-103"/>
       <use x="402.294922" xlink:href="#DejaVuSans-32"/>
       <use x="434.082031" xlink:href="#DejaVuSans-107"/>
       <use x="491.992188" xlink:href="#DejaVuSans-110"/>
       <use x="555.371094" xlink:href="#DejaVuSans-111"/>
       <use x="616.552734" xlink:href="#DejaVuSans-116"/>
      </g>
     </g>
    </g>
    <g id="ytick_31">
     <g id="line2d_40">
      <path clip-path="url(#p4d411edc0e)" d="M 124.416 44.064 
L 446.976 44.064 
" style="fill:none;stroke:#ffffff;stroke-linecap:round;"/>
     </g>
     <g id="text_41">
      <!-- broken spandex -->
      <defs>
       <path d="M 54.890625 54.6875 
L 35.109375 28.078125 
L 55.90625 0 
L 45.3125 0 
L 29.390625 21.484375 
L 13.484375 0 
L 2.875 0 
L 24.125 28.609375 
L 4.6875 54.6875 
L 15.28125 54.6875 
L 29.78125 35.203125 
L 44.28125 54.6875 
z
" id="DejaVuSans-120"/>
      </defs>
      <g style="fill:#262626;" transform="translate(27.225375 48.243141)scale(0.11 -0.11)">
       <use xlink:href="#DejaVuSans-98"/>
       <use x="63.476562" xlink:href="#DejaVuSans-114"/>
       <use x="102.339844" xlink:href="#DejaVuSans-111"/>
       <use x="163.521484" xlink:href="#DejaVuSans-107"/>
       <use x="217.806641" xlink:href="#DejaVuSans-101"/>
       <use x="279.330078" xlink:href="#DejaVuSans-110"/>
       <use x="342.708984" xlink:href="#DejaVuSans-32"/>
       <use x="374.496094" xlink:href="#DejaVuSans-115"/>
       <use x="426.595703" xlink:href="#DejaVuSans-112"/>
       <use x="490.072266" xlink:href="#DejaVuSans-97"/>
       <use x="551.351562" xlink:href="#DejaVuSans-110"/>
       <use x="614.730469" xlink:href="#DejaVuSans-100"/>
       <use x="678.207031" xlink:href="#DejaVuSans-101"/>
       <use x="737.980469" xlink:href="#DejaVuSans-120"/>
      </g>
     </g>
    </g>
    <g id="ytick_32">
     <g id="line2d_41">
      <path clip-path="url(#p4d411edc0e)" d="M 124.416 35.424 
L 446.976 35.424 
" style="fill:none;stroke:#ffffff;stroke-linecap:round;"/>
     </g>
     <g id="text_42">
      <!-- coarse picks -->
      <g style="fill:#262626;" transform="translate(46.691938 39.603141)scale(0.11 -0.11)">
       <use xlink:href="#DejaVuSans-99"/>
       <use x="54.980469" xlink:href="#DejaVuSans-111"/>
       <use x="116.162109" xlink:href="#DejaVuSans-97"/>
       <use x="177.441406" xlink:href="#DejaVuSans-114"/>
       <use x="218.554688" xlink:href="#DejaVuSans-115"/>
       <use x="270.654297" xlink:href="#DejaVuSans-101"/>
       <use x="332.177734" xlink:href="#DejaVuSans-32"/>
       <use x="363.964844" xlink:href="#DejaVuSans-112"/>
       <use x="427.441406" xlink:href="#DejaVuSans-105"/>
       <use x="455.224609" xlink:href="#DejaVuSans-99"/>
       <use x="510.205078" xlink:href="#DejaVuSans-107"/>
       <use x="568.115234" xlink:href="#DejaVuSans-115"/>
      </g>
     </g>
    </g>
    <g id="ytick_33">
     <g id="line2d_42">
      <path clip-path="url(#p4d411edc0e)" d="M 124.416 26.784 
L 446.976 26.784 
" style="fill:none;stroke:#ffffff;stroke-linecap:round;"/>
     </g>
     <g id="text_43">
      <!-- three silk -->
      <g style="fill:#262626;" transform="translate(64.113188 30.963141)scale(0.11 -0.11)">
       <use xlink:href="#DejaVuSans-116"/>
       <use x="39.208984" xlink:href="#DejaVuSans-104"/>
       <use x="102.587891" xlink:href="#DejaVuSans-114"/>
       <use x="141.451172" xlink:href="#DejaVuSans-101"/>
       <use x="202.974609" xlink:href="#DejaVuSans-101"/>
       <use x="264.498047" xlink:href="#DejaVuSans-32"/>
       <use x="296.285156" xlink:href="#DejaVuSans-115"/>
       <use x="348.384766" xlink:href="#DejaVuSans-105"/>
       <use x="376.167969" xlink:href="#DejaVuSans-108"/>
       <use x="403.951172" xlink:href="#DejaVuSans-107"/>
      </g>
     </g>
    </g>
    <g id="ytick_34">
     <g id="line2d_43">
      <path clip-path="url(#p4d411edc0e)" d="M 124.416 18.144 
L 446.976 18.144 
" style="fill:none;stroke:#ffffff;stroke-linecap:round;"/>
     </g>
     <g id="text_44">
      <!-- knots -->
      <g style="fill:#262626;" transform="translate(84.801781 22.323141)scale(0.11 -0.11)">
       <use xlink:href="#DejaVuSans-107"/>
       <use x="57.910156" xlink:href="#DejaVuSans-110"/>
       <use x="121.289062" xlink:href="#DejaVuSans-111"/>
       <use x="182.470703" xlink:href="#DejaVuSans-116"/>
       <use x="221.679688" xlink:href="#DejaVuSans-115"/>
      </g>
     </g>
    </g>
   </g>
   <g id="patch_3">
    <path clip-path="url(#p4d411edc0e)" d="M 124.416 305.424 
L 125.262493 305.424 
L 125.262493 301.104 
L 124.416 301.104 
z
" style="fill:#4c72b0;stroke:#ffffff;stroke-linejoin:miter;"/>
   </g>
   <g id="patch_4">
    <path clip-path="url(#p4d411edc0e)" d="M 124.416 296.784 
L 125.339447 296.784 
L 125.339447 292.464 
L 124.416 292.464 
z
" style="fill:#4c72b0;stroke:#ffffff;stroke-linejoin:miter;"/>
   </g>
   <g id="patch_5">
    <path clip-path="url(#p4d411edc0e)" d="M 124.416 288.144 
L 125.878124 288.144 
L 125.878124 283.824 
L 124.416 283.824 
z
" style="fill:#4c72b0;stroke:#ffffff;stroke-linejoin:miter;"/>
   </g>
   <g id="patch_6">
    <path clip-path="url(#p4d411edc0e)" d="M 124.416 279.504 
L 127.186341 279.504 
L 127.186341 275.184 
L 124.416 275.184 
z
" style="fill:#4c72b0;stroke:#ffffff;stroke-linejoin:miter;"/>
   </g>
   <g id="patch_7">
    <path clip-path="url(#p4d411edc0e)" d="M 124.416 270.864 
L 127.878926 270.864 
L 127.878926 266.544 
L 124.416 266.544 
z
" style="fill:#4c72b0;stroke:#ffffff;stroke-linejoin:miter;"/>
   </g>
   <g id="patch_8">
    <path clip-path="url(#p4d411edc0e)" d="M 124.416 262.224 
L 128.263695 262.224 
L 128.263695 257.904 
L 124.416 257.904 
z
" style="fill:#4c72b0;stroke:#ffffff;stroke-linejoin:miter;"/>
   </g>
   <g id="patch_9">
    <path clip-path="url(#p4d411edc0e)" d="M 124.416 253.584 
L 128.725419 253.584 
L 128.725419 249.264 
L 124.416 249.264 
z
" style="fill:#4c72b0;stroke:#ffffff;stroke-linejoin:miter;"/>
   </g>
   <g id="patch_10">
    <path clip-path="url(#p4d411edc0e)" d="M 124.416 244.944 
L 129.34105 244.944 
L 129.34105 240.624 
L 124.416 240.624 
z
" style="fill:#4c72b0;stroke:#ffffff;stroke-linejoin:miter;"/>
   </g>
   <g id="patch_11">
    <path clip-path="url(#p4d411edc0e)" d="M 124.416 236.304 
L 129.72582 236.304 
L 129.72582 231.984 
L 124.416 231.984 
z
" style="fill:#4c72b0;stroke:#ffffff;stroke-linejoin:miter;"/>
   </g>
   <g id="patch_12">
    <path clip-path="url(#p4d411edc0e)" d="M 124.416 227.664 
L 130.110589 227.664 
L 130.110589 223.344 
L 124.416 223.344 
z
" style="fill:#4c72b0;stroke:#ffffff;stroke-linejoin:miter;"/>
   </g>
   <g id="patch_13">
    <path clip-path="url(#p4d411edc0e)" d="M 124.416 219.024 
L 130.418405 219.024 
L 130.418405 214.704 
L 124.416 214.704 
z
" style="fill:#4c72b0;stroke:#ffffff;stroke-linejoin:miter;"/>
   </g>
   <g id="patch_14">
    <path clip-path="url(#p4d411edc0e)" d="M 124.416 210.384 
L 132.034437 210.384 
L 132.034437 206.064 
L 124.416 206.064 
z
" style="fill:#4c72b0;stroke:#ffffff;stroke-linejoin:miter;"/>
   </g>
   <g id="patch_15">
    <path clip-path="url(#p4d411edc0e)" d="M 124.416 201.744 
L 132.034437 201.744 
L 132.034437 197.424 
L 124.416 197.424 
z
" style="fill:#4c72b0;stroke:#ffffff;stroke-linejoin:miter;"/>
   </g>
   <g id="patch_16">
    <path clip-path="url(#p4d411edc0e)" d="M 124.416 193.104 
L 132.111391 193.104 
L 132.111391 188.784 
L 124.416 188.784 
z
" style="fill:#4c72b0;stroke:#ffffff;stroke-linejoin:miter;"/>
   </g>
   <g id="patch_17">
    <path clip-path="url(#p4d411edc0e)" d="M 124.416 184.464 
L 134.727824 184.464 
L 134.727824 180.144 
L 124.416 180.144 
z
" style="fill:#4c72b0;stroke:#ffffff;stroke-linejoin:miter;"/>
   </g>
   <g id="patch_18">
    <path clip-path="url(#p4d411edc0e)" d="M 124.416 175.824 
L 135.805178 175.824 
L 135.805178 171.504 
L 124.416 171.504 
z
" style="fill:#4c72b0;stroke:#ffffff;stroke-linejoin:miter;"/>
   </g>
   <g id="patch_19">
    <path clip-path="url(#p4d411edc0e)" d="M 124.416 167.184 
L 136.728625 167.184 
L 136.728625 162.864 
L 124.416 162.864 
z
" style="fill:#4c72b0;stroke:#ffffff;stroke-linejoin:miter;"/>
   </g>
   <g id="patch_20">
    <path clip-path="url(#p4d411edc0e)" d="M 124.416 158.544 
L 136.805579 158.544 
L 136.805579 154.224 
L 124.416 154.224 
z
" style="fill:#4c72b0;stroke:#ffffff;stroke-linejoin:miter;"/>
   </g>
   <g id="patch_21">
    <path clip-path="url(#p4d411edc0e)" d="M 124.416 149.904 
L 139.422012 149.904 
L 139.422012 145.584 
L 124.416 145.584 
z
" style="fill:#4c72b0;stroke:#ffffff;stroke-linejoin:miter;"/>
   </g>
   <g id="patch_22">
    <path clip-path="url(#p4d411edc0e)" d="M 124.416 141.264 
L 139.652874 141.264 
L 139.652874 136.944 
L 124.416 136.944 
z
" style="fill:#4c72b0;stroke:#ffffff;stroke-linejoin:miter;"/>
   </g>
   <g id="patch_23">
    <path clip-path="url(#p4d411edc0e)" d="M 124.416 132.624 
L 140.807182 132.624 
L 140.807182 128.304 
L 124.416 128.304 
z
" style="fill:#4c72b0;stroke:#ffffff;stroke-linejoin:miter;"/>
   </g>
   <g id="patch_24">
    <path clip-path="url(#p4d411edc0e)" d="M 124.416 123.984 
L 141.653675 123.984 
L 141.653675 119.664 
L 124.416 119.664 
z
" style="fill:#4c72b0;stroke:#ffffff;stroke-linejoin:miter;"/>
   </g>
   <g id="patch_25">
    <path clip-path="url(#p4d411edc0e)" d="M 124.416 115.344 
L 142.346261 115.344 
L 142.346261 111.024 
L 124.416 111.024 
z
" style="fill:#4c72b0;stroke:#ffffff;stroke-linejoin:miter;"/>
   </g>
   <g id="patch_26">
    <path clip-path="url(#p4d411edc0e)" d="M 124.416 106.704 
L 145.963094 106.704 
L 145.963094 102.384 
L 124.416 102.384 
z
" style="fill:#4c72b0;stroke:#ffffff;stroke-linejoin:miter;"/>
   </g>
   <g id="patch_27">
    <path clip-path="url(#p4d411edc0e)" d="M 124.416 98.064 
L 146.27091 98.064 
L 146.27091 93.744 
L 124.416 93.744 
z
" style="fill:#4c72b0;stroke:#ffffff;stroke-linejoin:miter;"/>
   </g>
   <g id="patch_28">
    <path clip-path="url(#p4d411edc0e)" d="M 124.416 89.424 
L 148.425619 89.424 
L 148.425619 85.104 
L 124.416 85.104 
z
" style="fill:#4c72b0;stroke:#ffffff;stroke-linejoin:miter;"/>
   </g>
   <g id="patch_29">
    <path clip-path="url(#p4d411edc0e)" d="M 124.416 80.784 
L 150.272513 80.784 
L 150.272513 76.464 
L 124.416 76.464 
z
" style="fill:#4c72b0;stroke:#ffffff;stroke-linejoin:miter;"/>
   </g>
   <g id="patch_30">
    <path clip-path="url(#p4d411edc0e)" d="M 124.416 72.144 
L 154.889747 72.144 
L 154.889747 67.824 
L 124.416 67.824 
z
" style="fill:#4c72b0;stroke:#ffffff;stroke-linejoin:miter;"/>
   </g>
   <g id="patch_31">
    <path clip-path="url(#p4d411edc0e)" d="M 124.416 63.504 
L 159.199166 63.504 
L 159.199166 59.184 
L 124.416 59.184 
z
" style="fill:#4c72b0;stroke:#ffffff;stroke-linejoin:miter;"/>
   </g>
   <g id="patch_32">
    <path clip-path="url(#p4d411edc0e)" d="M 124.416 54.864 
L 160.815198 54.864 
L 160.815198 50.544 
L 124.416 50.544 
z
" style="fill:#4c72b0;stroke:#ffffff;stroke-linejoin:miter;"/>
   </g>
   <g id="patch_33">
    <path clip-path="url(#p4d411edc0e)" d="M 124.416 46.224 
L 166.432834 46.224 
L 166.432834 41.904 
L 124.416 41.904 
z
" style="fill:#4c72b0;stroke:#ffffff;stroke-linejoin:miter;"/>
   </g>
   <g id="patch_34">
    <path clip-path="url(#p4d411edc0e)" d="M 124.416 37.584 
L 194.828826 37.584 
L 194.828826 33.264 
L 124.416 33.264 
z
" style="fill:#4c72b0;stroke:#ffffff;stroke-linejoin:miter;"/>
   </g>
   <g id="patch_35">
    <path clip-path="url(#p4d411edc0e)" d="M 124.416 28.944 
L 205.602373 28.944 
L 205.602373 24.624 
L 124.416 24.624 
z
" style="fill:#4c72b0;stroke:#ffffff;stroke-linejoin:miter;"/>
   </g>
   <g id="patch_36">
    <path clip-path="url(#p4d411edc0e)" d="M 124.416 20.304 
L 278.016 20.304 
L 278.016 15.984 
L 124.416 15.984 
z
" style="fill:#4c72b0;stroke:#ffffff;stroke-linejoin:miter;"/>
   </g>
   <g id="patch_37">
    <path clip-path="url(#p4d411edc0e)" d="M 125.262493 305.424 
L 125.80117 305.424 
L 125.80117 301.104 
L 125.262493 301.104 
z
" style="fill:#dd8452;stroke:#ffffff;stroke-linejoin:miter;"/>
   </g>
   <g id="patch_38">
    <path clip-path="url(#p4d411edc0e)" d="M 125.339447 296.784 
L 126.108986 296.784 
L 126.108986 292.464 
L 125.339447 292.464 
z
" style="fill:#dd8452;stroke:#ffffff;stroke-linejoin:miter;"/>
   </g>
   <g id="patch_39">
    <path clip-path="url(#p4d411edc0e)" d="M 125.878124 288.144 
L 126.955479 288.144 
L 126.955479 283.824 
L 125.878124 283.824 
z
" style="fill:#dd8452;stroke:#ffffff;stroke-linejoin:miter;"/>
   </g>
   <g id="patch_40">
    <path clip-path="url(#p4d411edc0e)" d="M 127.186341 279.504 
L 129.187142 279.504 
L 129.187142 275.184 
L 127.186341 275.184 
z
" style="fill:#dd8452;stroke:#ffffff;stroke-linejoin:miter;"/>
   </g>
   <g id="patch_41">
    <path clip-path="url(#p4d411edc0e)" d="M 127.878926 270.864 
L 130.264497 270.864 
L 130.264497 266.544 
L 127.878926 266.544 
z
" style="fill:#dd8452;stroke:#ffffff;stroke-linejoin:miter;"/>
   </g>
   <g id="patch_42">
    <path clip-path="url(#p4d411edc0e)" d="M 128.263695 262.224 
L 131.341852 262.224 
L 131.341852 257.904 
L 128.263695 257.904 
z
" style="fill:#dd8452;stroke:#ffffff;stroke-linejoin:miter;"/>
   </g>
   <g id="patch_43">
    <path clip-path="url(#p4d411edc0e)" d="M 128.725419 253.584 
L 132.650068 253.584 
L 132.650068 249.264 
L 128.725419 249.264 
z
" style="fill:#dd8452;stroke:#ffffff;stroke-linejoin:miter;"/>
   </g>
   <g id="patch_44">
    <path clip-path="url(#p4d411edc0e)" d="M 129.34105 244.944 
L 133.265699 244.944 
L 133.265699 240.624 
L 129.34105 240.624 
z
" style="fill:#dd8452;stroke:#ffffff;stroke-linejoin:miter;"/>
   </g>
   <g id="patch_45">
    <path clip-path="url(#p4d411edc0e)" d="M 129.72582 236.304 
L 133.496561 236.304 
L 133.496561 231.984 
L 129.72582 231.984 
z
" style="fill:#dd8452;stroke:#ffffff;stroke-linejoin:miter;"/>
   </g>
   <g id="patch_46">
    <path clip-path="url(#p4d411edc0e)" d="M 130.110589 227.664 
L 135.189547 227.664 
L 135.189547 223.344 
L 130.110589 223.344 
z
" style="fill:#dd8452;stroke:#ffffff;stroke-linejoin:miter;"/>
   </g>
   <g id="patch_47">
    <path clip-path="url(#p4d411edc0e)" d="M 130.418405 219.024 
L 135.343455 219.024 
L 135.343455 214.704 
L 130.418405 214.704 
z
" style="fill:#dd8452;stroke:#ffffff;stroke-linejoin:miter;"/>
   </g>
   <g id="patch_48">
    <path clip-path="url(#p4d411edc0e)" d="M 132.034437 210.384 
L 138.498565 210.384 
L 138.498565 206.064 
L 132.034437 206.064 
z
" style="fill:#dd8452;stroke:#ffffff;stroke-linejoin:miter;"/>
   </g>
   <g id="patch_49">
    <path clip-path="url(#p4d411edc0e)" d="M 132.034437 201.744 
L 137.80598 201.744 
L 137.80598 197.424 
L 132.034437 197.424 
z
" style="fill:#dd8452;stroke:#ffffff;stroke-linejoin:miter;"/>
   </g>
   <g id="patch_50">
    <path clip-path="url(#p4d411edc0e)" d="M 132.111391 193.104 
L 137.882934 193.104 
L 137.882934 188.784 
L 132.111391 188.784 
z
" style="fill:#dd8452;stroke:#ffffff;stroke-linejoin:miter;"/>
   </g>
   <g id="patch_51">
    <path clip-path="url(#p4d411edc0e)" d="M 134.727824 184.464 
L 142.884938 184.464 
L 142.884938 180.144 
L 134.727824 180.144 
z
" style="fill:#dd8452;stroke:#ffffff;stroke-linejoin:miter;"/>
   </g>
   <g id="patch_52">
    <path clip-path="url(#p4d411edc0e)" d="M 135.805178 175.824 
L 144.731832 175.824 
L 144.731832 171.504 
L 135.805178 171.504 
z
" style="fill:#dd8452;stroke:#ffffff;stroke-linejoin:miter;"/>
   </g>
   <g id="patch_53">
    <path clip-path="url(#p4d411edc0e)" d="M 136.728625 167.184 
L 146.963495 167.184 
L 146.963495 162.864 
L 136.728625 162.864 
z
" style="fill:#dd8452;stroke:#ffffff;stroke-linejoin:miter;"/>
   </g>
   <g id="patch_54">
    <path clip-path="url(#p4d411edc0e)" d="M 136.805579 158.544 
L 146.886541 158.544 
L 146.886541 154.224 
L 136.805579 154.224 
z
" style="fill:#dd8452;stroke:#ffffff;stroke-linejoin:miter;"/>
   </g>
   <g id="patch_55">
    <path clip-path="url(#p4d411edc0e)" d="M 139.422012 149.904 
L 151.580729 149.904 
L 151.580729 145.584 
L 139.422012 145.584 
z
" style="fill:#dd8452;stroke:#ffffff;stroke-linejoin:miter;"/>
   </g>
   <g id="patch_56">
    <path clip-path="url(#p4d411edc0e)" d="M 139.652874 141.264 
L 151.734637 141.264 
L 151.734637 136.944 
L 139.652874 136.944 
z
" style="fill:#dd8452;stroke:#ffffff;stroke-linejoin:miter;"/>
   </g>
   <g id="patch_57">
    <path clip-path="url(#p4d411edc0e)" d="M 140.807182 132.624 
L 154.043255 132.624 
L 154.043255 128.304 
L 140.807182 128.304 
z
" style="fill:#dd8452;stroke:#ffffff;stroke-linejoin:miter;"/>
   </g>
   <g id="patch_58">
    <path clip-path="url(#p4d411edc0e)" d="M 141.653675 123.984 
L 155.890148 123.984 
L 155.890148 119.664 
L 141.653675 119.664 
z
" style="fill:#dd8452;stroke:#ffffff;stroke-linejoin:miter;"/>
   </g>
   <g id="patch_59">
    <path clip-path="url(#p4d411edc0e)" d="M 142.346261 115.344 
L 153.581531 115.344 
L 153.581531 111.024 
L 142.346261 111.024 
z
" style="fill:#dd8452;stroke:#ffffff;stroke-linejoin:miter;"/>
   </g>
   <g id="patch_60">
    <path clip-path="url(#p4d411edc0e)" d="M 145.963094 106.704 
L 164.355078 106.704 
L 164.355078 102.384 
L 145.963094 102.384 
z
" style="fill:#dd8452;stroke:#ffffff;stroke-linejoin:miter;"/>
   </g>
   <g id="patch_61">
    <path clip-path="url(#p4d411edc0e)" d="M 146.27091 98.064 
L 163.970309 98.064 
L 163.970309 93.744 
L 146.27091 93.744 
z
" style="fill:#dd8452;stroke:#ffffff;stroke-linejoin:miter;"/>
   </g>
   <g id="patch_62">
    <path clip-path="url(#p4d411edc0e)" d="M 148.425619 89.424 
L 166.432834 89.424 
L 166.432834 85.104 
L 148.425619 85.104 
z
" style="fill:#dd8452;stroke:#ffffff;stroke-linejoin:miter;"/>
   </g>
   <g id="patch_63">
    <path clip-path="url(#p4d411edc0e)" d="M 150.272513 80.784 
L 170.049667 80.784 
L 170.049667 76.464 
L 150.272513 76.464 
z
" style="fill:#dd8452;stroke:#ffffff;stroke-linejoin:miter;"/>
   </g>
   <g id="patch_64">
    <path clip-path="url(#p4d411edc0e)" d="M 154.889747 72.144 
L 178.514597 72.144 
L 178.514597 67.824 
L 154.889747 67.824 
z
" style="fill:#dd8452;stroke:#ffffff;stroke-linejoin:miter;"/>
   </g>
   <g id="patch_65">
    <path clip-path="url(#p4d411edc0e)" d="M 159.199166 63.504 
L 188.826421 63.504 
L 188.826421 59.184 
L 159.199166 59.184 
z
" style="fill:#dd8452;stroke:#ffffff;stroke-linejoin:miter;"/>
   </g>
   <g id="patch_66">
    <path clip-path="url(#p4d411edc0e)" d="M 160.815198 54.864 
L 190.98113 54.864 
L 190.98113 50.544 
L 160.815198 50.544 
z
" style="fill:#dd8452;stroke:#ffffff;stroke-linejoin:miter;"/>
   </g>
   <g id="patch_67">
    <path clip-path="url(#p4d411edc0e)" d="M 166.432834 46.224 
L 198.445659 46.224 
L 198.445659 41.904 
L 166.432834 41.904 
z
" style="fill:#dd8452;stroke:#ffffff;stroke-linejoin:miter;"/>
   </g>
   <g id="patch_68">
    <path clip-path="url(#p4d411edc0e)" d="M 194.828826 37.584 
L 251.389948 37.584 
L 251.389948 33.264 
L 194.828826 33.264 
z
" style="fill:#dd8452;stroke:#ffffff;stroke-linejoin:miter;"/>
   </g>
   <g id="patch_69">
    <path clip-path="url(#p4d411edc0e)" d="M 205.602373 28.944 
L 271.090148 28.944 
L 271.090148 24.624 
L 205.602373 24.624 
z
" style="fill:#dd8452;stroke:#ffffff;stroke-linejoin:miter;"/>
   </g>
   <g id="patch_70">
    <path clip-path="url(#p4d411edc0e)" d="M 278.016 20.304 
L 399.064497 20.304 
L 399.064497 15.984 
L 278.016 15.984 
z
" style="fill:#dd8452;stroke:#ffffff;stroke-linejoin:miter;"/>
   </g>
   <g id="patch_71">
    <path clip-path="url(#p4d411edc0e)" d="M 125.80117 305.424 
L 126.108986 305.424 
L 126.108986 301.104 
L 125.80117 301.104 
z
" style="fill:#55a868;stroke:#ffffff;stroke-linejoin:miter;"/>
   </g>
   <g id="patch_72">
    <path clip-path="url(#p4d411edc0e)" d="M 126.108986 296.784 
L 126.262894 296.784 
L 126.262894 292.464 
L 126.108986 292.464 
z
" style="fill:#55a868;stroke:#ffffff;stroke-linejoin:miter;"/>
   </g>
   <g id="patch_73">
    <path clip-path="url(#p4d411edc0e)" d="M 126.955479 288.144 
L 127.340248 288.144 
L 127.340248 283.824 
L 126.955479 283.824 
z
" style="fill:#55a868;stroke:#ffffff;stroke-linejoin:miter;"/>
   </g>
   <g id="patch_74">
    <path clip-path="url(#p4d411edc0e)" d="M 129.187142 279.504 
L 129.956681 279.504 
L 129.956681 275.184 
L 129.187142 275.184 
z
" style="fill:#55a868;stroke:#ffffff;stroke-linejoin:miter;"/>
   </g>
   <g id="patch_75">
    <path clip-path="url(#p4d411edc0e)" d="M 130.264497 270.864 
L 131.341852 270.864 
L 131.341852 266.544 
L 130.264497 266.544 
z
" style="fill:#55a868;stroke:#ffffff;stroke-linejoin:miter;"/>
   </g>
   <g id="patch_76">
    <path clip-path="url(#p4d411edc0e)" d="M 131.341852 262.224 
L 132.111391 262.224 
L 132.111391 257.904 
L 131.341852 257.904 
z
" style="fill:#55a868;stroke:#ffffff;stroke-linejoin:miter;"/>
   </g>
   <g id="patch_77">
    <path clip-path="url(#p4d411edc0e)" d="M 132.650068 253.584 
L 133.034838 253.584 
L 133.034838 249.264 
L 132.650068 249.264 
z
" style="fill:#55a868;stroke:#ffffff;stroke-linejoin:miter;"/>
   </g>
   <g id="patch_78">
    <path clip-path="url(#p4d411edc0e)" d="M 133.265699 244.944 
L 134.2661 244.944 
L 134.2661 240.624 
L 133.265699 240.624 
z
" style="fill:#55a868;stroke:#ffffff;stroke-linejoin:miter;"/>
   </g>
   <g id="patch_79">
    <path clip-path="url(#p4d411edc0e)" d="M 133.496561 236.304 
L 135.035639 236.304 
L 135.035639 231.984 
L 133.496561 231.984 
z
" style="fill:#55a868;stroke:#ffffff;stroke-linejoin:miter;"/>
   </g>
   <g id="patch_80">
    <path clip-path="url(#p4d411edc0e)" d="M 135.189547 227.664 
L 135.805178 227.664 
L 135.805178 223.344 
L 135.189547 223.344 
z
" style="fill:#55a868;stroke:#ffffff;stroke-linejoin:miter;"/>
   </g>
   <g id="patch_81">
    <path clip-path="url(#p4d411edc0e)" d="M 135.343455 219.024 
L 136.42081 219.024 
L 136.42081 214.704 
L 135.343455 214.704 
z
" style="fill:#55a868;stroke:#ffffff;stroke-linejoin:miter;"/>
   </g>
   <g id="patch_82">
    <path clip-path="url(#p4d411edc0e)" d="M 138.498565 210.384 
L 139.652874 210.384 
L 139.652874 206.064 
L 138.498565 206.064 
z
" style="fill:#55a868;stroke:#ffffff;stroke-linejoin:miter;"/>
   </g>
   <g id="patch_83">
    <path clip-path="url(#p4d411edc0e)" d="M 137.80598 201.744 
L 139.652874 201.744 
L 139.652874 197.424 
L 137.80598 197.424 
z
" style="fill:#55a868;stroke:#ffffff;stroke-linejoin:miter;"/>
   </g>
   <g id="patch_84">
    <path clip-path="url(#p4d411edc0e)" d="M 137.882934 193.104 
L 139.806782 193.104 
L 139.806782 188.784 
L 137.882934 188.784 
z
" style="fill:#55a868;stroke:#ffffff;stroke-linejoin:miter;"/>
   </g>
   <g id="patch_85">
    <path clip-path="url(#p4d411edc0e)" d="M 142.884938 184.464 
L 145.039647 184.464 
L 145.039647 180.144 
L 142.884938 180.144 
z
" style="fill:#55a868;stroke:#ffffff;stroke-linejoin:miter;"/>
   </g>
   <g id="patch_86">
    <path clip-path="url(#p4d411edc0e)" d="M 144.731832 175.824 
L 147.194357 175.824 
L 147.194357 171.504 
L 144.731832 171.504 
z
" style="fill:#55a868;stroke:#ffffff;stroke-linejoin:miter;"/>
   </g>
   <g id="patch_87">
    <path clip-path="url(#p4d411edc0e)" d="M 146.963495 167.184 
L 149.041251 167.184 
L 149.041251 162.864 
L 146.963495 162.864 
z
" style="fill:#55a868;stroke:#ffffff;stroke-linejoin:miter;"/>
   </g>
   <g id="patch_88">
    <path clip-path="url(#p4d411edc0e)" d="M 146.886541 158.544 
L 149.195158 158.544 
L 149.195158 154.224 
L 146.886541 154.224 
z
" style="fill:#55a868;stroke:#ffffff;stroke-linejoin:miter;"/>
   </g>
   <g id="patch_89">
    <path clip-path="url(#p4d411edc0e)" d="M 151.580729 149.904 
L 154.428024 149.904 
L 154.428024 145.584 
L 151.580729 145.584 
z
" style="fill:#55a868;stroke:#ffffff;stroke-linejoin:miter;"/>
   </g>
   <g id="patch_90">
    <path clip-path="url(#p4d411edc0e)" d="M 151.734637 141.264 
L 154.889747 141.264 
L 154.889747 136.944 
L 151.734637 136.944 
z
" style="fill:#55a868;stroke:#ffffff;stroke-linejoin:miter;"/>
   </g>
   <g id="patch_91">
    <path clip-path="url(#p4d411edc0e)" d="M 154.043255 132.624 
L 157.198365 132.624 
L 157.198365 128.304 
L 154.043255 128.304 
z
" style="fill:#55a868;stroke:#ffffff;stroke-linejoin:miter;"/>
   </g>
   <g id="patch_92">
    <path clip-path="url(#p4d411edc0e)" d="M 155.890148 123.984 
L 158.891351 123.984 
L 158.891351 119.664 
L 155.890148 119.664 
z
" style="fill:#55a868;stroke:#ffffff;stroke-linejoin:miter;"/>
   </g>
   <g id="patch_93">
    <path clip-path="url(#p4d411edc0e)" d="M 153.581531 115.344 
L 160.276521 115.344 
L 160.276521 111.024 
L 153.581531 111.024 
z
" style="fill:#55a868;stroke:#ffffff;stroke-linejoin:miter;"/>
   </g>
   <g id="patch_94">
    <path clip-path="url(#p4d411edc0e)" d="M 164.355078 106.704 
L 167.510188 106.704 
L 167.510188 102.384 
L 164.355078 102.384 
z
" style="fill:#55a868;stroke:#ffffff;stroke-linejoin:miter;"/>
   </g>
   <g id="patch_95">
    <path clip-path="url(#p4d411edc0e)" d="M 163.970309 98.064 
L 168.12582 98.064 
L 168.12582 93.744 
L 163.970309 93.744 
z
" style="fill:#55a868;stroke:#ffffff;stroke-linejoin:miter;"/>
   </g>
   <g id="patch_96">
    <path clip-path="url(#p4d411edc0e)" d="M 166.432834 89.424 
L 172.435238 89.424 
L 172.435238 85.104 
L 166.432834 85.104 
z
" style="fill:#55a868;stroke:#ffffff;stroke-linejoin:miter;"/>
   </g>
   <g id="patch_97">
    <path clip-path="url(#p4d411edc0e)" d="M 170.049667 80.784 
L 176.129026 80.784 
L 176.129026 76.464 
L 170.049667 76.464 
z
" style="fill:#55a868;stroke:#ffffff;stroke-linejoin:miter;"/>
   </g>
   <g id="patch_98">
    <path clip-path="url(#p4d411edc0e)" d="M 178.514597 72.144 
L 185.363495 72.144 
L 185.363495 67.824 
L 178.514597 67.824 
z
" style="fill:#55a868;stroke:#ffffff;stroke-linejoin:miter;"/>
   </g>
   <g id="patch_99">
    <path clip-path="url(#p4d411edc0e)" d="M 188.826421 63.504 
L 193.982333 63.504 
L 193.982333 59.184 
L 188.826421 59.184 
z
" style="fill:#55a868;stroke:#ffffff;stroke-linejoin:miter;"/>
   </g>
   <g id="patch_100">
    <path clip-path="url(#p4d411edc0e)" d="M 190.98113 54.864 
L 197.214397 54.864 
L 197.214397 50.544 
L 190.98113 50.544 
z
" style="fill:#55a868;stroke:#ffffff;stroke-linejoin:miter;"/>
   </g>
   <g id="patch_101">
    <path clip-path="url(#p4d411edc0e)" d="M 198.445659 46.224 
L 208.449667 46.224 
L 208.449667 41.904 
L 198.445659 41.904 
z
" style="fill:#55a868;stroke:#ffffff;stroke-linejoin:miter;"/>
   </g>
   <g id="patch_102">
    <path clip-path="url(#p4d411edc0e)" d="M 251.389948 37.584 
L 265.241651 37.584 
L 265.241651 33.264 
L 251.389948 33.264 
z
" style="fill:#55a868;stroke:#ffffff;stroke-linejoin:miter;"/>
   </g>
   <g id="patch_103">
    <path clip-path="url(#p4d411edc0e)" d="M 271.090148 28.944 
L 286.788745 28.944 
L 286.788745 24.624 
L 271.090148 24.624 
z
" style="fill:#55a868;stroke:#ffffff;stroke-linejoin:miter;"/>
   </g>
   <g id="patch_104">
    <path clip-path="url(#p4d411edc0e)" d="M 399.064497 20.304 
L 431.616 20.304 
L 431.616 15.984 
L 399.064497 15.984 
z
" style="fill:#55a868;stroke:#ffffff;stroke-linejoin:miter;"/>
   </g>
   <g id="patch_105">
    <path d="M 124.416 307.584 
L 124.416 13.824 
" style="fill:none;stroke:#ffffff;stroke-linecap:square;stroke-linejoin:miter;stroke-width:1.25;"/>
   </g>
   <g id="patch_106">
    <path d="M 446.976 307.584 
L 446.976 13.824 
" style="fill:none;stroke:#ffffff;stroke-linecap:square;stroke-linejoin:miter;stroke-width:1.25;"/>
   </g>
   <g id="patch_107">
    <path d="M 124.416 307.584 
L 446.976 307.584 
" style="fill:none;stroke:#ffffff;stroke-linecap:square;stroke-linejoin:miter;stroke-width:1.25;"/>
   </g>
   <g id="patch_108">
    <path d="M 124.416 13.824 
L 446.976 13.824 
" style="fill:none;stroke:#ffffff;stroke-linecap:square;stroke-linejoin:miter;stroke-width:1.25;"/>
   </g>
   <g id="legend_1">
    <g id="patch_109">
     <path d="M 378.4735 302.084 
L 439.276 302.084 
Q 441.476 302.084 441.476 299.884 
L 441.476 252.546187 
Q 441.476 250.346187 439.276 250.346187 
L 378.4735 250.346187 
Q 376.2735 250.346187 376.2735 252.546187 
L 376.2735 299.884 
Q 376.2735 302.084 378.4735 302.084 
z
" style="fill:#eaeaf2;opacity:0.8;stroke:#cccccc;stroke-linejoin:miter;"/>
    </g>
    <g id="patch_110">
     <path d="M 380.6735 263.104469 
L 402.6735 263.104469 
L 402.6735 255.404469 
L 380.6735 255.404469 
z
" style="fill:#4c72b0;stroke:#ffffff;stroke-linejoin:miter;"/>
    </g>
    <g id="text_45">
     <!-- all -->
     <g style="fill:#262626;" transform="translate(411.4735 263.104469)scale(0.11 -0.11)">
      <use xlink:href="#DejaVuSans-97"/>
      <use x="61.279297" xlink:href="#DejaVuSans-108"/>
      <use x="89.0625" xlink:href="#DejaVuSans-108"/>
     </g>
    </g>
    <g id="patch_111">
     <path d="M 380.6735 279.250406 
L 402.6735 279.250406 
L 402.6735 271.550406 
L 380.6735 271.550406 
z
" style="fill:#dd8452;stroke:#ffffff;stroke-linejoin:miter;"/>
    </g>
    <g id="text_46">
     <!-- train -->
     <g style="fill:#262626;" transform="translate(411.4735 279.250406)scale(0.11 -0.11)">
      <use xlink:href="#DejaVuSans-116"/>
      <use x="39.208984" xlink:href="#DejaVuSans-114"/>
      <use x="80.322266" xlink:href="#DejaVuSans-97"/>
      <use x="141.601562" xlink:href="#DejaVuSans-105"/>
      <use x="169.384766" xlink:href="#DejaVuSans-110"/>
     </g>
    </g>
    <g id="patch_112">
     <path d="M 380.6735 295.396344 
L 402.6735 295.396344 
L 402.6735 287.696344 
L 380.6735 287.696344 
z
" style="fill:#55a868;stroke:#ffffff;stroke-linejoin:miter;"/>
    </g>
    <g id="text_47">
     <!-- test -->
     <g style="fill:#262626;" transform="translate(411.4735 295.396344)scale(0.11 -0.11)">
      <use xlink:href="#DejaVuSans-116"/>
      <use x="39.208984" xlink:href="#DejaVuSans-101"/>
      <use x="100.732422" xlink:href="#DejaVuSans-115"/>
      <use x="152.832031" xlink:href="#DejaVuSans-116"/>
     </g>
    </g>
   </g>
  </g>
 </g>
 <defs>
  <clipPath id="p4d411edc0e">
   <rect height="293.76" width="322.56" x="124.416" y="13.824"/>
  </clipPath>
 </defs>
</svg>
