<?xml version="1.0" encoding="utf-8" standalone="no"?>
<!DOCTYPE svg PUBLIC "-//W3C//DTD SVG 1.1//EN"
  "http://www.w3.org/Graphics/SVG/1.1/DTD/svg11.dtd">
<!-- Created with matplotlib (https://matplotlib.org/) -->
<svg height="345.6pt" version="1.1" viewBox="0 0 1382.4 345.6" width="1382.4pt" xmlns="http://www.w3.org/2000/svg" xmlns:xlink="http://www.w3.org/1999/xlink">
 <defs>
  <style type="text/css">
*{stroke-linecap:butt;stroke-linejoin:round;}
  </style>
 </defs>
 <g id="figure_1">
  <g id="patch_1">
   <path d="M 0 345.6 
L 1382.4 345.6 
L 1382.4 0 
L 0 0 
z
" style="fill:#ffffff;"/>
  </g>
  <g id="axes_1">
   <g id="patch_2">
    <path d="M 172.8 307.584 
L 487.905882 307.584 
L 487.905882 41.472 
L 172.8 41.472 
z
" style="fill:#eaeaf2;"/>
   </g>
   <g id="matplotlib.axis_1">
    <g id="xtick_1">
     <g id="line2d_1">
      <path clip-path="url(#p3f6137504c)" d="M 187.122995 307.584 
L 187.122995 41.472 
" style="fill:none;stroke:#ffffff;stroke-linecap:round;"/>
     </g>
     <g id="text_1">
      <!-- 0.00 -->
      <defs>
       <path d="M 31.78125 66.40625 
Q 24.171875 66.40625 20.328125 58.90625 
Q 16.5 51.421875 16.5 36.375 
Q 16.5 21.390625 20.328125 13.890625 
Q 24.171875 6.390625 31.78125 6.390625 
Q 39.453125 6.390625 43.28125 13.890625 
Q 47.125 21.390625 47.125 36.375 
Q 47.125 51.421875 43.28125 58.90625 
Q 39.453125 66.40625 31.78125 66.40625 
z
M 31.78125 74.21875 
Q 44.046875 74.21875 50.515625 64.515625 
Q 56.984375 54.828125 56.984375 36.375 
Q 56.984375 17.96875 50.515625 8.265625 
Q 44.046875 -1.421875 31.78125 -1.421875 
Q 19.53125 -1.421875 13.0625 8.265625 
Q 6.59375 17.96875 6.59375 36.375 
Q 6.59375 54.828125 13.0625 64.515625 
Q 19.53125 74.21875 31.78125 74.21875 
z
" id="DejaVuSans-48"/>
       <path d="M 10.6875 12.40625 
L 21 12.40625 
L 21 0 
L 10.6875 0 
z
" id="DejaVuSans-46"/>
      </defs>
      <g style="fill:#262626;" transform="translate(174.876901 325.442281)scale(0.11 -0.11)">
       <use xlink:href="#DejaVuSans-48"/>
       <use x="63.623047" xlink:href="#DejaVuSans-46"/>
       <use x="95.410156" xlink:href="#DejaVuSans-48"/>
       <use x="159.033203" xlink:href="#DejaVuSans-48"/>
      </g>
     </g>
    </g>
    <g id="xtick_2">
     <g id="line2d_2">
      <path clip-path="url(#p3f6137504c)" d="M 222.930481 307.584 
L 222.930481 41.472 
" style="fill:none;stroke:#ffffff;stroke-linecap:round;"/>
     </g>
     <g id="text_2">
      <!-- 0.25 -->
      <defs>
       <path d="M 19.1875 8.296875 
L 53.609375 8.296875 
L 53.609375 0 
L 7.328125 0 
L 7.328125 8.296875 
Q 12.9375 14.109375 22.625 23.890625 
Q 32.328125 33.6875 34.8125 36.53125 
Q 39.546875 41.84375 41.421875 45.53125 
Q 43.3125 49.21875 43.3125 52.78125 
Q 43.3125 58.59375 39.234375 62.25 
Q 35.15625 65.921875 28.609375 65.921875 
Q 23.96875 65.921875 18.8125 64.3125 
Q 13.671875 62.703125 7.8125 59.421875 
L 7.8125 69.390625 
Q 13.765625 71.78125 18.9375 73 
Q 24.125 74.21875 28.421875 74.21875 
Q 39.75 74.21875 46.484375 68.546875 
Q 53.21875 62.890625 53.21875 53.421875 
Q 53.21875 48.921875 51.53125 44.890625 
Q 49.859375 40.875 45.40625 35.40625 
Q 44.1875 33.984375 37.640625 27.21875 
Q 31.109375 20.453125 19.1875 8.296875 
z
" id="DejaVuSans-50"/>
       <path d="M 10.796875 72.90625 
L 49.515625 72.90625 
L 49.515625 64.59375 
L 19.828125 64.59375 
L 19.828125 46.734375 
Q 21.96875 47.46875 24.109375 47.828125 
Q 26.265625 48.1875 28.421875 48.1875 
Q 40.625 48.1875 47.75 41.5 
Q 54.890625 34.8125 54.890625 23.390625 
Q 54.890625 11.625 47.5625 5.09375 
Q 40.234375 -1.421875 26.90625 -1.421875 
Q 22.3125 -1.421875 17.546875 -0.640625 
Q 12.796875 0.140625 7.71875 1.703125 
L 7.71875 11.625 
Q 12.109375 9.234375 16.796875 8.0625 
Q 21.484375 6.890625 26.703125 6.890625 
Q 35.15625 6.890625 40.078125 11.328125 
Q 45.015625 15.765625 45.015625 23.390625 
Q 45.015625 31 40.078125 35.4375 
Q 35.15625 39.890625 26.703125 39.890625 
Q 22.75 39.890625 18.8125 39.015625 
Q 14.890625 38.140625 10.796875 36.28125 
z
" id="DejaVuSans-53"/>
      </defs>
      <g style="fill:#262626;" transform="translate(210.684388 325.442281)scale(0.11 -0.11)">
       <use xlink:href="#DejaVuSans-48"/>
       <use x="63.623047" xlink:href="#DejaVuSans-46"/>
       <use x="95.410156" xlink:href="#DejaVuSans-50"/>
       <use x="159.033203" xlink:href="#DejaVuSans-53"/>
      </g>
     </g>
    </g>
    <g id="xtick_3">
     <g id="line2d_3">
      <path clip-path="url(#p3f6137504c)" d="M 258.737968 307.584 
L 258.737968 41.472 
" style="fill:none;stroke:#ffffff;stroke-linecap:round;"/>
     </g>
     <g id="text_3">
      <!-- 0.50 -->
      <g style="fill:#262626;" transform="translate(246.491874 325.442281)scale(0.11 -0.11)">
       <use xlink:href="#DejaVuSans-48"/>
       <use x="63.623047" xlink:href="#DejaVuSans-46"/>
       <use x="95.410156" xlink:href="#DejaVuSans-53"/>
       <use x="159.033203" xlink:href="#DejaVuSans-48"/>
      </g>
     </g>
    </g>
    <g id="xtick_4">
     <g id="line2d_4">
      <path clip-path="url(#p3f6137504c)" d="M 294.545455 307.584 
L 294.545455 41.472 
" style="fill:none;stroke:#ffffff;stroke-linecap:round;"/>
     </g>
     <g id="text_4">
      <!-- 0.75 -->
      <defs>
       <path d="M 8.203125 72.90625 
L 55.078125 72.90625 
L 55.078125 68.703125 
L 28.609375 0 
L 18.3125 0 
L 43.21875 64.59375 
L 8.203125 64.59375 
z
" id="DejaVuSans-55"/>
      </defs>
      <g style="fill:#262626;" transform="translate(282.299361 325.442281)scale(0.11 -0.11)">
       <use xlink:href="#DejaVuSans-48"/>
       <use x="63.623047" xlink:href="#DejaVuSans-46"/>
       <use x="95.410156" xlink:href="#DejaVuSans-55"/>
       <use x="159.033203" xlink:href="#DejaVuSans-53"/>
      </g>
     </g>
    </g>
    <g id="xtick_5">
     <g id="line2d_5">
      <path clip-path="url(#p3f6137504c)" d="M 330.352941 307.584 
L 330.352941 41.472 
" style="fill:none;stroke:#ffffff;stroke-linecap:round;"/>
     </g>
     <g id="text_5">
      <!-- 1.00 -->
      <defs>
       <path d="M 12.40625 8.296875 
L 28.515625 8.296875 
L 28.515625 63.921875 
L 10.984375 60.40625 
L 10.984375 69.390625 
L 28.421875 72.90625 
L 38.28125 72.90625 
L 38.28125 8.296875 
L 54.390625 8.296875 
L 54.390625 0 
L 12.40625 0 
z
" id="DejaVuSans-49"/>
      </defs>
      <g style="fill:#262626;" transform="translate(318.106847 325.442281)scale(0.11 -0.11)">
       <use xlink:href="#DejaVuSans-49"/>
       <use x="63.623047" xlink:href="#DejaVuSans-46"/>
       <use x="95.410156" xlink:href="#DejaVuSans-48"/>
       <use x="159.033203" xlink:href="#DejaVuSans-48"/>
      </g>
     </g>
    </g>
    <g id="xtick_6">
     <g id="line2d_6">
      <path clip-path="url(#p3f6137504c)" d="M 366.160428 307.584 
L 366.160428 41.472 
" style="fill:none;stroke:#ffffff;stroke-linecap:round;"/>
     </g>
     <g id="text_6">
      <!-- 1.25 -->
      <g style="fill:#262626;" transform="translate(353.914334 325.442281)scale(0.11 -0.11)">
       <use xlink:href="#DejaVuSans-49"/>
       <use x="63.623047" xlink:href="#DejaVuSans-46"/>
       <use x="95.410156" xlink:href="#DejaVuSans-50"/>
       <use x="159.033203" xlink:href="#DejaVuSans-53"/>
      </g>
     </g>
    </g>
    <g id="xtick_7">
     <g id="line2d_7">
      <path clip-path="url(#p3f6137504c)" d="M 401.967914 307.584 
L 401.967914 41.472 
" style="fill:none;stroke:#ffffff;stroke-linecap:round;"/>
     </g>
     <g id="text_7">
      <!-- 1.50 -->
      <g style="fill:#262626;" transform="translate(389.721821 325.442281)scale(0.11 -0.11)">
       <use xlink:href="#DejaVuSans-49"/>
       <use x="63.623047" xlink:href="#DejaVuSans-46"/>
       <use x="95.410156" xlink:href="#DejaVuSans-53"/>
       <use x="159.033203" xlink:href="#DejaVuSans-48"/>
      </g>
     </g>
    </g>
    <g id="xtick_8">
     <g id="line2d_8">
      <path clip-path="url(#p3f6137504c)" d="M 437.775401 307.584 
L 437.775401 41.472 
" style="fill:none;stroke:#ffffff;stroke-linecap:round;"/>
     </g>
     <g id="text_8">
      <!-- 1.75 -->
      <g style="fill:#262626;" transform="translate(425.529307 325.442281)scale(0.11 -0.11)">
       <use xlink:href="#DejaVuSans-49"/>
       <use x="63.623047" xlink:href="#DejaVuSans-46"/>
       <use x="95.410156" xlink:href="#DejaVuSans-55"/>
       <use x="159.033203" xlink:href="#DejaVuSans-53"/>
      </g>
     </g>
    </g>
    <g id="xtick_9">
     <g id="line2d_9">
      <path clip-path="url(#p3f6137504c)" d="M 473.582888 307.584 
L 473.582888 41.472 
" style="fill:none;stroke:#ffffff;stroke-linecap:round;"/>
     </g>
     <g id="text_9">
      <!-- 2.00 -->
      <g style="fill:#262626;" transform="translate(461.336794 325.442281)scale(0.11 -0.11)">
       <use xlink:href="#DejaVuSans-50"/>
       <use x="63.623047" xlink:href="#DejaVuSans-46"/>
       <use x="95.410156" xlink:href="#DejaVuSans-48"/>
       <use x="159.033203" xlink:href="#DejaVuSans-48"/>
      </g>
     </g>
    </g>
    <g id="text_10">
     <!-- defect finding weight -->
     <defs>
      <path d="M 45.40625 46.390625 
L 45.40625 75.984375 
L 54.390625 75.984375 
L 54.390625 0 
L 45.40625 0 
L 45.40625 8.203125 
Q 42.578125 3.328125 38.25 0.953125 
Q 33.9375 -1.421875 27.875 -1.421875 
Q 17.96875 -1.421875 11.734375 6.484375 
Q 5.515625 14.40625 5.515625 27.296875 
Q 5.515625 40.1875 11.734375 48.09375 
Q 17.96875 56 27.875 56 
Q 33.9375 56 38.25 53.625 
Q 42.578125 51.265625 45.40625 46.390625 
z
M 14.796875 27.296875 
Q 14.796875 17.390625 18.875 11.75 
Q 22.953125 6.109375 30.078125 6.109375 
Q 37.203125 6.109375 41.296875 11.75 
Q 45.40625 17.390625 45.40625 27.296875 
Q 45.40625 37.203125 41.296875 42.84375 
Q 37.203125 48.484375 30.078125 48.484375 
Q 22.953125 48.484375 18.875 42.84375 
Q 14.796875 37.203125 14.796875 27.296875 
z
" id="DejaVuSans-100"/>
      <path d="M 56.203125 29.59375 
L 56.203125 25.203125 
L 14.890625 25.203125 
Q 15.484375 15.921875 20.484375 11.0625 
Q 25.484375 6.203125 34.421875 6.203125 
Q 39.59375 6.203125 44.453125 7.46875 
Q 49.3125 8.734375 54.109375 11.28125 
L 54.109375 2.78125 
Q 49.265625 0.734375 44.1875 -0.34375 
Q 39.109375 -1.421875 33.890625 -1.421875 
Q 20.796875 -1.421875 13.15625 6.1875 
Q 5.515625 13.8125 5.515625 26.8125 
Q 5.515625 40.234375 12.765625 48.109375 
Q 20.015625 56 32.328125 56 
Q 43.359375 56 49.78125 48.890625 
Q 56.203125 41.796875 56.203125 29.59375 
z
M 47.21875 32.234375 
Q 47.125 39.59375 43.09375 43.984375 
Q 39.0625 48.390625 32.421875 48.390625 
Q 24.90625 48.390625 20.390625 44.140625 
Q 15.875 39.890625 15.1875 32.171875 
z
" id="DejaVuSans-101"/>
      <path d="M 37.109375 75.984375 
L 37.109375 68.5 
L 28.515625 68.5 
Q 23.6875 68.5 21.796875 66.546875 
Q 19.921875 64.59375 19.921875 59.515625 
L 19.921875 54.6875 
L 34.71875 54.6875 
L 34.71875 47.703125 
L 19.921875 47.703125 
L 19.921875 0 
L 10.890625 0 
L 10.890625 47.703125 
L 2.296875 47.703125 
L 2.296875 54.6875 
L 10.890625 54.6875 
L 10.890625 58.5 
Q 10.890625 67.625 15.140625 71.796875 
Q 19.390625 75.984375 28.609375 75.984375 
z
" id="DejaVuSans-102"/>
      <path d="M 48.78125 52.59375 
L 48.78125 44.1875 
Q 44.96875 46.296875 41.140625 47.34375 
Q 37.3125 48.390625 33.40625 48.390625 
Q 24.65625 48.390625 19.8125 42.84375 
Q 14.984375 37.3125 14.984375 27.296875 
Q 14.984375 17.28125 19.8125 11.734375 
Q 24.65625 6.203125 33.40625 6.203125 
Q 37.3125 6.203125 41.140625 7.25 
Q 44.96875 8.296875 48.78125 10.40625 
L 48.78125 2.09375 
Q 45.015625 0.34375 40.984375 -0.53125 
Q 36.96875 -1.421875 32.421875 -1.421875 
Q 20.0625 -1.421875 12.78125 6.34375 
Q 5.515625 14.109375 5.515625 27.296875 
Q 5.515625 40.671875 12.859375 48.328125 
Q 20.21875 56 33.015625 56 
Q 37.15625 56 41.109375 55.140625 
Q 45.0625 54.296875 48.78125 52.59375 
z
" id="DejaVuSans-99"/>
      <path d="M 18.3125 70.21875 
L 18.3125 54.6875 
L 36.8125 54.6875 
L 36.8125 47.703125 
L 18.3125 47.703125 
L 18.3125 18.015625 
Q 18.3125 11.328125 20.140625 9.421875 
Q 21.96875 7.515625 27.59375 7.515625 
L 36.8125 7.515625 
L 36.8125 0 
L 27.59375 0 
Q 17.1875 0 13.234375 3.875 
Q 9.28125 7.765625 9.28125 18.015625 
L 9.28125 47.703125 
L 2.6875 47.703125 
L 2.6875 54.6875 
L 9.28125 54.6875 
L 9.28125 70.21875 
z
" id="DejaVuSans-116"/>
      <path id="DejaVuSans-32"/>
      <path d="M 9.421875 54.6875 
L 18.40625 54.6875 
L 18.40625 0 
L 9.421875 0 
z
M 9.421875 75.984375 
L 18.40625 75.984375 
L 18.40625 64.59375 
L 9.421875 64.59375 
z
" id="DejaVuSans-105"/>
      <path d="M 54.890625 33.015625 
L 54.890625 0 
L 45.90625 0 
L 45.90625 32.71875 
Q 45.90625 40.484375 42.875 44.328125 
Q 39.84375 48.1875 33.796875 48.1875 
Q 26.515625 48.1875 22.3125 43.546875 
Q 18.109375 38.921875 18.109375 30.90625 
L 18.109375 0 
L 9.078125 0 
L 9.078125 54.6875 
L 18.109375 54.6875 
L 18.109375 46.1875 
Q 21.34375 51.125 25.703125 53.5625 
Q 30.078125 56 35.796875 56 
Q 45.21875 56 50.046875 50.171875 
Q 54.890625 44.34375 54.890625 33.015625 
z
" id="DejaVuSans-110"/>
      <path d="M 45.40625 27.984375 
Q 45.40625 37.75 41.375 43.109375 
Q 37.359375 48.484375 30.078125 48.484375 
Q 22.859375 48.484375 18.828125 43.109375 
Q 14.796875 37.75 14.796875 27.984375 
Q 14.796875 18.265625 18.828125 12.890625 
Q 22.859375 7.515625 30.078125 7.515625 
Q 37.359375 7.515625 41.375 12.890625 
Q 45.40625 18.265625 45.40625 27.984375 
z
M 54.390625 6.78125 
Q 54.390625 -7.171875 48.1875 -13.984375 
Q 42 -20.796875 29.203125 -20.796875 
Q 24.46875 -20.796875 20.265625 -20.09375 
Q 16.0625 -19.390625 12.109375 -17.921875 
L 12.109375 -9.1875 
Q 16.0625 -11.328125 19.921875 -12.34375 
Q 23.78125 -13.375 27.78125 -13.375 
Q 36.625 -13.375 41.015625 -8.765625 
Q 45.40625 -4.15625 45.40625 5.171875 
L 45.40625 9.625 
Q 42.625 4.78125 38.28125 2.390625 
Q 33.9375 0 27.875 0 
Q 17.828125 0 11.671875 7.65625 
Q 5.515625 15.328125 5.515625 27.984375 
Q 5.515625 40.671875 11.671875 48.328125 
Q 17.828125 56 27.875 56 
Q 33.9375 56 38.28125 53.609375 
Q 42.625 51.21875 45.40625 46.390625 
L 45.40625 54.6875 
L 54.390625 54.6875 
z
" id="DejaVuSans-103"/>
      <path d="M 4.203125 54.6875 
L 13.1875 54.6875 
L 24.421875 12.015625 
L 35.59375 54.6875 
L 46.1875 54.6875 
L 57.421875 12.015625 
L 68.609375 54.6875 
L 77.59375 54.6875 
L 63.28125 0 
L 52.6875 0 
L 40.921875 44.828125 
L 29.109375 0 
L 18.5 0 
z
" id="DejaVuSans-119"/>
      <path d="M 54.890625 33.015625 
L 54.890625 0 
L 45.90625 0 
L 45.90625 32.71875 
Q 45.90625 40.484375 42.875 44.328125 
Q 39.84375 48.1875 33.796875 48.1875 
Q 26.515625 48.1875 22.3125 43.546875 
Q 18.109375 38.921875 18.109375 30.90625 
L 18.109375 0 
L 9.078125 0 
L 9.078125 75.984375 
L 18.109375 75.984375 
L 18.109375 46.1875 
Q 21.34375 51.125 25.703125 53.5625 
Q 30.078125 56 35.796875 56 
Q 45.21875 56 50.046875 50.171875 
Q 54.890625 44.34375 54.890625 33.015625 
z
" id="DejaVuSans-104"/>
     </defs>
     <g style="fill:#262626;" transform="translate(266.684504 340.848062)scale(0.12 -0.12)">
      <use xlink:href="#DejaVuSans-100"/>
      <use x="63.476562" xlink:href="#DejaVuSans-101"/>
      <use x="125" xlink:href="#DejaVuSans-102"/>
      <use x="160.205078" xlink:href="#DejaVuSans-101"/>
      <use x="221.728516" xlink:href="#DejaVuSans-99"/>
      <use x="276.708984" xlink:href="#DejaVuSans-116"/>
      <use x="315.917969" xlink:href="#DejaVuSans-32"/>
      <use x="347.705078" xlink:href="#DejaVuSans-102"/>
      <use x="382.910156" xlink:href="#DejaVuSans-105"/>
      <use x="410.693359" xlink:href="#DejaVuSans-110"/>
      <use x="474.072266" xlink:href="#DejaVuSans-100"/>
      <use x="537.548828" xlink:href="#DejaVuSans-105"/>
      <use x="565.332031" xlink:href="#DejaVuSans-110"/>
      <use x="628.710938" xlink:href="#DejaVuSans-103"/>
      <use x="692.1875" xlink:href="#DejaVuSans-32"/>
      <use x="723.974609" xlink:href="#DejaVuSans-119"/>
      <use x="805.761719" xlink:href="#DejaVuSans-101"/>
      <use x="867.285156" xlink:href="#DejaVuSans-105"/>
      <use x="895.068359" xlink:href="#DejaVuSans-103"/>
      <use x="958.544922" xlink:href="#DejaVuSans-104"/>
      <use x="1021.923828" xlink:href="#DejaVuSans-116"/>
     </g>
    </g>
   </g>
   <g id="matplotlib.axis_2">
    <g id="ytick_1">
     <g id="line2d_10">
      <path clip-path="url(#p3f6137504c)" d="M 172.8 302.768613 
L 487.905882 302.768613 
" style="fill:none;stroke:#ffffff;stroke-linecap:round;"/>
     </g>
     <g id="text_11">
      <!-- 0.3 -->
      <defs>
       <path d="M 40.578125 39.3125 
Q 47.65625 37.796875 51.625 33 
Q 55.609375 28.21875 55.609375 21.1875 
Q 55.609375 10.40625 48.1875 4.484375 
Q 40.765625 -1.421875 27.09375 -1.421875 
Q 22.515625 -1.421875 17.65625 -0.515625 
Q 12.796875 0.390625 7.625 2.203125 
L 7.625 11.71875 
Q 11.71875 9.328125 16.59375 8.109375 
Q 21.484375 6.890625 26.8125 6.890625 
Q 36.078125 6.890625 40.9375 10.546875 
Q 45.796875 14.203125 45.796875 21.1875 
Q 45.796875 27.640625 41.28125 31.265625 
Q 36.765625 34.90625 28.71875 34.90625 
L 20.21875 34.90625 
L 20.21875 43.015625 
L 29.109375 43.015625 
Q 36.375 43.015625 40.234375 45.921875 
Q 44.09375 48.828125 44.09375 54.296875 
Q 44.09375 59.90625 40.109375 62.90625 
Q 36.140625 65.921875 28.71875 65.921875 
Q 24.65625 65.921875 20.015625 65.03125 
Q 15.375 64.15625 9.8125 62.3125 
L 9.8125 71.09375 
Q 15.4375 72.65625 20.34375 73.4375 
Q 25.25 74.21875 29.59375 74.21875 
Q 40.828125 74.21875 47.359375 69.109375 
Q 53.90625 64.015625 53.90625 55.328125 
Q 53.90625 49.265625 50.4375 45.09375 
Q 46.96875 40.921875 40.578125 39.3125 
z
" id="DejaVuSans-51"/>
      </defs>
      <g style="fill:#262626;" transform="translate(145.806563 306.947753)scale(0.11 -0.11)">
       <use xlink:href="#DejaVuSans-48"/>
       <use x="63.623047" xlink:href="#DejaVuSans-46"/>
       <use x="95.410156" xlink:href="#DejaVuSans-51"/>
      </g>
     </g>
    </g>
    <g id="ytick_2">
     <g id="line2d_11">
      <path clip-path="url(#p3f6137504c)" d="M 172.8 247.730487 
L 487.905882 247.730487 
" style="fill:none;stroke:#ffffff;stroke-linecap:round;"/>
     </g>
     <g id="text_12">
      <!-- 0.4 -->
      <defs>
       <path d="M 37.796875 64.3125 
L 12.890625 25.390625 
L 37.796875 25.390625 
z
M 35.203125 72.90625 
L 47.609375 72.90625 
L 47.609375 25.390625 
L 58.015625 25.390625 
L 58.015625 17.1875 
L 47.609375 17.1875 
L 47.609375 0 
L 37.796875 0 
L 37.796875 17.1875 
L 4.890625 17.1875 
L 4.890625 26.703125 
z
" id="DejaVuSans-52"/>
      </defs>
      <g style="fill:#262626;" transform="translate(145.806563 251.909628)scale(0.11 -0.11)">
       <use xlink:href="#DejaVuSans-48"/>
       <use x="63.623047" xlink:href="#DejaVuSans-46"/>
       <use x="95.410156" xlink:href="#DejaVuSans-52"/>
      </g>
     </g>
    </g>
    <g id="ytick_3">
     <g id="line2d_12">
      <path clip-path="url(#p3f6137504c)" d="M 172.8 192.692361 
L 487.905882 192.692361 
" style="fill:none;stroke:#ffffff;stroke-linecap:round;"/>
     </g>
     <g id="text_13">
      <!-- 0.5 -->
      <g style="fill:#262626;" transform="translate(145.806563 196.871502)scale(0.11 -0.11)">
       <use xlink:href="#DejaVuSans-48"/>
       <use x="63.623047" xlink:href="#DejaVuSans-46"/>
       <use x="95.410156" xlink:href="#DejaVuSans-53"/>
      </g>
     </g>
    </g>
    <g id="ytick_4">
     <g id="line2d_13">
      <path clip-path="url(#p3f6137504c)" d="M 172.8 137.654235 
L 487.905882 137.654235 
" style="fill:none;stroke:#ffffff;stroke-linecap:round;"/>
     </g>
     <g id="text_14">
      <!-- 0.6 -->
      <defs>
       <path d="M 33.015625 40.375 
Q 26.375 40.375 22.484375 35.828125 
Q 18.609375 31.296875 18.609375 23.390625 
Q 18.609375 15.53125 22.484375 10.953125 
Q 26.375 6.390625 33.015625 6.390625 
Q 39.65625 6.390625 43.53125 10.953125 
Q 47.40625 15.53125 47.40625 23.390625 
Q 47.40625 31.296875 43.53125 35.828125 
Q 39.65625 40.375 33.015625 40.375 
z
M 52.59375 71.296875 
L 52.59375 62.3125 
Q 48.875 64.0625 45.09375 64.984375 
Q 41.3125 65.921875 37.59375 65.921875 
Q 27.828125 65.921875 22.671875 59.328125 
Q 17.53125 52.734375 16.796875 39.40625 
Q 19.671875 43.65625 24.015625 45.921875 
Q 28.375 48.1875 33.59375 48.1875 
Q 44.578125 48.1875 50.953125 41.515625 
Q 57.328125 34.859375 57.328125 23.390625 
Q 57.328125 12.15625 50.6875 5.359375 
Q 44.046875 -1.421875 33.015625 -1.421875 
Q 20.359375 -1.421875 13.671875 8.265625 
Q 6.984375 17.96875 6.984375 36.375 
Q 6.984375 53.65625 15.1875 63.9375 
Q 23.390625 74.21875 37.203125 74.21875 
Q 40.921875 74.21875 44.703125 73.484375 
Q 48.484375 72.75 52.59375 71.296875 
z
" id="DejaVuSans-54"/>
      </defs>
      <g style="fill:#262626;" transform="translate(145.806563 141.833376)scale(0.11 -0.11)">
       <use xlink:href="#DejaVuSans-48"/>
       <use x="63.623047" xlink:href="#DejaVuSans-46"/>
       <use x="95.410156" xlink:href="#DejaVuSans-54"/>
      </g>
     </g>
    </g>
    <g id="ytick_5">
     <g id="line2d_14">
      <path clip-path="url(#p3f6137504c)" d="M 172.8 82.616109 
L 487.905882 82.616109 
" style="fill:none;stroke:#ffffff;stroke-linecap:round;"/>
     </g>
     <g id="text_15">
      <!-- 0.7 -->
      <g style="fill:#262626;" transform="translate(145.806563 86.79525)scale(0.11 -0.11)">
       <use xlink:href="#DejaVuSans-48"/>
       <use x="63.623047" xlink:href="#DejaVuSans-46"/>
       <use x="95.410156" xlink:href="#DejaVuSans-55"/>
      </g>
     </g>
    </g>
    <g id="text_16">
     <!-- average precision -->
     <defs>
      <path d="M 34.28125 27.484375 
Q 23.390625 27.484375 19.1875 25 
Q 14.984375 22.515625 14.984375 16.5 
Q 14.984375 11.71875 18.140625 8.90625 
Q 21.296875 6.109375 26.703125 6.109375 
Q 34.1875 6.109375 38.703125 11.40625 
Q 43.21875 16.703125 43.21875 25.484375 
L 43.21875 27.484375 
z
M 52.203125 31.203125 
L 52.203125 0 
L 43.21875 0 
L 43.21875 8.296875 
Q 40.140625 3.328125 35.546875 0.953125 
Q 30.953125 -1.421875 24.3125 -1.421875 
Q 15.921875 -1.421875 10.953125 3.296875 
Q 6 8.015625 6 15.921875 
Q 6 25.140625 12.171875 29.828125 
Q 18.359375 34.515625 30.609375 34.515625 
L 43.21875 34.515625 
L 43.21875 35.40625 
Q 43.21875 41.609375 39.140625 45 
Q 35.0625 48.390625 27.6875 48.390625 
Q 23 48.390625 18.546875 47.265625 
Q 14.109375 46.140625 10.015625 43.890625 
L 10.015625 52.203125 
Q 14.9375 54.109375 19.578125 55.046875 
Q 24.21875 56 28.609375 56 
Q 40.484375 56 46.34375 49.84375 
Q 52.203125 43.703125 52.203125 31.203125 
z
" id="DejaVuSans-97"/>
      <path d="M 2.984375 54.6875 
L 12.5 54.6875 
L 29.59375 8.796875 
L 46.6875 54.6875 
L 56.203125 54.6875 
L 35.6875 0 
L 23.484375 0 
z
" id="DejaVuSans-118"/>
      <path d="M 41.109375 46.296875 
Q 39.59375 47.171875 37.8125 47.578125 
Q 36.03125 48 33.890625 48 
Q 26.265625 48 22.1875 43.046875 
Q 18.109375 38.09375 18.109375 28.8125 
L 18.109375 0 
L 9.078125 0 
L 9.078125 54.6875 
L 18.109375 54.6875 
L 18.109375 46.1875 
Q 20.953125 51.171875 25.484375 53.578125 
Q 30.03125 56 36.53125 56 
Q 37.453125 56 38.578125 55.875 
Q 39.703125 55.765625 41.0625 55.515625 
z
" id="DejaVuSans-114"/>
      <path d="M 18.109375 8.203125 
L 18.109375 -20.796875 
L 9.078125 -20.796875 
L 9.078125 54.6875 
L 18.109375 54.6875 
L 18.109375 46.390625 
Q 20.953125 51.265625 25.265625 53.625 
Q 29.59375 56 35.59375 56 
Q 45.5625 56 51.78125 48.09375 
Q 58.015625 40.1875 58.015625 27.296875 
Q 58.015625 14.40625 51.78125 6.484375 
Q 45.5625 -1.421875 35.59375 -1.421875 
Q 29.59375 -1.421875 25.265625 0.953125 
Q 20.953125 3.328125 18.109375 8.203125 
z
M 48.6875 27.296875 
Q 48.6875 37.203125 44.609375 42.84375 
Q 40.53125 48.484375 33.40625 48.484375 
Q 26.265625 48.484375 22.1875 42.84375 
Q 18.109375 37.203125 18.109375 27.296875 
Q 18.109375 17.390625 22.1875 11.75 
Q 26.265625 6.109375 33.40625 6.109375 
Q 40.53125 6.109375 44.609375 11.75 
Q 48.6875 17.390625 48.6875 27.296875 
z
" id="DejaVuSans-112"/>
      <path d="M 44.28125 53.078125 
L 44.28125 44.578125 
Q 40.484375 46.53125 36.375 47.5 
Q 32.28125 48.484375 27.875 48.484375 
Q 21.1875 48.484375 17.84375 46.4375 
Q 14.5 44.390625 14.5 40.28125 
Q 14.5 37.15625 16.890625 35.375 
Q 19.28125 33.59375 26.515625 31.984375 
L 29.59375 31.296875 
Q 39.15625 29.25 43.1875 25.515625 
Q 47.21875 21.78125 47.21875 15.09375 
Q 47.21875 7.46875 41.1875 3.015625 
Q 35.15625 -1.421875 24.609375 -1.421875 
Q 20.21875 -1.421875 15.453125 -0.5625 
Q 10.6875 0.296875 5.421875 2 
L 5.421875 11.28125 
Q 10.40625 8.6875 15.234375 7.390625 
Q 20.0625 6.109375 24.8125 6.109375 
Q 31.15625 6.109375 34.5625 8.28125 
Q 37.984375 10.453125 37.984375 14.40625 
Q 37.984375 18.0625 35.515625 20.015625 
Q 33.0625 21.96875 24.703125 23.78125 
L 21.578125 24.515625 
Q 13.234375 26.265625 9.515625 29.90625 
Q 5.8125 33.546875 5.8125 39.890625 
Q 5.8125 47.609375 11.28125 51.796875 
Q 16.75 56 26.8125 56 
Q 31.78125 56 36.171875 55.265625 
Q 40.578125 54.546875 44.28125 53.078125 
z
" id="DejaVuSans-115"/>
      <path d="M 30.609375 48.390625 
Q 23.390625 48.390625 19.1875 42.75 
Q 14.984375 37.109375 14.984375 27.296875 
Q 14.984375 17.484375 19.15625 11.84375 
Q 23.34375 6.203125 30.609375 6.203125 
Q 37.796875 6.203125 41.984375 11.859375 
Q 46.1875 17.53125 46.1875 27.296875 
Q 46.1875 37.015625 41.984375 42.703125 
Q 37.796875 48.390625 30.609375 48.390625 
z
M 30.609375 56 
Q 42.328125 56 49.015625 48.375 
Q 55.71875 40.765625 55.71875 27.296875 
Q 55.71875 13.875 49.015625 6.21875 
Q 42.328125 -1.421875 30.609375 -1.421875 
Q 18.84375 -1.421875 12.171875 6.21875 
Q 5.515625 13.875 5.515625 27.296875 
Q 5.515625 40.765625 12.171875 48.375 
Q 18.84375 56 30.609375 56 
z
" id="DejaVuSans-111"/>
     </defs>
     <g style="fill:#262626;" transform="translate(139.310938 228.063937)rotate(-90)scale(0.12 -0.12)">
      <use xlink:href="#DejaVuSans-97"/>
      <use x="61.279297" xlink:href="#DejaVuSans-118"/>
      <use x="120.458984" xlink:href="#DejaVuSans-101"/>
      <use x="181.982422" xlink:href="#DejaVuSans-114"/>
      <use x="223.095703" xlink:href="#DejaVuSans-97"/>
      <use x="284.375" xlink:href="#DejaVuSans-103"/>
      <use x="347.851562" xlink:href="#DejaVuSans-101"/>
      <use x="409.375" xlink:href="#DejaVuSans-32"/>
      <use x="441.162109" xlink:href="#DejaVuSans-112"/>
      <use x="504.638672" xlink:href="#DejaVuSans-114"/>
      <use x="543.501953" xlink:href="#DejaVuSans-101"/>
      <use x="605.025391" xlink:href="#DejaVuSans-99"/>
      <use x="660.005859" xlink:href="#DejaVuSans-105"/>
      <use x="687.789062" xlink:href="#DejaVuSans-115"/>
      <use x="739.888672" xlink:href="#DejaVuSans-105"/>
      <use x="767.671875" xlink:href="#DejaVuSans-111"/>
      <use x="828.853516" xlink:href="#DejaVuSans-110"/>
     </g>
    </g>
   </g>
   <g id="line2d_15">
    <path clip-path="url(#p3f6137504c)" d="M 187.122995 207.58099 
L 201.445989 209.512472 
L 215.768984 215.98347 
L 230.091979 221.282807 
L 244.414973 228.300468 
L 258.737968 233.35832 
L 273.060963 237.537178 
L 287.383957 239.398603 
L 301.706952 242.866573 
L 316.029947 251.706419 
L 330.352941 251.099892 
L 344.675936 260.608406 
L 358.99893 267.70032 
L 373.321925 266.625248 
L 387.64492 271.35215 
L 401.967914 269.187807 
L 416.290909 282.647149 
L 430.613904 291.717718 
L 444.936898 295.488 
L 459.259893 295.332939 
L 473.582888 284.251232 
" style="fill:none;stroke:#4c72b0;stroke-linecap:round;stroke-width:1.5;"/>
    <defs>
     <path d="M 0 3 
C 0.795609 3 1.55874 2.683901 2.12132 2.12132 
C 2.683901 1.55874 3 0.795609 3 0 
C 3 -0.795609 2.683901 -1.55874 2.12132 -2.12132 
C 1.55874 -2.683901 0.795609 -3 0 -3 
C -0.795609 -3 -1.55874 -2.683901 -2.12132 -2.12132 
C -2.683901 -1.55874 -3 -0.795609 -3 0 
C -3 0.795609 -2.683901 1.55874 -2.12132 2.12132 
C -1.55874 2.683901 -0.795609 3 0 3 
z
" id="m52706a8113" style="stroke:#ffffff;stroke-width:0.75;"/>
    </defs>
    <g clip-path="url(#p3f6137504c)">
     <use style="fill:#4c72b0;stroke:#ffffff;stroke-width:0.75;" x="187.122995" xlink:href="#m52706a8113" y="207.58099"/>
     <use style="fill:#4c72b0;stroke:#ffffff;stroke-width:0.75;" x="201.445989" xlink:href="#m52706a8113" y="209.512472"/>
     <use style="fill:#4c72b0;stroke:#ffffff;stroke-width:0.75;" x="215.768984" xlink:href="#m52706a8113" y="215.98347"/>
     <use style="fill:#4c72b0;stroke:#ffffff;stroke-width:0.75;" x="230.091979" xlink:href="#m52706a8113" y="221.282807"/>
     <use style="fill:#4c72b0;stroke:#ffffff;stroke-width:0.75;" x="244.414973" xlink:href="#m52706a8113" y="228.300468"/>
     <use style="fill:#4c72b0;stroke:#ffffff;stroke-width:0.75;" x="258.737968" xlink:href="#m52706a8113" y="233.35832"/>
     <use style="fill:#4c72b0;stroke:#ffffff;stroke-width:0.75;" x="273.060963" xlink:href="#m52706a8113" y="237.537178"/>
     <use style="fill:#4c72b0;stroke:#ffffff;stroke-width:0.75;" x="287.383957" xlink:href="#m52706a8113" y="239.398603"/>
     <use style="fill:#4c72b0;stroke:#ffffff;stroke-width:0.75;" x="301.706952" xlink:href="#m52706a8113" y="242.866573"/>
     <use style="fill:#4c72b0;stroke:#ffffff;stroke-width:0.75;" x="316.029947" xlink:href="#m52706a8113" y="251.706419"/>
     <use style="fill:#4c72b0;stroke:#ffffff;stroke-width:0.75;" x="330.352941" xlink:href="#m52706a8113" y="251.099892"/>
     <use style="fill:#4c72b0;stroke:#ffffff;stroke-width:0.75;" x="344.675936" xlink:href="#m52706a8113" y="260.608406"/>
     <use style="fill:#4c72b0;stroke:#ffffff;stroke-width:0.75;" x="358.99893" xlink:href="#m52706a8113" y="267.70032"/>
     <use style="fill:#4c72b0;stroke:#ffffff;stroke-width:0.75;" x="373.321925" xlink:href="#m52706a8113" y="266.625248"/>
     <use style="fill:#4c72b0;stroke:#ffffff;stroke-width:0.75;" x="387.64492" xlink:href="#m52706a8113" y="271.35215"/>
     <use style="fill:#4c72b0;stroke:#ffffff;stroke-width:0.75;" x="401.967914" xlink:href="#m52706a8113" y="269.187807"/>
     <use style="fill:#4c72b0;stroke:#ffffff;stroke-width:0.75;" x="416.290909" xlink:href="#m52706a8113" y="282.647149"/>
     <use style="fill:#4c72b0;stroke:#ffffff;stroke-width:0.75;" x="430.613904" xlink:href="#m52706a8113" y="291.717718"/>
     <use style="fill:#4c72b0;stroke:#ffffff;stroke-width:0.75;" x="444.936898" xlink:href="#m52706a8113" y="295.488"/>
     <use style="fill:#4c72b0;stroke:#ffffff;stroke-width:0.75;" x="459.259893" xlink:href="#m52706a8113" y="295.332939"/>
     <use style="fill:#4c72b0;stroke:#ffffff;stroke-width:0.75;" x="473.582888" xlink:href="#m52706a8113" y="284.251232"/>
    </g>
   </g>
   <g id="line2d_16">
    <path clip-path="url(#p3f6137504c)" d="M 187.122995 53.568 
L 201.445989 56.947635 
L 215.768984 66.611518 
L 230.091979 76.286947 
L 244.414973 80.305743 
L 258.737968 87.394448 
L 273.060963 93.351012 
L 287.383957 97.794632 
L 301.706952 104.798963 
L 316.029947 115.160298 
L 330.352941 115.991673 
L 344.675936 127.540511 
L 358.99893 139.853633 
L 373.321925 136.034724 
L 387.64492 141.541273 
L 401.967914 140.922979 
L 416.290909 143.7658 
L 430.613904 158.494177 
L 444.936898 163.99779 
L 459.259893 167.923405 
L 473.582888 150.42764 
" style="fill:none;stroke:#dd8452;stroke-linecap:round;stroke-width:1.5;"/>
    <defs>
     <path d="M -1.5 3 
L 0 1.5 
L 1.5 3 
L 3 1.5 
L 1.5 0 
L 3 -1.5 
L 1.5 -3 
L 0 -1.5 
L -1.5 -3 
L -3 -1.5 
L -1.5 0 
L -3 1.5 
z
" id="m816f2faf51" style="stroke:#ffffff;stroke-linejoin:miter;stroke-width:0.75;"/>
    </defs>
    <g clip-path="url(#p3f6137504c)">
     <use style="fill:#dd8452;stroke:#ffffff;stroke-linejoin:miter;stroke-width:0.75;" x="187.122995" xlink:href="#m816f2faf51" y="53.568"/>
     <use style="fill:#dd8452;stroke:#ffffff;stroke-linejoin:miter;stroke-width:0.75;" x="201.445989" xlink:href="#m816f2faf51" y="56.947635"/>
     <use style="fill:#dd8452;stroke:#ffffff;stroke-linejoin:miter;stroke-width:0.75;" x="215.768984" xlink:href="#m816f2faf51" y="66.611518"/>
     <use style="fill:#dd8452;stroke:#ffffff;stroke-linejoin:miter;stroke-width:0.75;" x="230.091979" xlink:href="#m816f2faf51" y="76.286947"/>
     <use style="fill:#dd8452;stroke:#ffffff;stroke-linejoin:miter;stroke-width:0.75;" x="244.414973" xlink:href="#m816f2faf51" y="80.305743"/>
     <use style="fill:#dd8452;stroke:#ffffff;stroke-linejoin:miter;stroke-width:0.75;" x="258.737968" xlink:href="#m816f2faf51" y="87.394448"/>
     <use style="fill:#dd8452;stroke:#ffffff;stroke-linejoin:miter;stroke-width:0.75;" x="273.060963" xlink:href="#m816f2faf51" y="93.351012"/>
     <use style="fill:#dd8452;stroke:#ffffff;stroke-linejoin:miter;stroke-width:0.75;" x="287.383957" xlink:href="#m816f2faf51" y="97.794632"/>
     <use style="fill:#dd8452;stroke:#ffffff;stroke-linejoin:miter;stroke-width:0.75;" x="301.706952" xlink:href="#m816f2faf51" y="104.798963"/>
     <use style="fill:#dd8452;stroke:#ffffff;stroke-linejoin:miter;stroke-width:0.75;" x="316.029947" xlink:href="#m816f2faf51" y="115.160298"/>
     <use style="fill:#dd8452;stroke:#ffffff;stroke-linejoin:miter;stroke-width:0.75;" x="330.352941" xlink:href="#m816f2faf51" y="115.991673"/>
     <use style="fill:#dd8452;stroke:#ffffff;stroke-linejoin:miter;stroke-width:0.75;" x="344.675936" xlink:href="#m816f2faf51" y="127.540511"/>
     <use style="fill:#dd8452;stroke:#ffffff;stroke-linejoin:miter;stroke-width:0.75;" x="358.99893" xlink:href="#m816f2faf51" y="139.853633"/>
     <use style="fill:#dd8452;stroke:#ffffff;stroke-linejoin:miter;stroke-width:0.75;" x="373.321925" xlink:href="#m816f2faf51" y="136.034724"/>
     <use style="fill:#dd8452;stroke:#ffffff;stroke-linejoin:miter;stroke-width:0.75;" x="387.64492" xlink:href="#m816f2faf51" y="141.541273"/>
     <use style="fill:#dd8452;stroke:#ffffff;stroke-linejoin:miter;stroke-width:0.75;" x="401.967914" xlink:href="#m816f2faf51" y="140.922979"/>
     <use style="fill:#dd8452;stroke:#ffffff;stroke-linejoin:miter;stroke-width:0.75;" x="416.290909" xlink:href="#m816f2faf51" y="143.7658"/>
     <use style="fill:#dd8452;stroke:#ffffff;stroke-linejoin:miter;stroke-width:0.75;" x="430.613904" xlink:href="#m816f2faf51" y="158.494177"/>
     <use style="fill:#dd8452;stroke:#ffffff;stroke-linejoin:miter;stroke-width:0.75;" x="444.936898" xlink:href="#m816f2faf51" y="163.99779"/>
     <use style="fill:#dd8452;stroke:#ffffff;stroke-linejoin:miter;stroke-width:0.75;" x="459.259893" xlink:href="#m816f2faf51" y="167.923405"/>
     <use style="fill:#dd8452;stroke:#ffffff;stroke-linejoin:miter;stroke-width:0.75;" x="473.582888" xlink:href="#m816f2faf51" y="150.42764"/>
    </g>
   </g>
   <g id="line2d_17"/>
   <g id="line2d_18"/>
   <g id="line2d_19"/>
   <g id="patch_3">
    <path d="M 172.8 307.584 
L 172.8 41.472 
" style="fill:none;stroke:#ffffff;stroke-linecap:square;stroke-linejoin:miter;stroke-width:1.25;"/>
   </g>
   <g id="patch_4">
    <path d="M 487.905882 307.584 
L 487.905882 41.472 
" style="fill:none;stroke:#ffffff;stroke-linecap:square;stroke-linejoin:miter;stroke-width:1.25;"/>
   </g>
   <g id="patch_5">
    <path d="M 172.8 307.584 
L 487.905882 307.584 
" style="fill:none;stroke:#ffffff;stroke-linecap:square;stroke-linejoin:miter;stroke-width:1.25;"/>
   </g>
   <g id="patch_6">
    <path d="M 172.8 41.472 
L 487.905882 41.472 
" style="fill:none;stroke:#ffffff;stroke-linecap:square;stroke-linejoin:miter;stroke-width:1.25;"/>
   </g>
   <g id="legend_1">
    <g id="patch_7">
     <path d="M 365.071976 98.709812 
L 480.205882 98.709812 
Q 482.405882 98.709812 482.405882 96.509812 
L 482.405882 49.172 
Q 482.405882 46.972 480.205882 46.972 
L 365.071976 46.972 
Q 362.871976 46.972 362.871976 49.172 
L 362.871976 96.509812 
Q 362.871976 98.709812 365.071976 98.709812 
z
" style="fill:#eaeaf2;opacity:0.8;stroke:#cccccc;stroke-linejoin:miter;"/>
    </g>
    <g id="line2d_20">
     <path d="M 367.271976 55.880281 
L 389.271976 55.880281 
" style="fill:none;"/>
    </g>
    <g id="line2d_21"/>
    <g id="text_17">
     <!-- type -->
     <defs>
      <path d="M 32.171875 -5.078125 
Q 28.375 -14.84375 24.75 -17.8125 
Q 21.140625 -20.796875 15.09375 -20.796875 
L 7.90625 -20.796875 
L 7.90625 -13.28125 
L 13.1875 -13.28125 
Q 16.890625 -13.28125 18.9375 -11.515625 
Q 21 -9.765625 23.484375 -3.21875 
L 25.09375 0.875 
L 2.984375 54.6875 
L 12.5 54.6875 
L 29.59375 11.921875 
L 46.6875 54.6875 
L 56.203125 54.6875 
z
" id="DejaVuSans-121"/>
     </defs>
     <g style="fill:#262626;" transform="translate(398.071976 59.730281)scale(0.11 -0.11)">
      <use xlink:href="#DejaVuSans-116"/>
      <use x="39.208984" xlink:href="#DejaVuSans-121"/>
      <use x="98.388672" xlink:href="#DejaVuSans-112"/>
      <use x="161.865234" xlink:href="#DejaVuSans-101"/>
     </g>
    </g>
    <g id="line2d_22">
     <path d="M 367.271976 72.026219 
L 389.271976 72.026219 
" style="fill:none;stroke:#4c72b0;stroke-linecap:round;stroke-width:1.5;"/>
    </g>
    <g id="line2d_23">
     <defs>
      <path d="M 0 3 
C 0.795609 3 1.55874 2.683901 2.12132 2.12132 
C 2.683901 1.55874 3 0.795609 3 0 
C 3 -0.795609 2.683901 -1.55874 2.12132 -2.12132 
C 1.55874 -2.683901 0.795609 -3 0 -3 
C -0.795609 -3 -1.55874 -2.683901 -2.12132 -2.12132 
C -2.683901 -1.55874 -3 -0.795609 -3 0 
C -3 0.795609 -2.683901 1.55874 -2.12132 2.12132 
C -1.55874 2.683901 -0.795609 3 0 3 
z
" id="mc0e0661206" style="stroke:#4c72b0;"/>
     </defs>
     <g>
      <use style="fill:#4c72b0;stroke:#4c72b0;" x="378.271976" xlink:href="#mc0e0661206" y="72.026219"/>
     </g>
    </g>
    <g id="text_18">
     <!-- IoU=0.50:0.95 -->
     <defs>
      <path d="M 9.8125 72.90625 
L 19.671875 72.90625 
L 19.671875 0 
L 9.8125 0 
z
" id="DejaVuSans-73"/>
      <path d="M 8.6875 72.90625 
L 18.609375 72.90625 
L 18.609375 28.609375 
Q 18.609375 16.890625 22.84375 11.734375 
Q 27.09375 6.59375 36.625 6.59375 
Q 46.09375 6.59375 50.34375 11.734375 
Q 54.59375 16.890625 54.59375 28.609375 
L 54.59375 72.90625 
L 64.5 72.90625 
L 64.5 27.390625 
Q 64.5 13.140625 57.4375 5.859375 
Q 50.390625 -1.421875 36.625 -1.421875 
Q 22.796875 -1.421875 15.734375 5.859375 
Q 8.6875 13.140625 8.6875 27.390625 
z
" id="DejaVuSans-85"/>
      <path d="M 10.59375 45.40625 
L 73.1875 45.40625 
L 73.1875 37.203125 
L 10.59375 37.203125 
z
M 10.59375 25.484375 
L 73.1875 25.484375 
L 73.1875 17.1875 
L 10.59375 17.1875 
z
" id="DejaVuSans-61"/>
      <path d="M 11.71875 12.40625 
L 22.015625 12.40625 
L 22.015625 0 
L 11.71875 0 
z
M 11.71875 51.703125 
L 22.015625 51.703125 
L 22.015625 39.3125 
L 11.71875 39.3125 
z
" id="DejaVuSans-58"/>
      <path d="M 10.984375 1.515625 
L 10.984375 10.5 
Q 14.703125 8.734375 18.5 7.8125 
Q 22.3125 6.890625 25.984375 6.890625 
Q 35.75 6.890625 40.890625 13.453125 
Q 46.046875 20.015625 46.78125 33.40625 
Q 43.953125 29.203125 39.59375 26.953125 
Q 35.25 24.703125 29.984375 24.703125 
Q 19.046875 24.703125 12.671875 31.3125 
Q 6.296875 37.9375 6.296875 49.421875 
Q 6.296875 60.640625 12.9375 67.421875 
Q 19.578125 74.21875 30.609375 74.21875 
Q 43.265625 74.21875 49.921875 64.515625 
Q 56.59375 54.828125 56.59375 36.375 
Q 56.59375 19.140625 48.40625 8.859375 
Q 40.234375 -1.421875 26.421875 -1.421875 
Q 22.703125 -1.421875 18.890625 -0.6875 
Q 15.09375 0.046875 10.984375 1.515625 
z
M 30.609375 32.421875 
Q 37.25 32.421875 41.125 36.953125 
Q 45.015625 41.5 45.015625 49.421875 
Q 45.015625 57.28125 41.125 61.84375 
Q 37.25 66.40625 30.609375 66.40625 
Q 23.96875 66.40625 20.09375 61.84375 
Q 16.21875 57.28125 16.21875 49.421875 
Q 16.21875 41.5 20.09375 36.953125 
Q 23.96875 32.421875 30.609375 32.421875 
z
" id="DejaVuSans-57"/>
     </defs>
     <g style="fill:#262626;" transform="translate(398.071976 75.876219)scale(0.11 -0.11)">
      <use xlink:href="#DejaVuSans-73"/>
      <use x="29.492188" xlink:href="#DejaVuSans-111"/>
      <use x="90.673828" xlink:href="#DejaVuSans-85"/>
      <use x="163.867188" xlink:href="#DejaVuSans-61"/>
      <use x="247.65625" xlink:href="#DejaVuSans-48"/>
      <use x="311.279297" xlink:href="#DejaVuSans-46"/>
      <use x="343.066406" xlink:href="#DejaVuSans-53"/>
      <use x="406.689453" xlink:href="#DejaVuSans-48"/>
      <use x="470.3125" xlink:href="#DejaVuSans-58"/>
      <use x="504.003906" xlink:href="#DejaVuSans-48"/>
      <use x="567.626953" xlink:href="#DejaVuSans-46"/>
      <use x="599.414062" xlink:href="#DejaVuSans-57"/>
      <use x="663.037109" xlink:href="#DejaVuSans-53"/>
     </g>
    </g>
    <g id="line2d_24">
     <path d="M 367.271976 88.172156 
L 389.271976 88.172156 
" style="fill:none;stroke:#dd8452;stroke-linecap:round;stroke-width:1.5;"/>
    </g>
    <g id="line2d_25">
     <defs>
      <path d="M -1.5 3 
L 0 1.5 
L 1.5 3 
L 3 1.5 
L 1.5 0 
L 3 -1.5 
L 1.5 -3 
L 0 -1.5 
L -1.5 -3 
L -3 -1.5 
L -1.5 0 
L -3 1.5 
z
" id="mf49b1a8dc4" style="stroke:#dd8452;stroke-linejoin:miter;"/>
     </defs>
     <g>
      <use style="fill:#dd8452;stroke:#dd8452;stroke-linejoin:miter;" x="378.271976" xlink:href="#mf49b1a8dc4" y="88.172156"/>
     </g>
    </g>
    <g id="text_19">
     <!-- IoU=0.50 -->
     <g style="fill:#262626;" transform="translate(398.071976 92.022156)scale(0.11 -0.11)">
      <use xlink:href="#DejaVuSans-73"/>
      <use x="29.492188" xlink:href="#DejaVuSans-111"/>
      <use x="90.673828" xlink:href="#DejaVuSans-85"/>
      <use x="163.867188" xlink:href="#DejaVuSans-61"/>
      <use x="247.65625" xlink:href="#DejaVuSans-48"/>
      <use x="311.279297" xlink:href="#DejaVuSans-46"/>
      <use x="343.066406" xlink:href="#DejaVuSans-53"/>
      <use x="406.689453" xlink:href="#DejaVuSans-48"/>
     </g>
    </g>
   </g>
  </g>
  <g id="axes_2">
   <g id="patch_8">
    <path d="M 550.927059 307.584 
L 866.032941 307.584 
L 866.032941 41.472 
L 550.927059 41.472 
z
" style="fill:#eaeaf2;"/>
   </g>
   <g id="matplotlib.axis_3">
    <g id="xtick_10">
     <g id="line2d_26">
      <path clip-path="url(#p9d219b9873)" d="M 565.250053 307.584 
L 565.250053 41.472 
" style="fill:none;stroke:#ffffff;stroke-linecap:round;"/>
     </g>
     <g id="text_20">
      <!-- 0.00 -->
      <g style="fill:#262626;" transform="translate(553.00396 325.442281)scale(0.11 -0.11)">
       <use xlink:href="#DejaVuSans-48"/>
       <use x="63.623047" xlink:href="#DejaVuSans-46"/>
       <use x="95.410156" xlink:href="#DejaVuSans-48"/>
       <use x="159.033203" xlink:href="#DejaVuSans-48"/>
      </g>
     </g>
    </g>
    <g id="xtick_11">
     <g id="line2d_27">
      <path clip-path="url(#p9d219b9873)" d="M 601.05754 307.584 
L 601.05754 41.472 
" style="fill:none;stroke:#ffffff;stroke-linecap:round;"/>
     </g>
     <g id="text_21">
      <!-- 0.25 -->
      <g style="fill:#262626;" transform="translate(588.811446 325.442281)scale(0.11 -0.11)">
       <use xlink:href="#DejaVuSans-48"/>
       <use x="63.623047" xlink:href="#DejaVuSans-46"/>
       <use x="95.410156" xlink:href="#DejaVuSans-50"/>
       <use x="159.033203" xlink:href="#DejaVuSans-53"/>
      </g>
     </g>
    </g>
    <g id="xtick_12">
     <g id="line2d_28">
      <path clip-path="url(#p9d219b9873)" d="M 636.865027 307.584 
L 636.865027 41.472 
" style="fill:none;stroke:#ffffff;stroke-linecap:round;"/>
     </g>
     <g id="text_22">
      <!-- 0.50 -->
      <g style="fill:#262626;" transform="translate(624.618933 325.442281)scale(0.11 -0.11)">
       <use xlink:href="#DejaVuSans-48"/>
       <use x="63.623047" xlink:href="#DejaVuSans-46"/>
       <use x="95.410156" xlink:href="#DejaVuSans-53"/>
       <use x="159.033203" xlink:href="#DejaVuSans-48"/>
      </g>
     </g>
    </g>
    <g id="xtick_13">
     <g id="line2d_29">
      <path clip-path="url(#p9d219b9873)" d="M 672.672513 307.584 
L 672.672513 41.472 
" style="fill:none;stroke:#ffffff;stroke-linecap:round;"/>
     </g>
     <g id="text_23">
      <!-- 0.75 -->
      <g style="fill:#262626;" transform="translate(660.42642 325.442281)scale(0.11 -0.11)">
       <use xlink:href="#DejaVuSans-48"/>
       <use x="63.623047" xlink:href="#DejaVuSans-46"/>
       <use x="95.410156" xlink:href="#DejaVuSans-55"/>
       <use x="159.033203" xlink:href="#DejaVuSans-53"/>
      </g>
     </g>
    </g>
    <g id="xtick_14">
     <g id="line2d_30">
      <path clip-path="url(#p9d219b9873)" d="M 708.48 307.584 
L 708.48 41.472 
" style="fill:none;stroke:#ffffff;stroke-linecap:round;"/>
     </g>
     <g id="text_24">
      <!-- 1.00 -->
      <g style="fill:#262626;" transform="translate(696.233906 325.442281)scale(0.11 -0.11)">
       <use xlink:href="#DejaVuSans-49"/>
       <use x="63.623047" xlink:href="#DejaVuSans-46"/>
       <use x="95.410156" xlink:href="#DejaVuSans-48"/>
       <use x="159.033203" xlink:href="#DejaVuSans-48"/>
      </g>
     </g>
    </g>
    <g id="xtick_15">
     <g id="line2d_31">
      <path clip-path="url(#p9d219b9873)" d="M 744.287487 307.584 
L 744.287487 41.472 
" style="fill:none;stroke:#ffffff;stroke-linecap:round;"/>
     </g>
     <g id="text_25">
      <!-- 1.25 -->
      <g style="fill:#262626;" transform="translate(732.041393 325.442281)scale(0.11 -0.11)">
       <use xlink:href="#DejaVuSans-49"/>
       <use x="63.623047" xlink:href="#DejaVuSans-46"/>
       <use x="95.410156" xlink:href="#DejaVuSans-50"/>
       <use x="159.033203" xlink:href="#DejaVuSans-53"/>
      </g>
     </g>
    </g>
    <g id="xtick_16">
     <g id="line2d_32">
      <path clip-path="url(#p9d219b9873)" d="M 780.094973 307.584 
L 780.094973 41.472 
" style="fill:none;stroke:#ffffff;stroke-linecap:round;"/>
     </g>
     <g id="text_26">
      <!-- 1.50 -->
      <g style="fill:#262626;" transform="translate(767.84888 325.442281)scale(0.11 -0.11)">
       <use xlink:href="#DejaVuSans-49"/>
       <use x="63.623047" xlink:href="#DejaVuSans-46"/>
       <use x="95.410156" xlink:href="#DejaVuSans-53"/>
       <use x="159.033203" xlink:href="#DejaVuSans-48"/>
      </g>
     </g>
    </g>
    <g id="xtick_17">
     <g id="line2d_33">
      <path clip-path="url(#p9d219b9873)" d="M 815.90246 307.584 
L 815.90246 41.472 
" style="fill:none;stroke:#ffffff;stroke-linecap:round;"/>
     </g>
     <g id="text_27">
      <!-- 1.75 -->
      <g style="fill:#262626;" transform="translate(803.656366 325.442281)scale(0.11 -0.11)">
       <use xlink:href="#DejaVuSans-49"/>
       <use x="63.623047" xlink:href="#DejaVuSans-46"/>
       <use x="95.410156" xlink:href="#DejaVuSans-55"/>
       <use x="159.033203" xlink:href="#DejaVuSans-53"/>
      </g>
     </g>
    </g>
    <g id="xtick_18">
     <g id="line2d_34">
      <path clip-path="url(#p9d219b9873)" d="M 851.709947 307.584 
L 851.709947 41.472 
" style="fill:none;stroke:#ffffff;stroke-linecap:round;"/>
     </g>
     <g id="text_28">
      <!-- 2.00 -->
      <g style="fill:#262626;" transform="translate(839.463853 325.442281)scale(0.11 -0.11)">
       <use xlink:href="#DejaVuSans-50"/>
       <use x="63.623047" xlink:href="#DejaVuSans-46"/>
       <use x="95.410156" xlink:href="#DejaVuSans-48"/>
       <use x="159.033203" xlink:href="#DejaVuSans-48"/>
      </g>
     </g>
    </g>
    <g id="text_29">
     <!-- defect finding weight -->
     <g style="fill:#262626;" transform="translate(644.811563 340.848062)scale(0.12 -0.12)">
      <use xlink:href="#DejaVuSans-100"/>
      <use x="63.476562" xlink:href="#DejaVuSans-101"/>
      <use x="125" xlink:href="#DejaVuSans-102"/>
      <use x="160.205078" xlink:href="#DejaVuSans-101"/>
      <use x="221.728516" xlink:href="#DejaVuSans-99"/>
      <use x="276.708984" xlink:href="#DejaVuSans-116"/>
      <use x="315.917969" xlink:href="#DejaVuSans-32"/>
      <use x="347.705078" xlink:href="#DejaVuSans-102"/>
      <use x="382.910156" xlink:href="#DejaVuSans-105"/>
      <use x="410.693359" xlink:href="#DejaVuSans-110"/>
      <use x="474.072266" xlink:href="#DejaVuSans-100"/>
      <use x="537.548828" xlink:href="#DejaVuSans-105"/>
      <use x="565.332031" xlink:href="#DejaVuSans-110"/>
      <use x="628.710938" xlink:href="#DejaVuSans-103"/>
      <use x="692.1875" xlink:href="#DejaVuSans-32"/>
      <use x="723.974609" xlink:href="#DejaVuSans-119"/>
      <use x="805.761719" xlink:href="#DejaVuSans-101"/>
      <use x="867.285156" xlink:href="#DejaVuSans-105"/>
      <use x="895.068359" xlink:href="#DejaVuSans-103"/>
      <use x="958.544922" xlink:href="#DejaVuSans-104"/>
      <use x="1021.923828" xlink:href="#DejaVuSans-116"/>
     </g>
    </g>
   </g>
   <g id="matplotlib.axis_4">
    <g id="ytick_6">
     <g id="line2d_35">
      <path clip-path="url(#p9d219b9873)" d="M 550.927059 306.644537 
L 866.032941 306.644537 
" style="fill:none;stroke:#ffffff;stroke-linecap:round;"/>
     </g>
     <g id="text_30">
      <!-- 0.82 -->
      <defs>
       <path d="M 31.78125 34.625 
Q 24.75 34.625 20.71875 30.859375 
Q 16.703125 27.09375 16.703125 20.515625 
Q 16.703125 13.921875 20.71875 10.15625 
Q 24.75 6.390625 31.78125 6.390625 
Q 38.8125 6.390625 42.859375 10.171875 
Q 46.921875 13.96875 46.921875 20.515625 
Q 46.921875 27.09375 42.890625 30.859375 
Q 38.875 34.625 31.78125 34.625 
z
M 21.921875 38.8125 
Q 15.578125 40.375 12.03125 44.71875 
Q 8.5 49.078125 8.5 55.328125 
Q 8.5 64.0625 14.71875 69.140625 
Q 20.953125 74.21875 31.78125 74.21875 
Q 42.671875 74.21875 48.875 69.140625 
Q 55.078125 64.0625 55.078125 55.328125 
Q 55.078125 49.078125 51.53125 44.71875 
Q 48 40.375 41.703125 38.8125 
Q 48.828125 37.15625 52.796875 32.3125 
Q 56.78125 27.484375 56.78125 20.515625 
Q 56.78125 9.90625 50.3125 4.234375 
Q 43.84375 -1.421875 31.78125 -1.421875 
Q 19.734375 -1.421875 13.25 4.234375 
Q 6.78125 9.90625 6.78125 20.515625 
Q 6.78125 27.484375 10.78125 32.3125 
Q 14.796875 37.15625 21.921875 38.8125 
z
M 18.3125 54.390625 
Q 18.3125 48.734375 21.84375 45.5625 
Q 25.390625 42.390625 31.78125 42.390625 
Q 38.140625 42.390625 41.71875 45.5625 
Q 45.3125 48.734375 45.3125 54.390625 
Q 45.3125 60.0625 41.71875 63.234375 
Q 38.140625 66.40625 31.78125 66.40625 
Q 25.390625 66.40625 21.84375 63.234375 
Q 18.3125 60.0625 18.3125 54.390625 
z
" id="DejaVuSans-56"/>
      </defs>
      <g style="fill:#262626;" transform="translate(516.934871 310.823677)scale(0.11 -0.11)">
       <use xlink:href="#DejaVuSans-48"/>
       <use x="63.623047" xlink:href="#DejaVuSans-46"/>
       <use x="95.410156" xlink:href="#DejaVuSans-56"/>
       <use x="159.033203" xlink:href="#DejaVuSans-50"/>
      </g>
     </g>
    </g>
    <g id="ytick_7">
     <g id="line2d_36">
      <path clip-path="url(#p9d219b9873)" d="M 550.927059 263.024274 
L 866.032941 263.024274 
" style="fill:none;stroke:#ffffff;stroke-linecap:round;"/>
     </g>
     <g id="text_31">
      <!-- 0.84 -->
      <g style="fill:#262626;" transform="translate(516.934871 267.203414)scale(0.11 -0.11)">
       <use xlink:href="#DejaVuSans-48"/>
       <use x="63.623047" xlink:href="#DejaVuSans-46"/>
       <use x="95.410156" xlink:href="#DejaVuSans-56"/>
       <use x="159.033203" xlink:href="#DejaVuSans-52"/>
      </g>
     </g>
    </g>
    <g id="ytick_8">
     <g id="line2d_37">
      <path clip-path="url(#p9d219b9873)" d="M 550.927059 219.404011 
L 866.032941 219.404011 
" style="fill:none;stroke:#ffffff;stroke-linecap:round;"/>
     </g>
     <g id="text_32">
      <!-- 0.86 -->
      <g style="fill:#262626;" transform="translate(516.934871 223.583152)scale(0.11 -0.11)">
       <use xlink:href="#DejaVuSans-48"/>
       <use x="63.623047" xlink:href="#DejaVuSans-46"/>
       <use x="95.410156" xlink:href="#DejaVuSans-56"/>
       <use x="159.033203" xlink:href="#DejaVuSans-54"/>
      </g>
     </g>
    </g>
    <g id="ytick_9">
     <g id="line2d_38">
      <path clip-path="url(#p9d219b9873)" d="M 550.927059 175.783748 
L 866.032941 175.783748 
" style="fill:none;stroke:#ffffff;stroke-linecap:round;"/>
     </g>
     <g id="text_33">
      <!-- 0.88 -->
      <g style="fill:#262626;" transform="translate(516.934871 179.962889)scale(0.11 -0.11)">
       <use xlink:href="#DejaVuSans-48"/>
       <use x="63.623047" xlink:href="#DejaVuSans-46"/>
       <use x="95.410156" xlink:href="#DejaVuSans-56"/>
       <use x="159.033203" xlink:href="#DejaVuSans-56"/>
      </g>
     </g>
    </g>
    <g id="ytick_10">
     <g id="line2d_39">
      <path clip-path="url(#p9d219b9873)" d="M 550.927059 132.163485 
L 866.032941 132.163485 
" style="fill:none;stroke:#ffffff;stroke-linecap:round;"/>
     </g>
     <g id="text_34">
      <!-- 0.90 -->
      <g style="fill:#262626;" transform="translate(516.934871 136.342626)scale(0.11 -0.11)">
       <use xlink:href="#DejaVuSans-48"/>
       <use x="63.623047" xlink:href="#DejaVuSans-46"/>
       <use x="95.410156" xlink:href="#DejaVuSans-57"/>
       <use x="159.033203" xlink:href="#DejaVuSans-48"/>
      </g>
     </g>
    </g>
    <g id="ytick_11">
     <g id="line2d_40">
      <path clip-path="url(#p9d219b9873)" d="M 550.927059 88.543222 
L 866.032941 88.543222 
" style="fill:none;stroke:#ffffff;stroke-linecap:round;"/>
     </g>
     <g id="text_35">
      <!-- 0.92 -->
      <g style="fill:#262626;" transform="translate(516.934871 92.722363)scale(0.11 -0.11)">
       <use xlink:href="#DejaVuSans-48"/>
       <use x="63.623047" xlink:href="#DejaVuSans-46"/>
       <use x="95.410156" xlink:href="#DejaVuSans-57"/>
       <use x="159.033203" xlink:href="#DejaVuSans-50"/>
      </g>
     </g>
    </g>
    <g id="ytick_12">
     <g id="line2d_41">
      <path clip-path="url(#p9d219b9873)" d="M 550.927059 44.92296 
L 866.032941 44.92296 
" style="fill:none;stroke:#ffffff;stroke-linecap:round;"/>
     </g>
     <g id="text_36">
      <!-- 0.94 -->
      <g style="fill:#262626;" transform="translate(516.934871 49.1021)scale(0.11 -0.11)">
       <use xlink:href="#DejaVuSans-48"/>
       <use x="63.623047" xlink:href="#DejaVuSans-46"/>
       <use x="95.410156" xlink:href="#DejaVuSans-57"/>
       <use x="159.033203" xlink:href="#DejaVuSans-52"/>
      </g>
     </g>
    </g>
    <g id="text_37">
     <!-- macro average f1-score -->
     <defs>
      <path d="M 52 44.1875 
Q 55.375 50.25 60.0625 53.125 
Q 64.75 56 71.09375 56 
Q 79.640625 56 84.28125 50.015625 
Q 88.921875 44.046875 88.921875 33.015625 
L 88.921875 0 
L 79.890625 0 
L 79.890625 32.71875 
Q 79.890625 40.578125 77.09375 44.375 
Q 74.3125 48.1875 68.609375 48.1875 
Q 61.625 48.1875 57.5625 43.546875 
Q 53.515625 38.921875 53.515625 30.90625 
L 53.515625 0 
L 44.484375 0 
L 44.484375 32.71875 
Q 44.484375 40.625 41.703125 44.40625 
Q 38.921875 48.1875 33.109375 48.1875 
Q 26.21875 48.1875 22.15625 43.53125 
Q 18.109375 38.875 18.109375 30.90625 
L 18.109375 0 
L 9.078125 0 
L 9.078125 54.6875 
L 18.109375 54.6875 
L 18.109375 46.1875 
Q 21.1875 51.21875 25.484375 53.609375 
Q 29.78125 56 35.6875 56 
Q 41.65625 56 45.828125 52.96875 
Q 50 49.953125 52 44.1875 
z
" id="DejaVuSans-109"/>
      <path d="M 4.890625 31.390625 
L 31.203125 31.390625 
L 31.203125 23.390625 
L 4.890625 23.390625 
z
" id="DejaVuSans-45"/>
     </defs>
     <g style="fill:#262626;" transform="translate(510.439246 245.943)rotate(-90)scale(0.12 -0.12)">
      <use xlink:href="#DejaVuSans-109"/>
      <use x="97.412109" xlink:href="#DejaVuSans-97"/>
      <use x="158.691406" xlink:href="#DejaVuSans-99"/>
      <use x="213.671875" xlink:href="#DejaVuSans-114"/>
      <use x="252.535156" xlink:href="#DejaVuSans-111"/>
      <use x="313.716797" xlink:href="#DejaVuSans-32"/>
      <use x="345.503906" xlink:href="#DejaVuSans-97"/>
      <use x="406.783203" xlink:href="#DejaVuSans-118"/>
      <use x="465.962891" xlink:href="#DejaVuSans-101"/>
      <use x="527.486328" xlink:href="#DejaVuSans-114"/>
      <use x="568.599609" xlink:href="#DejaVuSans-97"/>
      <use x="629.878906" xlink:href="#DejaVuSans-103"/>
      <use x="693.355469" xlink:href="#DejaVuSans-101"/>
      <use x="754.878906" xlink:href="#DejaVuSans-32"/>
      <use x="786.666016" xlink:href="#DejaVuSans-102"/>
      <use x="821.871094" xlink:href="#DejaVuSans-49"/>
      <use x="885.494141" xlink:href="#DejaVuSans-45"/>
      <use x="921.578125" xlink:href="#DejaVuSans-115"/>
      <use x="973.677734" xlink:href="#DejaVuSans-99"/>
      <use x="1028.658203" xlink:href="#DejaVuSans-111"/>
      <use x="1089.839844" xlink:href="#DejaVuSans-114"/>
      <use x="1128.703125" xlink:href="#DejaVuSans-101"/>
     </g>
    </g>
   </g>
   <g id="line2d_42">
    <path clip-path="url(#p9d219b9873)" d="M 565.250053 295.488 
L 579.573048 62.868463 
L 593.896043 53.568 
L 608.219037 75.532829 
L 622.542032 62.449086 
L 636.865027 70.539435 
L 651.188021 76.926262 
L 665.511016 86.257444 
L 679.834011 82.825447 
L 694.157005 96.086743 
L 708.48 119.939518 
L 722.802995 107.193742 
L 737.125989 117.573109 
L 751.448984 125.750118 
L 765.771979 125.750118 
L 780.094973 115.837589 
L 794.417968 114.093832 
L 808.740963 144.535464 
L 823.063957 174.050307 
L 837.386952 142.996798 
L 851.709947 97.151938 
" style="fill:none;stroke:#4c72b0;stroke-linecap:round;stroke-width:1.5;"/>
    <g clip-path="url(#p9d219b9873)">
     <use style="fill:#4c72b0;stroke:#ffffff;stroke-width:0.75;" x="565.250053" xlink:href="#m52706a8113" y="295.488"/>
     <use style="fill:#4c72b0;stroke:#ffffff;stroke-width:0.75;" x="579.573048" xlink:href="#m52706a8113" y="62.868463"/>
     <use style="fill:#4c72b0;stroke:#ffffff;stroke-width:0.75;" x="593.896043" xlink:href="#m52706a8113" y="53.568"/>
     <use style="fill:#4c72b0;stroke:#ffffff;stroke-width:0.75;" x="608.219037" xlink:href="#m52706a8113" y="75.532829"/>
     <use style="fill:#4c72b0;stroke:#ffffff;stroke-width:0.75;" x="622.542032" xlink:href="#m52706a8113" y="62.449086"/>
     <use style="fill:#4c72b0;stroke:#ffffff;stroke-width:0.75;" x="636.865027" xlink:href="#m52706a8113" y="70.539435"/>
     <use style="fill:#4c72b0;stroke:#ffffff;stroke-width:0.75;" x="651.188021" xlink:href="#m52706a8113" y="76.926262"/>
     <use style="fill:#4c72b0;stroke:#ffffff;stroke-width:0.75;" x="665.511016" xlink:href="#m52706a8113" y="86.257444"/>
     <use style="fill:#4c72b0;stroke:#ffffff;stroke-width:0.75;" x="679.834011" xlink:href="#m52706a8113" y="82.825447"/>
     <use style="fill:#4c72b0;stroke:#ffffff;stroke-width:0.75;" x="694.157005" xlink:href="#m52706a8113" y="96.086743"/>
     <use style="fill:#4c72b0;stroke:#ffffff;stroke-width:0.75;" x="708.48" xlink:href="#m52706a8113" y="119.939518"/>
     <use style="fill:#4c72b0;stroke:#ffffff;stroke-width:0.75;" x="722.802995" xlink:href="#m52706a8113" y="107.193742"/>
     <use style="fill:#4c72b0;stroke:#ffffff;stroke-width:0.75;" x="737.125989" xlink:href="#m52706a8113" y="117.573109"/>
     <use style="fill:#4c72b0;stroke:#ffffff;stroke-width:0.75;" x="751.448984" xlink:href="#m52706a8113" y="125.750118"/>
     <use style="fill:#4c72b0;stroke:#ffffff;stroke-width:0.75;" x="765.771979" xlink:href="#m52706a8113" y="125.750118"/>
     <use style="fill:#4c72b0;stroke:#ffffff;stroke-width:0.75;" x="780.094973" xlink:href="#m52706a8113" y="115.837589"/>
     <use style="fill:#4c72b0;stroke:#ffffff;stroke-width:0.75;" x="794.417968" xlink:href="#m52706a8113" y="114.093832"/>
     <use style="fill:#4c72b0;stroke:#ffffff;stroke-width:0.75;" x="808.740963" xlink:href="#m52706a8113" y="144.535464"/>
     <use style="fill:#4c72b0;stroke:#ffffff;stroke-width:0.75;" x="823.063957" xlink:href="#m52706a8113" y="174.050307"/>
     <use style="fill:#4c72b0;stroke:#ffffff;stroke-width:0.75;" x="837.386952" xlink:href="#m52706a8113" y="142.996798"/>
     <use style="fill:#4c72b0;stroke:#ffffff;stroke-width:0.75;" x="851.709947" xlink:href="#m52706a8113" y="97.151938"/>
    </g>
   </g>
   <g id="line2d_43"/>
   <g id="line2d_44"/>
   <g id="patch_9">
    <path d="M 550.927059 307.584 
L 550.927059 41.472 
" style="fill:none;stroke:#ffffff;stroke-linecap:square;stroke-linejoin:miter;stroke-width:1.25;"/>
   </g>
   <g id="patch_10">
    <path d="M 866.032941 307.584 
L 866.032941 41.472 
" style="fill:none;stroke:#ffffff;stroke-linecap:square;stroke-linejoin:miter;stroke-width:1.25;"/>
   </g>
   <g id="patch_11">
    <path d="M 550.927059 307.584 
L 866.032941 307.584 
" style="fill:none;stroke:#ffffff;stroke-linecap:square;stroke-linejoin:miter;stroke-width:1.25;"/>
   </g>
   <g id="patch_12">
    <path d="M 550.927059 41.472 
L 866.032941 41.472 
" style="fill:none;stroke:#ffffff;stroke-linecap:square;stroke-linejoin:miter;stroke-width:1.25;"/>
   </g>
   <g id="legend_2">
    <g id="patch_13">
     <path d="M 778.741066 82.563875 
L 858.332941 82.563875 
Q 860.532941 82.563875 860.532941 80.363875 
L 860.532941 49.172 
Q 860.532941 46.972 858.332941 46.972 
L 778.741066 46.972 
Q 776.541066 46.972 776.541066 49.172 
L 776.541066 80.363875 
Q 776.541066 82.563875 778.741066 82.563875 
z
" style="fill:#eaeaf2;opacity:0.8;stroke:#cccccc;stroke-linejoin:miter;"/>
    </g>
    <g id="line2d_45">
     <path d="M 780.941066 55.880281 
L 802.941066 55.880281 
" style="fill:none;"/>
    </g>
    <g id="line2d_46"/>
    <g id="text_38">
     <!-- type -->
     <g style="fill:#262626;" transform="translate(811.741066 59.730281)scale(0.11 -0.11)">
      <use xlink:href="#DejaVuSans-116"/>
      <use x="39.208984" xlink:href="#DejaVuSans-121"/>
      <use x="98.388672" xlink:href="#DejaVuSans-112"/>
      <use x="161.865234" xlink:href="#DejaVuSans-101"/>
     </g>
    </g>
    <g id="line2d_47">
     <path d="M 780.941066 72.026219 
L 802.941066 72.026219 
" style="fill:none;stroke:#4c72b0;stroke-linecap:round;stroke-width:1.5;"/>
    </g>
    <g id="line2d_48">
     <g>
      <use style="fill:#4c72b0;stroke:#4c72b0;" x="791.941066" xlink:href="#mc0e0661206" y="72.026219"/>
     </g>
    </g>
    <g id="text_39">
     <!-- f1-score -->
     <g style="fill:#262626;" transform="translate(811.741066 75.876219)scale(0.11 -0.11)">
      <use xlink:href="#DejaVuSans-102"/>
      <use x="35.205078" xlink:href="#DejaVuSans-49"/>
      <use x="98.828125" xlink:href="#DejaVuSans-45"/>
      <use x="134.912109" xlink:href="#DejaVuSans-115"/>
      <use x="187.011719" xlink:href="#DejaVuSans-99"/>
      <use x="241.992188" xlink:href="#DejaVuSans-111"/>
      <use x="303.173828" xlink:href="#DejaVuSans-114"/>
      <use x="342.037109" xlink:href="#DejaVuSans-101"/>
     </g>
    </g>
   </g>
  </g>
  <g id="axes_3">
   <g id="patch_14">
    <path d="M 929.054118 307.584 
L 1244.16 307.584 
L 1244.16 41.472 
L 929.054118 41.472 
z
" style="fill:#eaeaf2;"/>
   </g>
   <g id="matplotlib.axis_5">
    <g id="xtick_19">
     <g id="line2d_49">
      <path clip-path="url(#p5f0cdadb46)" d="M 943.377112 307.584 
L 943.377112 41.472 
" style="fill:none;stroke:#ffffff;stroke-linecap:round;"/>
     </g>
     <g id="text_40">
      <!-- 0.00 -->
      <g style="fill:#262626;" transform="translate(931.131019 325.442281)scale(0.11 -0.11)">
       <use xlink:href="#DejaVuSans-48"/>
       <use x="63.623047" xlink:href="#DejaVuSans-46"/>
       <use x="95.410156" xlink:href="#DejaVuSans-48"/>
       <use x="159.033203" xlink:href="#DejaVuSans-48"/>
      </g>
     </g>
    </g>
    <g id="xtick_20">
     <g id="line2d_50">
      <path clip-path="url(#p5f0cdadb46)" d="M 979.184599 307.584 
L 979.184599 41.472 
" style="fill:none;stroke:#ffffff;stroke-linecap:round;"/>
     </g>
     <g id="text_41">
      <!-- 0.25 -->
      <g style="fill:#262626;" transform="translate(966.938505 325.442281)scale(0.11 -0.11)">
       <use xlink:href="#DejaVuSans-48"/>
       <use x="63.623047" xlink:href="#DejaVuSans-46"/>
       <use x="95.410156" xlink:href="#DejaVuSans-50"/>
       <use x="159.033203" xlink:href="#DejaVuSans-53"/>
      </g>
     </g>
    </g>
    <g id="xtick_21">
     <g id="line2d_51">
      <path clip-path="url(#p5f0cdadb46)" d="M 1014.992086 307.584 
L 1014.992086 41.472 
" style="fill:none;stroke:#ffffff;stroke-linecap:round;"/>
     </g>
     <g id="text_42">
      <!-- 0.50 -->
      <g style="fill:#262626;" transform="translate(1002.745992 325.442281)scale(0.11 -0.11)">
       <use xlink:href="#DejaVuSans-48"/>
       <use x="63.623047" xlink:href="#DejaVuSans-46"/>
       <use x="95.410156" xlink:href="#DejaVuSans-53"/>
       <use x="159.033203" xlink:href="#DejaVuSans-48"/>
      </g>
     </g>
    </g>
    <g id="xtick_22">
     <g id="line2d_52">
      <path clip-path="url(#p5f0cdadb46)" d="M 1050.799572 307.584 
L 1050.799572 41.472 
" style="fill:none;stroke:#ffffff;stroke-linecap:round;"/>
     </g>
     <g id="text_43">
      <!-- 0.75 -->
      <g style="fill:#262626;" transform="translate(1038.553478 325.442281)scale(0.11 -0.11)">
       <use xlink:href="#DejaVuSans-48"/>
       <use x="63.623047" xlink:href="#DejaVuSans-46"/>
       <use x="95.410156" xlink:href="#DejaVuSans-55"/>
       <use x="159.033203" xlink:href="#DejaVuSans-53"/>
      </g>
     </g>
    </g>
    <g id="xtick_23">
     <g id="line2d_53">
      <path clip-path="url(#p5f0cdadb46)" d="M 1086.607059 307.584 
L 1086.607059 41.472 
" style="fill:none;stroke:#ffffff;stroke-linecap:round;"/>
     </g>
     <g id="text_44">
      <!-- 1.00 -->
      <g style="fill:#262626;" transform="translate(1074.360965 325.442281)scale(0.11 -0.11)">
       <use xlink:href="#DejaVuSans-49"/>
       <use x="63.623047" xlink:href="#DejaVuSans-46"/>
       <use x="95.410156" xlink:href="#DejaVuSans-48"/>
       <use x="159.033203" xlink:href="#DejaVuSans-48"/>
      </g>
     </g>
    </g>
    <g id="xtick_24">
     <g id="line2d_54">
      <path clip-path="url(#p5f0cdadb46)" d="M 1122.414545 307.584 
L 1122.414545 41.472 
" style="fill:none;stroke:#ffffff;stroke-linecap:round;"/>
     </g>
     <g id="text_45">
      <!-- 1.25 -->
      <g style="fill:#262626;" transform="translate(1110.168452 325.442281)scale(0.11 -0.11)">
       <use xlink:href="#DejaVuSans-49"/>
       <use x="63.623047" xlink:href="#DejaVuSans-46"/>
       <use x="95.410156" xlink:href="#DejaVuSans-50"/>
       <use x="159.033203" xlink:href="#DejaVuSans-53"/>
      </g>
     </g>
    </g>
    <g id="xtick_25">
     <g id="line2d_55">
      <path clip-path="url(#p5f0cdadb46)" d="M 1158.222032 307.584 
L 1158.222032 41.472 
" style="fill:none;stroke:#ffffff;stroke-linecap:round;"/>
     </g>
     <g id="text_46">
      <!-- 1.50 -->
      <g style="fill:#262626;" transform="translate(1145.975938 325.442281)scale(0.11 -0.11)">
       <use xlink:href="#DejaVuSans-49"/>
       <use x="63.623047" xlink:href="#DejaVuSans-46"/>
       <use x="95.410156" xlink:href="#DejaVuSans-53"/>
       <use x="159.033203" xlink:href="#DejaVuSans-48"/>
      </g>
     </g>
    </g>
    <g id="xtick_26">
     <g id="line2d_56">
      <path clip-path="url(#p5f0cdadb46)" d="M 1194.029519 307.584 
L 1194.029519 41.472 
" style="fill:none;stroke:#ffffff;stroke-linecap:round;"/>
     </g>
     <g id="text_47">
      <!-- 1.75 -->
      <g style="fill:#262626;" transform="translate(1181.783425 325.442281)scale(0.11 -0.11)">
       <use xlink:href="#DejaVuSans-49"/>
       <use x="63.623047" xlink:href="#DejaVuSans-46"/>
       <use x="95.410156" xlink:href="#DejaVuSans-55"/>
       <use x="159.033203" xlink:href="#DejaVuSans-53"/>
      </g>
     </g>
    </g>
    <g id="xtick_27">
     <g id="line2d_57">
      <path clip-path="url(#p5f0cdadb46)" d="M 1229.837005 307.584 
L 1229.837005 41.472 
" style="fill:none;stroke:#ffffff;stroke-linecap:round;"/>
     </g>
     <g id="text_48">
      <!-- 2.00 -->
      <g style="fill:#262626;" transform="translate(1217.590912 325.442281)scale(0.11 -0.11)">
       <use xlink:href="#DejaVuSans-50"/>
       <use x="63.623047" xlink:href="#DejaVuSans-46"/>
       <use x="95.410156" xlink:href="#DejaVuSans-48"/>
       <use x="159.033203" xlink:href="#DejaVuSans-48"/>
      </g>
     </g>
    </g>
    <g id="text_49">
     <!-- defect finding weight -->
     <g style="fill:#262626;" transform="translate(1022.938621 340.848062)scale(0.12 -0.12)">
      <use xlink:href="#DejaVuSans-100"/>
      <use x="63.476562" xlink:href="#DejaVuSans-101"/>
      <use x="125" xlink:href="#DejaVuSans-102"/>
      <use x="160.205078" xlink:href="#DejaVuSans-101"/>
      <use x="221.728516" xlink:href="#DejaVuSans-99"/>
      <use x="276.708984" xlink:href="#DejaVuSans-116"/>
      <use x="315.917969" xlink:href="#DejaVuSans-32"/>
      <use x="347.705078" xlink:href="#DejaVuSans-102"/>
      <use x="382.910156" xlink:href="#DejaVuSans-105"/>
      <use x="410.693359" xlink:href="#DejaVuSans-110"/>
      <use x="474.072266" xlink:href="#DejaVuSans-100"/>
      <use x="537.548828" xlink:href="#DejaVuSans-105"/>
      <use x="565.332031" xlink:href="#DejaVuSans-110"/>
      <use x="628.710938" xlink:href="#DejaVuSans-103"/>
      <use x="692.1875" xlink:href="#DejaVuSans-32"/>
      <use x="723.974609" xlink:href="#DejaVuSans-119"/>
      <use x="805.761719" xlink:href="#DejaVuSans-101"/>
      <use x="867.285156" xlink:href="#DejaVuSans-105"/>
      <use x="895.068359" xlink:href="#DejaVuSans-103"/>
      <use x="958.544922" xlink:href="#DejaVuSans-104"/>
      <use x="1021.923828" xlink:href="#DejaVuSans-116"/>
     </g>
    </g>
   </g>
   <g id="matplotlib.axis_6">
    <g id="ytick_13">
     <g id="line2d_58">
      <path clip-path="url(#p5f0cdadb46)" d="M 929.054118 292.920606 
L 1244.16 292.920606 
" style="fill:none;stroke:#ffffff;stroke-linecap:round;"/>
     </g>
     <g id="text_50">
      <!-- 0.040 -->
      <g style="fill:#262626;" transform="translate(888.06318 297.099747)scale(0.11 -0.11)">
       <use xlink:href="#DejaVuSans-48"/>
       <use x="63.623047" xlink:href="#DejaVuSans-46"/>
       <use x="95.410156" xlink:href="#DejaVuSans-48"/>
       <use x="159.033203" xlink:href="#DejaVuSans-52"/>
       <use x="222.65625" xlink:href="#DejaVuSans-48"/>
      </g>
     </g>
    </g>
    <g id="ytick_14">
     <g id="line2d_59">
      <path clip-path="url(#p5f0cdadb46)" d="M 929.054118 263.163182 
L 1244.16 263.163182 
" style="fill:none;stroke:#ffffff;stroke-linecap:round;"/>
     </g>
     <g id="text_51">
      <!-- 0.045 -->
      <g style="fill:#262626;" transform="translate(888.06318 267.342323)scale(0.11 -0.11)">
       <use xlink:href="#DejaVuSans-48"/>
       <use x="63.623047" xlink:href="#DejaVuSans-46"/>
       <use x="95.410156" xlink:href="#DejaVuSans-48"/>
       <use x="159.033203" xlink:href="#DejaVuSans-52"/>
       <use x="222.65625" xlink:href="#DejaVuSans-53"/>
      </g>
     </g>
    </g>
    <g id="ytick_15">
     <g id="line2d_60">
      <path clip-path="url(#p5f0cdadb46)" d="M 929.054118 233.405759 
L 1244.16 233.405759 
" style="fill:none;stroke:#ffffff;stroke-linecap:round;"/>
     </g>
     <g id="text_52">
      <!-- 0.050 -->
      <g style="fill:#262626;" transform="translate(888.06318 237.5849)scale(0.11 -0.11)">
       <use xlink:href="#DejaVuSans-48"/>
       <use x="63.623047" xlink:href="#DejaVuSans-46"/>
       <use x="95.410156" xlink:href="#DejaVuSans-48"/>
       <use x="159.033203" xlink:href="#DejaVuSans-53"/>
       <use x="222.65625" xlink:href="#DejaVuSans-48"/>
      </g>
     </g>
    </g>
    <g id="ytick_16">
     <g id="line2d_61">
      <path clip-path="url(#p5f0cdadb46)" d="M 929.054118 203.648335 
L 1244.16 203.648335 
" style="fill:none;stroke:#ffffff;stroke-linecap:round;"/>
     </g>
     <g id="text_53">
      <!-- 0.055 -->
      <g style="fill:#262626;" transform="translate(888.06318 207.827476)scale(0.11 -0.11)">
       <use xlink:href="#DejaVuSans-48"/>
       <use x="63.623047" xlink:href="#DejaVuSans-46"/>
       <use x="95.410156" xlink:href="#DejaVuSans-48"/>
       <use x="159.033203" xlink:href="#DejaVuSans-53"/>
       <use x="222.65625" xlink:href="#DejaVuSans-53"/>
      </g>
     </g>
    </g>
    <g id="ytick_17">
     <g id="line2d_62">
      <path clip-path="url(#p5f0cdadb46)" d="M 929.054118 173.890912 
L 1244.16 173.890912 
" style="fill:none;stroke:#ffffff;stroke-linecap:round;"/>
     </g>
     <g id="text_54">
      <!-- 0.060 -->
      <g style="fill:#262626;" transform="translate(888.06318 178.070053)scale(0.11 -0.11)">
       <use xlink:href="#DejaVuSans-48"/>
       <use x="63.623047" xlink:href="#DejaVuSans-46"/>
       <use x="95.410156" xlink:href="#DejaVuSans-48"/>
       <use x="159.033203" xlink:href="#DejaVuSans-54"/>
       <use x="222.65625" xlink:href="#DejaVuSans-48"/>
      </g>
     </g>
    </g>
    <g id="ytick_18">
     <g id="line2d_63">
      <path clip-path="url(#p5f0cdadb46)" d="M 929.054118 144.133488 
L 1244.16 144.133488 
" style="fill:none;stroke:#ffffff;stroke-linecap:round;"/>
     </g>
     <g id="text_55">
      <!-- 0.065 -->
      <g style="fill:#262626;" transform="translate(888.06318 148.312629)scale(0.11 -0.11)">
       <use xlink:href="#DejaVuSans-48"/>
       <use x="63.623047" xlink:href="#DejaVuSans-46"/>
       <use x="95.410156" xlink:href="#DejaVuSans-48"/>
       <use x="159.033203" xlink:href="#DejaVuSans-54"/>
       <use x="222.65625" xlink:href="#DejaVuSans-53"/>
      </g>
     </g>
    </g>
    <g id="ytick_19">
     <g id="line2d_64">
      <path clip-path="url(#p5f0cdadb46)" d="M 929.054118 114.376065 
L 1244.16 114.376065 
" style="fill:none;stroke:#ffffff;stroke-linecap:round;"/>
     </g>
     <g id="text_56">
      <!-- 0.070 -->
      <g style="fill:#262626;" transform="translate(888.06318 118.555206)scale(0.11 -0.11)">
       <use xlink:href="#DejaVuSans-48"/>
       <use x="63.623047" xlink:href="#DejaVuSans-46"/>
       <use x="95.410156" xlink:href="#DejaVuSans-48"/>
       <use x="159.033203" xlink:href="#DejaVuSans-55"/>
       <use x="222.65625" xlink:href="#DejaVuSans-48"/>
      </g>
     </g>
    </g>
    <g id="ytick_20">
     <g id="line2d_65">
      <path clip-path="url(#p5f0cdadb46)" d="M 929.054118 84.618641 
L 1244.16 84.618641 
" style="fill:none;stroke:#ffffff;stroke-linecap:round;"/>
     </g>
     <g id="text_57">
      <!-- 0.075 -->
      <g style="fill:#262626;" transform="translate(888.06318 88.797782)scale(0.11 -0.11)">
       <use xlink:href="#DejaVuSans-48"/>
       <use x="63.623047" xlink:href="#DejaVuSans-46"/>
       <use x="95.410156" xlink:href="#DejaVuSans-48"/>
       <use x="159.033203" xlink:href="#DejaVuSans-55"/>
       <use x="222.65625" xlink:href="#DejaVuSans-53"/>
      </g>
     </g>
    </g>
    <g id="ytick_21">
     <g id="line2d_66">
      <path clip-path="url(#p5f0cdadb46)" d="M 929.054118 54.861218 
L 1244.16 54.861218 
" style="fill:none;stroke:#ffffff;stroke-linecap:round;"/>
     </g>
     <g id="text_58">
      <!-- 0.080 -->
      <g style="fill:#262626;" transform="translate(888.06318 59.040359)scale(0.11 -0.11)">
       <use xlink:href="#DejaVuSans-48"/>
       <use x="63.623047" xlink:href="#DejaVuSans-46"/>
       <use x="95.410156" xlink:href="#DejaVuSans-48"/>
       <use x="159.033203" xlink:href="#DejaVuSans-56"/>
       <use x="222.65625" xlink:href="#DejaVuSans-48"/>
      </g>
     </g>
    </g>
    <g id="text_59">
     <!-- average time(ms) -->
     <defs>
      <path d="M 31 75.875 
Q 24.46875 64.65625 21.28125 53.65625 
Q 18.109375 42.671875 18.109375 31.390625 
Q 18.109375 20.125 21.3125 9.0625 
Q 24.515625 -2 31 -13.1875 
L 23.1875 -13.1875 
Q 15.875 -1.703125 12.234375 9.375 
Q 8.59375 20.453125 8.59375 31.390625 
Q 8.59375 42.28125 12.203125 53.3125 
Q 15.828125 64.359375 23.1875 75.875 
z
" id="DejaVuSans-40"/>
      <path d="M 8.015625 75.875 
L 15.828125 75.875 
Q 23.140625 64.359375 26.78125 53.3125 
Q 30.421875 42.28125 30.421875 31.390625 
Q 30.421875 20.453125 26.78125 9.375 
Q 23.140625 -1.703125 15.828125 -13.1875 
L 8.015625 -13.1875 
Q 14.5 -2 17.703125 9.0625 
Q 20.90625 20.125 20.90625 31.390625 
Q 20.90625 42.671875 17.703125 53.65625 
Q 14.5 64.65625 8.015625 75.875 
z
" id="DejaVuSans-41"/>
     </defs>
     <g style="fill:#262626;" transform="translate(881.567555 228.206437)rotate(-90)scale(0.12 -0.12)">
      <use xlink:href="#DejaVuSans-97"/>
      <use x="61.279297" xlink:href="#DejaVuSans-118"/>
      <use x="120.458984" xlink:href="#DejaVuSans-101"/>
      <use x="181.982422" xlink:href="#DejaVuSans-114"/>
      <use x="223.095703" xlink:href="#DejaVuSans-97"/>
      <use x="284.375" xlink:href="#DejaVuSans-103"/>
      <use x="347.851562" xlink:href="#DejaVuSans-101"/>
      <use x="409.375" xlink:href="#DejaVuSans-32"/>
      <use x="441.162109" xlink:href="#DejaVuSans-116"/>
      <use x="480.371094" xlink:href="#DejaVuSans-105"/>
      <use x="508.154297" xlink:href="#DejaVuSans-109"/>
      <use x="605.566406" xlink:href="#DejaVuSans-101"/>
      <use x="667.089844" xlink:href="#DejaVuSans-40"/>
      <use x="706.103516" xlink:href="#DejaVuSans-109"/>
      <use x="803.515625" xlink:href="#DejaVuSans-115"/>
      <use x="855.615234" xlink:href="#DejaVuSans-41"/>
     </g>
    </g>
   </g>
   <g id="line2d_67">
    <path clip-path="url(#p5f0cdadb46)" d="M 943.377112 54.998581 
L 957.700107 130.057452 
L 972.023102 130.034669 
L 986.346096 127.527603 
L 1000.669091 128.451006 
L 1014.992086 121.913954 
L 1029.31508 122.946215 
L 1043.638075 122.596372 
L 1057.96107 122.551144 
L 1072.284064 121.360542 
L 1086.607059 120.158137 
L 1100.930053 122.897135 
L 1115.253048 124.322866 
L 1129.576043 120.192416 
L 1143.899037 119.995691 
L 1158.222032 123.397666 
L 1172.545027 121.215797 
L 1186.868021 122.942291 
L 1201.191016 122.064497 
L 1215.514011 121.608526 
L 1229.837005 119.443976 
" style="fill:none;stroke:#4c72b0;stroke-linecap:round;stroke-width:1.5;"/>
    <g clip-path="url(#p5f0cdadb46)">
     <use style="fill:#4c72b0;stroke:#ffffff;stroke-width:0.75;" x="943.377112" xlink:href="#m52706a8113" y="54.998581"/>
     <use style="fill:#4c72b0;stroke:#ffffff;stroke-width:0.75;" x="957.700107" xlink:href="#m52706a8113" y="130.057452"/>
     <use style="fill:#4c72b0;stroke:#ffffff;stroke-width:0.75;" x="972.023102" xlink:href="#m52706a8113" y="130.034669"/>
     <use style="fill:#4c72b0;stroke:#ffffff;stroke-width:0.75;" x="986.346096" xlink:href="#m52706a8113" y="127.527603"/>
     <use style="fill:#4c72b0;stroke:#ffffff;stroke-width:0.75;" x="1000.669091" xlink:href="#m52706a8113" y="128.451006"/>
     <use style="fill:#4c72b0;stroke:#ffffff;stroke-width:0.75;" x="1014.992086" xlink:href="#m52706a8113" y="121.913954"/>
     <use style="fill:#4c72b0;stroke:#ffffff;stroke-width:0.75;" x="1029.31508" xlink:href="#m52706a8113" y="122.946215"/>
     <use style="fill:#4c72b0;stroke:#ffffff;stroke-width:0.75;" x="1043.638075" xlink:href="#m52706a8113" y="122.596372"/>
     <use style="fill:#4c72b0;stroke:#ffffff;stroke-width:0.75;" x="1057.96107" xlink:href="#m52706a8113" y="122.551144"/>
     <use style="fill:#4c72b0;stroke:#ffffff;stroke-width:0.75;" x="1072.284064" xlink:href="#m52706a8113" y="121.360542"/>
     <use style="fill:#4c72b0;stroke:#ffffff;stroke-width:0.75;" x="1086.607059" xlink:href="#m52706a8113" y="120.158137"/>
     <use style="fill:#4c72b0;stroke:#ffffff;stroke-width:0.75;" x="1100.930053" xlink:href="#m52706a8113" y="122.897135"/>
     <use style="fill:#4c72b0;stroke:#ffffff;stroke-width:0.75;" x="1115.253048" xlink:href="#m52706a8113" y="124.322866"/>
     <use style="fill:#4c72b0;stroke:#ffffff;stroke-width:0.75;" x="1129.576043" xlink:href="#m52706a8113" y="120.192416"/>
     <use style="fill:#4c72b0;stroke:#ffffff;stroke-width:0.75;" x="1143.899037" xlink:href="#m52706a8113" y="119.995691"/>
     <use style="fill:#4c72b0;stroke:#ffffff;stroke-width:0.75;" x="1158.222032" xlink:href="#m52706a8113" y="123.397666"/>
     <use style="fill:#4c72b0;stroke:#ffffff;stroke-width:0.75;" x="1172.545027" xlink:href="#m52706a8113" y="121.215797"/>
     <use style="fill:#4c72b0;stroke:#ffffff;stroke-width:0.75;" x="1186.868021" xlink:href="#m52706a8113" y="122.942291"/>
     <use style="fill:#4c72b0;stroke:#ffffff;stroke-width:0.75;" x="1201.191016" xlink:href="#m52706a8113" y="122.064497"/>
     <use style="fill:#4c72b0;stroke:#ffffff;stroke-width:0.75;" x="1215.514011" xlink:href="#m52706a8113" y="121.608526"/>
     <use style="fill:#4c72b0;stroke:#ffffff;stroke-width:0.75;" x="1229.837005" xlink:href="#m52706a8113" y="119.443976"/>
    </g>
   </g>
   <g id="line2d_68">
    <path clip-path="url(#p5f0cdadb46)" d="M 943.377112 53.568 
L 957.700107 75.336231 
L 972.023102 75.208455 
L 986.346096 73.116245 
L 1000.669091 73.537479 
L 1014.992086 66.352262 
L 1029.31508 68.028771 
L 1043.638075 68.12132 
L 1057.96107 67.42787 
L 1072.284064 67.196553 
L 1086.607059 67.647286 
L 1100.930053 68.652264 
L 1115.253048 70.179924 
L 1129.576043 67.637238 
L 1143.899037 67.432868 
L 1158.222032 69.796878 
L 1172.545027 67.305636 
L 1186.868021 71.373121 
L 1201.191016 71.618034 
L 1215.514011 69.916276 
L 1229.837005 65.524164 
" style="fill:none;stroke:#dd8452;stroke-linecap:round;stroke-width:1.5;"/>
    <g clip-path="url(#p5f0cdadb46)">
     <use style="fill:#dd8452;stroke:#ffffff;stroke-linejoin:miter;stroke-width:0.75;" x="943.377112" xlink:href="#m816f2faf51" y="53.568"/>
     <use style="fill:#dd8452;stroke:#ffffff;stroke-linejoin:miter;stroke-width:0.75;" x="957.700107" xlink:href="#m816f2faf51" y="75.336231"/>
     <use style="fill:#dd8452;stroke:#ffffff;stroke-linejoin:miter;stroke-width:0.75;" x="972.023102" xlink:href="#m816f2faf51" y="75.208455"/>
     <use style="fill:#dd8452;stroke:#ffffff;stroke-linejoin:miter;stroke-width:0.75;" x="986.346096" xlink:href="#m816f2faf51" y="73.116245"/>
     <use style="fill:#dd8452;stroke:#ffffff;stroke-linejoin:miter;stroke-width:0.75;" x="1000.669091" xlink:href="#m816f2faf51" y="73.537479"/>
     <use style="fill:#dd8452;stroke:#ffffff;stroke-linejoin:miter;stroke-width:0.75;" x="1014.992086" xlink:href="#m816f2faf51" y="66.352262"/>
     <use style="fill:#dd8452;stroke:#ffffff;stroke-linejoin:miter;stroke-width:0.75;" x="1029.31508" xlink:href="#m816f2faf51" y="68.028771"/>
     <use style="fill:#dd8452;stroke:#ffffff;stroke-linejoin:miter;stroke-width:0.75;" x="1043.638075" xlink:href="#m816f2faf51" y="68.12132"/>
     <use style="fill:#dd8452;stroke:#ffffff;stroke-linejoin:miter;stroke-width:0.75;" x="1057.96107" xlink:href="#m816f2faf51" y="67.42787"/>
     <use style="fill:#dd8452;stroke:#ffffff;stroke-linejoin:miter;stroke-width:0.75;" x="1072.284064" xlink:href="#m816f2faf51" y="67.196553"/>
     <use style="fill:#dd8452;stroke:#ffffff;stroke-linejoin:miter;stroke-width:0.75;" x="1086.607059" xlink:href="#m816f2faf51" y="67.647286"/>
     <use style="fill:#dd8452;stroke:#ffffff;stroke-linejoin:miter;stroke-width:0.75;" x="1100.930053" xlink:href="#m816f2faf51" y="68.652264"/>
     <use style="fill:#dd8452;stroke:#ffffff;stroke-linejoin:miter;stroke-width:0.75;" x="1115.253048" xlink:href="#m816f2faf51" y="70.179924"/>
     <use style="fill:#dd8452;stroke:#ffffff;stroke-linejoin:miter;stroke-width:0.75;" x="1129.576043" xlink:href="#m816f2faf51" y="67.637238"/>
     <use style="fill:#dd8452;stroke:#ffffff;stroke-linejoin:miter;stroke-width:0.75;" x="1143.899037" xlink:href="#m816f2faf51" y="67.432868"/>
     <use style="fill:#dd8452;stroke:#ffffff;stroke-linejoin:miter;stroke-width:0.75;" x="1158.222032" xlink:href="#m816f2faf51" y="69.796878"/>
     <use style="fill:#dd8452;stroke:#ffffff;stroke-linejoin:miter;stroke-width:0.75;" x="1172.545027" xlink:href="#m816f2faf51" y="67.305636"/>
     <use style="fill:#dd8452;stroke:#ffffff;stroke-linejoin:miter;stroke-width:0.75;" x="1186.868021" xlink:href="#m816f2faf51" y="71.373121"/>
     <use style="fill:#dd8452;stroke:#ffffff;stroke-linejoin:miter;stroke-width:0.75;" x="1201.191016" xlink:href="#m816f2faf51" y="71.618034"/>
     <use style="fill:#dd8452;stroke:#ffffff;stroke-linejoin:miter;stroke-width:0.75;" x="1215.514011" xlink:href="#m816f2faf51" y="69.916276"/>
     <use style="fill:#dd8452;stroke:#ffffff;stroke-linejoin:miter;stroke-width:0.75;" x="1229.837005" xlink:href="#m816f2faf51" y="65.524164"/>
    </g>
   </g>
   <g id="line2d_69">
    <path clip-path="url(#p5f0cdadb46)" d="M 943.377112 59.315758 
L 957.700107 295.193938 
L 972.023102 295.488 
L 986.346096 291.728989 
L 1000.669091 294.167827 
L 1014.992086 289.586793 
L 1029.31508 288.674859 
L 1043.638075 286.989973 
L 1057.96107 288.900938 
L 1072.284064 284.815425 
L 1086.607059 278.624216 
L 1100.930053 286.596099 
L 1115.253048 287.714234 
L 1129.576043 278.792264 
L 1143.899037 278.61861 
L 1158.222032 285.152932 
L 1172.545027 283.904683 
L 1186.868021 278.566588 
L 1201.191016 274.300711 
L 1215.514011 277.604248 
L 1229.837005 282.161986 
" style="fill:none;stroke:#55a868;stroke-linecap:round;stroke-width:1.5;"/>
    <defs>
     <path d="M -3 3 
L 3 3 
L 3 -3 
L -3 -3 
z
" id="mb761d43b87" style="stroke:#ffffff;stroke-linejoin:miter;stroke-width:0.75;"/>
    </defs>
    <g clip-path="url(#p5f0cdadb46)">
     <use style="fill:#55a868;stroke:#ffffff;stroke-linejoin:miter;stroke-width:0.75;" x="943.377112" xlink:href="#mb761d43b87" y="59.315758"/>
     <use style="fill:#55a868;stroke:#ffffff;stroke-linejoin:miter;stroke-width:0.75;" x="957.700107" xlink:href="#mb761d43b87" y="295.193938"/>
     <use style="fill:#55a868;stroke:#ffffff;stroke-linejoin:miter;stroke-width:0.75;" x="972.023102" xlink:href="#mb761d43b87" y="295.488"/>
     <use style="fill:#55a868;stroke:#ffffff;stroke-linejoin:miter;stroke-width:0.75;" x="986.346096" xlink:href="#mb761d43b87" y="291.728989"/>
     <use style="fill:#55a868;stroke:#ffffff;stroke-linejoin:miter;stroke-width:0.75;" x="1000.669091" xlink:href="#mb761d43b87" y="294.167827"/>
     <use style="fill:#55a868;stroke:#ffffff;stroke-linejoin:miter;stroke-width:0.75;" x="1014.992086" xlink:href="#mb761d43b87" y="289.586793"/>
     <use style="fill:#55a868;stroke:#ffffff;stroke-linejoin:miter;stroke-width:0.75;" x="1029.31508" xlink:href="#mb761d43b87" y="288.674859"/>
     <use style="fill:#55a868;stroke:#ffffff;stroke-linejoin:miter;stroke-width:0.75;" x="1043.638075" xlink:href="#mb761d43b87" y="286.989973"/>
     <use style="fill:#55a868;stroke:#ffffff;stroke-linejoin:miter;stroke-width:0.75;" x="1057.96107" xlink:href="#mb761d43b87" y="288.900938"/>
     <use style="fill:#55a868;stroke:#ffffff;stroke-linejoin:miter;stroke-width:0.75;" x="1072.284064" xlink:href="#mb761d43b87" y="284.815425"/>
     <use style="fill:#55a868;stroke:#ffffff;stroke-linejoin:miter;stroke-width:0.75;" x="1086.607059" xlink:href="#mb761d43b87" y="278.624216"/>
     <use style="fill:#55a868;stroke:#ffffff;stroke-linejoin:miter;stroke-width:0.75;" x="1100.930053" xlink:href="#mb761d43b87" y="286.596099"/>
     <use style="fill:#55a868;stroke:#ffffff;stroke-linejoin:miter;stroke-width:0.75;" x="1115.253048" xlink:href="#mb761d43b87" y="287.714234"/>
     <use style="fill:#55a868;stroke:#ffffff;stroke-linejoin:miter;stroke-width:0.75;" x="1129.576043" xlink:href="#mb761d43b87" y="278.792264"/>
     <use style="fill:#55a868;stroke:#ffffff;stroke-linejoin:miter;stroke-width:0.75;" x="1143.899037" xlink:href="#mb761d43b87" y="278.61861"/>
     <use style="fill:#55a868;stroke:#ffffff;stroke-linejoin:miter;stroke-width:0.75;" x="1158.222032" xlink:href="#mb761d43b87" y="285.152932"/>
     <use style="fill:#55a868;stroke:#ffffff;stroke-linejoin:miter;stroke-width:0.75;" x="1172.545027" xlink:href="#mb761d43b87" y="283.904683"/>
     <use style="fill:#55a868;stroke:#ffffff;stroke-linejoin:miter;stroke-width:0.75;" x="1186.868021" xlink:href="#mb761d43b87" y="278.566588"/>
     <use style="fill:#55a868;stroke:#ffffff;stroke-linejoin:miter;stroke-width:0.75;" x="1201.191016" xlink:href="#mb761d43b87" y="274.300711"/>
     <use style="fill:#55a868;stroke:#ffffff;stroke-linejoin:miter;stroke-width:0.75;" x="1215.514011" xlink:href="#mb761d43b87" y="277.604248"/>
     <use style="fill:#55a868;stroke:#ffffff;stroke-linejoin:miter;stroke-width:0.75;" x="1229.837005" xlink:href="#mb761d43b87" y="282.161986"/>
    </g>
   </g>
   <g id="line2d_70"/>
   <g id="line2d_71"/>
   <g id="line2d_72"/>
   <g id="line2d_73"/>
   <g id="patch_15">
    <path d="M 929.054118 307.584 
L 929.054118 41.472 
" style="fill:none;stroke:#ffffff;stroke-linecap:square;stroke-linejoin:miter;stroke-width:1.25;"/>
   </g>
   <g id="patch_16">
    <path d="M 1244.16 307.584 
L 1244.16 41.472 
" style="fill:none;stroke:#ffffff;stroke-linecap:square;stroke-linejoin:miter;stroke-width:1.25;"/>
   </g>
   <g id="patch_17">
    <path d="M 929.054118 307.584 
L 1244.16 307.584 
" style="fill:none;stroke:#ffffff;stroke-linecap:square;stroke-linejoin:miter;stroke-width:1.25;"/>
   </g>
   <g id="patch_18">
    <path d="M 929.054118 41.472 
L 1244.16 41.472 
" style="fill:none;stroke:#ffffff;stroke-linecap:square;stroke-linejoin:miter;stroke-width:1.25;"/>
   </g>
   <g id="legend_3">
    <g id="patch_19">
     <path d="M 1119.2275 208.469875 
L 1236.46 208.469875 
Q 1238.66 208.469875 1238.66 206.269875 
L 1238.66 142.786125 
Q 1238.66 140.586125 1236.46 140.586125 
L 1119.2275 140.586125 
Q 1117.0275 140.586125 1117.0275 142.786125 
L 1117.0275 206.269875 
Q 1117.0275 208.469875 1119.2275 208.469875 
z
" style="fill:#eaeaf2;opacity:0.8;stroke:#cccccc;stroke-linejoin:miter;"/>
    </g>
    <g id="line2d_74">
     <path d="M 1121.4275 149.494406 
L 1143.4275 149.494406 
" style="fill:none;"/>
    </g>
    <g id="line2d_75"/>
    <g id="text_60">
     <!-- type -->
     <g style="fill:#262626;" transform="translate(1152.2275 153.344406)scale(0.11 -0.11)">
      <use xlink:href="#DejaVuSans-116"/>
      <use x="39.208984" xlink:href="#DejaVuSans-121"/>
      <use x="98.388672" xlink:href="#DejaVuSans-112"/>
      <use x="161.865234" xlink:href="#DejaVuSans-101"/>
     </g>
    </g>
    <g id="line2d_76">
     <path d="M 1121.4275 165.640344 
L 1143.4275 165.640344 
" style="fill:none;stroke:#4c72b0;stroke-linecap:round;stroke-width:1.5;"/>
    </g>
    <g id="line2d_77">
     <g>
      <use style="fill:#4c72b0;stroke:#4c72b0;" x="1132.4275" xlink:href="#mc0e0661206" y="165.640344"/>
     </g>
    </g>
    <g id="text_61">
     <!-- all images -->
     <defs>
      <path d="M 9.421875 75.984375 
L 18.40625 75.984375 
L 18.40625 0 
L 9.421875 0 
z
" id="DejaVuSans-108"/>
     </defs>
     <g style="fill:#262626;" transform="translate(1152.2275 169.490344)scale(0.11 -0.11)">
      <use xlink:href="#DejaVuSans-97"/>
      <use x="61.279297" xlink:href="#DejaVuSans-108"/>
      <use x="89.0625" xlink:href="#DejaVuSans-108"/>
      <use x="116.845703" xlink:href="#DejaVuSans-32"/>
      <use x="148.632812" xlink:href="#DejaVuSans-105"/>
      <use x="176.416016" xlink:href="#DejaVuSans-109"/>
      <use x="273.828125" xlink:href="#DejaVuSans-97"/>
      <use x="335.107422" xlink:href="#DejaVuSans-103"/>
      <use x="398.583984" xlink:href="#DejaVuSans-101"/>
      <use x="460.107422" xlink:href="#DejaVuSans-115"/>
     </g>
    </g>
    <g id="line2d_78">
     <path d="M 1121.4275 181.786281 
L 1143.4275 181.786281 
" style="fill:none;stroke:#dd8452;stroke-linecap:round;stroke-width:1.5;"/>
    </g>
    <g id="line2d_79">
     <g>
      <use style="fill:#dd8452;stroke:#dd8452;stroke-linejoin:miter;" x="1132.4275" xlink:href="#mf49b1a8dc4" y="181.786281"/>
     </g>
    </g>
    <g id="text_62">
     <!-- defect images -->
     <g style="fill:#262626;" transform="translate(1152.2275 185.636281)scale(0.11 -0.11)">
      <use xlink:href="#DejaVuSans-100"/>
      <use x="63.476562" xlink:href="#DejaVuSans-101"/>
      <use x="125" xlink:href="#DejaVuSans-102"/>
      <use x="160.205078" xlink:href="#DejaVuSans-101"/>
      <use x="221.728516" xlink:href="#DejaVuSans-99"/>
      <use x="276.708984" xlink:href="#DejaVuSans-116"/>
      <use x="315.917969" xlink:href="#DejaVuSans-32"/>
      <use x="347.705078" xlink:href="#DejaVuSans-105"/>
      <use x="375.488281" xlink:href="#DejaVuSans-109"/>
      <use x="472.900391" xlink:href="#DejaVuSans-97"/>
      <use x="534.179688" xlink:href="#DejaVuSans-103"/>
      <use x="597.65625" xlink:href="#DejaVuSans-101"/>
      <use x="659.179688" xlink:href="#DejaVuSans-115"/>
     </g>
    </g>
    <g id="line2d_80">
     <path d="M 1121.4275 197.932219 
L 1143.4275 197.932219 
" style="fill:none;stroke:#55a868;stroke-linecap:round;stroke-width:1.5;"/>
    </g>
    <g id="line2d_81">
     <defs>
      <path d="M -3 3 
L 3 3 
L 3 -3 
L -3 -3 
z
" id="ma8aa5767b0" style="stroke:#55a868;stroke-linejoin:miter;"/>
     </defs>
     <g>
      <use style="fill:#55a868;stroke:#55a868;stroke-linejoin:miter;" x="1132.4275" xlink:href="#ma8aa5767b0" y="197.932219"/>
     </g>
    </g>
    <g id="text_63">
     <!-- normal images -->
     <g style="fill:#262626;" transform="translate(1152.2275 201.782219)scale(0.11 -0.11)">
      <use xlink:href="#DejaVuSans-110"/>
      <use x="63.378906" xlink:href="#DejaVuSans-111"/>
      <use x="124.560547" xlink:href="#DejaVuSans-114"/>
      <use x="163.923828" xlink:href="#DejaVuSans-109"/>
      <use x="261.335938" xlink:href="#DejaVuSans-97"/>
      <use x="322.615234" xlink:href="#DejaVuSans-108"/>
      <use x="350.398438" xlink:href="#DejaVuSans-32"/>
      <use x="382.185547" xlink:href="#DejaVuSans-105"/>
      <use x="409.96875" xlink:href="#DejaVuSans-109"/>
      <use x="507.380859" xlink:href="#DejaVuSans-97"/>
      <use x="568.660156" xlink:href="#DejaVuSans-103"/>
      <use x="632.136719" xlink:href="#DejaVuSans-101"/>
      <use x="693.660156" xlink:href="#DejaVuSans-115"/>
     </g>
    </g>
   </g>
  </g>
 </g>
 <defs>
  <clipPath id="p3f6137504c">
   <rect height="266.112" width="315.105882" x="172.8" y="41.472"/>
  </clipPath>
  <clipPath id="p9d219b9873">
   <rect height="266.112" width="315.105882" x="550.927059" y="41.472"/>
  </clipPath>
  <clipPath id="p5f0cdadb46">
   <rect height="266.112" width="315.105882" x="929.054118" y="41.472"/>
  </clipPath>
 </defs>
</svg>
